<?xml version="1.0" encoding="UTF-8"?>
<svg version="1.1" xmlns="http://www.w3.org/2000/svg" width="208" height="250">
<path d="M0 0 C1.82553154 -0.0129007 1.82553154 -0.0129007 3.6879425 -0.02606201 C5.04388385 -0.03049733 6.39982565 -0.03479568 7.75576782 -0.03897095 C9.17812806 -0.04687107 10.60048629 -0.05513996 12.02284241 -0.06375122 C16.70023685 -0.08997782 21.37764029 -0.10527766 26.05508423 -0.11953735 C27.66406892 -0.12489643 29.27305355 -0.13027393 30.88203812 -0.13566971 C37.57322348 -0.15729775 44.26440642 -0.17603586 50.9556179 -0.1872921 C60.55221974 -0.20354115 70.14841731 -0.23674253 79.74486673 -0.29369295 C86.48886292 -0.33235451 93.2327508 -0.35192017 99.97685492 -0.35721266 C104.00690296 -0.36087086 108.0365199 -0.37294116 112.06644821 -0.4053154 C115.85702997 -0.4353307 119.64691831 -0.44173185 123.43759346 -0.42993164 C124.82919076 -0.42971036 126.22081963 -0.43806046 127.61230659 -0.45558548 C129.51117852 -0.47820012 131.41036353 -0.46702132 133.30932617 -0.45410156 C134.37232122 -0.45741171 135.43531628 -0.46072186 136.5305233 -0.46413231 C139.28164673 0.15390015 139.28164673 0.15390015 141.62416267 2.27915764 C143.61051028 5.72428152 143.77885775 7.7950672 143.77371216 11.75778198 C143.77839115 12.4078111 143.78307014 13.05784022 143.78789091 13.7275672 C143.79879349 15.8980807 143.78135708 18.0674265 143.7640686 20.23788452 C143.7662552 21.79699546 143.77025306 23.35610475 143.77592468 24.91520691 C143.78448342 28.26887522 143.78071494 31.62222337 143.76750183 34.97587585 C143.74716108 40.27893547 143.75714389 45.58167249 143.77175903 50.88473511 C143.80078888 63.09848817 143.79005935 75.31214628 143.77906036 87.52591705 C143.76938756 98.72086682 143.76808814 109.91564852 143.79894114 121.11056948 C143.81232165 126.38215445 143.80634535 131.65325615 143.78557587 136.92481232 C143.77659464 140.20394206 143.78405948 143.48288516 143.79598808 146.76199913 C143.79812006 148.28216367 143.79339071 149.80235571 143.78128242 151.32247353 C143.76567621 153.39882447 143.77463567 155.47369491 143.7895813 157.55001831 C143.7880732 158.71143593 143.78656509 159.87285355 143.78501129 161.06946564 C144.38532592 164.79781647 145.75925834 166.40740891 148.28164673 169.15390015 C149.61992573 171.83045816 149.48743228 173.97824067 149.53164673 176.96640015 C149.5703186 178.52294312 149.5703186 178.52294312 149.60977173 180.1109314 C149.13613642 184.50333507 147.3604273 187.07511957 144.28164673 190.15390015 C143.99152449 193.18158942 143.99152449 193.18158942 144.04336548 196.7359314 C144.02794046 198.0738321 144.01163643 199.41172291 143.99453735 200.74960327 C143.97811094 202.85635216 143.96913318 204.96237596 143.97622681 207.06918335 C143.97885645 209.10476262 143.95065916 211.13814626 143.91836548 213.1734314 C143.91538452 214.39135376 143.91240356 215.60927612 143.90933228 216.86410522 C143.28164673 220.15390015 143.28164673 220.15390015 141.46841431 223.06356812 C136.64806414 226.22543421 132.29453431 225.72945662 126.65664673 225.5796814 C124.31680541 225.5717645 121.97696135 225.56462836 119.63711548 225.55819702 C115.96823187 225.51882292 112.3001933 225.46674875 108.63174438 225.39779663 C90.53003826 224.65216555 90.53003826 224.65216555 74.76211548 232.23275757 C68.27830343 237.25452105 60.11919896 237.06806385 52.28164673 236.15390015 C45.86634479 234.94656863 39.60514445 233.04141569 33.34414673 231.21640015 C21.87976593 227.89235432 11.27290896 225.34114099 -0.71835327 225.15390015 C-0.23302124 225.93184937 0.25231079 226.70979858 0.75234985 227.51132202 C3.01563157 231.42220346 3.09383615 234.75521089 2.28164673 239.15390015 C-1.59999872 244.90944339 -9.50604248 249.23367225 -16.25741577 250.70858765 C-20.20987851 250.93330961 -21.89095463 250.81308386 -25.08163452 248.27108765 C-28.81845295 244.2425977 -31.33662379 239.34283791 -34.03085327 234.59140015 C-34.62535278 233.55741089 -35.21985229 232.52342163 -35.83236694 231.45809937 C-37.45403031 228.63378106 -39.06838343 225.80543451 -40.67977905 222.97525024 C-42.49886614 219.78511285 -44.32819093 216.60084827 -46.15585327 213.4156189 C-59.79803745 189.62063172 -59.79803745 189.62063172 -58.71835327 182.15390015 C-55.18000735 176.90738723 -48.55409129 173.43030734 -42.71835327 171.15390015 C-40.38545414 171.10888797 -38.05115186 171.10394839 -35.71835327 171.15390015 C-35.72111865 170.43698659 -35.72388403 169.72007303 -35.72673321 168.98143482 C-35.79298307 151.53823226 -35.84262898 134.09506165 -35.87378979 116.65176105 C-35.88925941 108.21631159 -35.91035073 99.7809461 -35.94467163 91.34555054 C-35.9745711 83.9933519 -35.99392758 76.64121409 -36.00061876 69.28895634 C-36.0045301 65.39588752 -36.01372418 61.50299269 -36.03554344 57.60997963 C-36.05591732 53.9451352 -36.06218531 50.28053632 -36.05767632 46.61564064 C-36.05889417 44.63058973 -36.07503161 42.64556552 -36.09161377 40.6605835 C-36.08748978 39.47572861 -36.08336578 38.29087372 -36.07911682 37.07011414 C-36.0818822 36.04231496 -36.08464758 35.01451578 -36.08749676 33.95557117 C-35.30172029 27.99180032 -31.14080837 24.2895906 -27.02694702 20.23202515 C-26.48103409 19.68657043 -25.93512115 19.14111572 -25.37266541 18.57913208 C-24.22439457 17.43386862 -23.07370803 16.29102263 -21.92074585 15.15048218 C-20.15278975 13.40086841 -18.39305275 11.64329793 -16.6343689 9.8843689 C-15.5157005 8.77061313 -14.39657571 7.65731554 -13.27694702 6.54452515 C-12.74983627 6.01852722 -12.22272552 5.4925293 -11.67964172 4.95059204 C-7.54092009 0.86568181 -5.77123443 0.03027472 0 0 Z M1.28164673 9.15390015 C0.95164673 16.74390015 0.62164673 24.33390015 0.28164673 32.15390015 C-2.71835327 35.15390015 -2.71835327 35.15390015 -25.71835327 36.15390015 C-25.71835327 83.01390015 -25.71835327 129.87390015 -25.71835327 178.15390015 C-18.73476117 175.2032896 -18.73476117 175.2032896 -17.86361694 171.52841187 C-17.87110962 170.55661987 -17.87860229 169.58482788 -17.88632202 168.58358765 C-17.87278687 167.52268921 -17.85925171 166.46179077 -17.8453064 165.3687439 C-17.86528687 164.26659546 -17.88526733 163.16444702 -17.90585327 162.02890015 C-17.90712511 159.83878667 -17.90099359 157.64865235 -17.88632202 155.45858765 C-17.89945435 154.48905151 -17.91258667 153.51951538 -17.92611694 152.52059937 C-17.71835327 150.15390015 -17.71835327 150.15390015 -15.71835327 148.15390015 C-13.31991577 147.91098022 -13.31991577 147.91098022 -10.34335327 147.9234314 C-9.27600952 147.92536499 -8.20866577 147.92729858 -7.10897827 147.92929077 C-5.99007202 147.94153687 -4.87116577 147.95378296 -3.71835327 147.96640015 C-2.0399939 147.96736694 -2.0399939 147.96736694 -0.32772827 147.96835327 C8.00108354 148.01361855 8.00108354 148.01361855 10.28164673 149.15390015 C10.87936772 152.13686624 11.02502487 155.1172082 11.28164673 158.15390015 C14.25164673 158.15390015 17.22164673 158.15390015 20.28164673 158.15390015 C20.31923096 156.61681396 20.31923096 156.61681396 20.35757446 155.04867554 C20.45149156 151.25980338 20.5517499 147.47112134 20.65396118 143.6824646 C20.6973697 142.04025711 20.73904031 140.39800276 20.77896118 138.75570679 C20.83652113 136.40001269 20.90025564 134.04455587 20.96524048 131.6890564 C20.98195297 130.95050919 20.99866547 130.21196198 21.0158844 129.45103455 C21.16777502 124.26777185 21.16777502 124.26777185 22.28164673 123.15390015 C26.42126956 122.90088776 30.57270669 122.96867466 34.71914673 122.96640015 C35.89026001 122.95415405 37.06137329 122.94190796 38.26797485 122.92929077 C39.38494751 122.92735718 40.50192017 122.92542358 41.65274048 122.9234314 C42.68326538 122.91932251 43.71379028 122.91521362 44.77554321 122.91098022 C47.28164673 123.15390015 47.28164673 123.15390015 49.28164673 125.15390015 C49.56011963 126.9888916 49.56011963 126.9888916 49.60049438 129.23641968 C49.62036407 130.0771402 49.64023376 130.91786072 49.66070557 131.78405762 C49.67225677 132.69243378 49.68380798 133.60080994 49.69570923 134.53671265 C49.71507538 135.46611664 49.73444153 136.39552063 49.75439453 137.35308838 C49.81428358 140.32826495 49.86061283 143.30348002 49.90664673 146.27890015 C49.94481794 148.29324015 49.98386916 150.30756369 50.02383423 152.3218689 C50.11999273 157.2657459 50.20398912 162.20969932 50.28164673 167.15390015 C53.18764934 168.41054992 55.07769257 169.15390015 58.28164673 169.15390015 C58.31923096 167.52593506 58.31923096 167.52593506 58.35757446 165.86508179 C58.45148428 161.85258415 58.55174439 157.84026632 58.65396118 153.82797241 C58.69737246 152.08875727 58.73904285 150.34949779 58.77896118 148.61019897 C58.83651441 146.11551526 58.90025093 143.62105605 58.96524048 141.1265564 C58.98195297 140.34426163 58.99866547 139.56196686 59.0158844 138.75596619 C59.16777502 133.26777185 59.16777502 133.26777185 60.28164673 132.15390015 C62.19622955 132.05418229 64.1144699 132.02309426 66.03164673 132.02108765 C67.19695923 132.01979858 68.36227173 132.01850952 69.56289673 132.0171814 C70.79008423 132.02104858 72.01727173 132.02491577 73.28164673 132.02890015 C75.12242798 132.02309937 75.12242798 132.02309937 77.00039673 132.0171814 C78.16570923 132.01847046 79.33102173 132.01975952 80.53164673 132.02108765 C81.60930298 132.02221558 82.68695923 132.02334351 83.79727173 132.02450562 C86.28164673 132.15390015 86.28164673 132.15390015 87.28164673 133.15390015 C87.40418223 134.68772693 87.45942611 136.22700534 87.48696899 137.76547241 C87.51688683 139.23688438 87.51688683 139.23688438 87.54740906 140.73802185 C87.56412155 141.80467575 87.58083405 142.87132965 87.59805298 143.9703064 C87.61883408 145.05649765 87.63961517 146.1426889 87.661026 147.26179504 C87.72664115 150.74659641 87.78546184 154.23147583 87.84414673 157.71640015 C87.88732058 160.07252815 87.93093448 162.42864814 87.9750061 164.78475952 C88.08233465 170.57438952 88.18407838 176.3640979 88.28164673 182.15390015 C91.25358523 181.02938287 93.6160536 179.93096223 96.28164673 178.15390015 C96.58207351 175.56331257 96.68802559 173.20821379 96.66641235 170.61483765 C96.67178513 169.83747253 96.6771579 169.06010742 96.68269348 168.25918579 C96.69248897 166.56878143 96.69541029 164.87832668 96.69233704 163.18789673 C96.6878741 160.51534865 96.70181476 157.84346807 96.72073364 155.17098999 C96.75758246 149.49863772 96.77123965 143.82635453 96.78164673 138.15390015 C96.79370297 131.58255639 96.81513003 125.01153617 96.86164856 118.44033813 C96.8752761 115.80225123 96.87103762 113.16456737 96.86624146 110.52645874 C96.87557781 108.91528806 96.88574555 107.3041219 96.8968811 105.69296265 C96.89073288 104.95523621 96.88458466 104.21750977 96.87825012 103.45742798 C96.90310669 101.4180603 96.90310669 101.4180603 97.28164673 98.15390015 C100.55122844 95.97417901 101.49722911 95.90589821 105.28164673 95.9234314 C106.73570923 95.92633179 106.73570923 95.92633179 108.21914673 95.92929077 C109.22977173 95.94153687 110.24039673 95.95378296 111.28164673 95.96640015 C112.29227173 95.96704468 113.30289673 95.96768921 114.34414673 95.96835327 C121.85993041 96.01332804 121.85993041 96.01332804 125.28164673 97.15390015 C125.61164673 118.60390015 125.94164673 140.05390015 126.28164673 162.15390015 C128.92164673 161.82390015 131.56164673 161.49390015 134.28164673 161.15390015 C134.28164673 110.99390015 134.28164673 60.83390015 134.28164673 9.15390015 C90.39164673 9.15390015 46.50164673 9.15390015 1.28164673 9.15390015 Z M-11.00350952 18.3062439 C-12.37829468 19.68489624 -12.37829468 19.68489624 -13.78085327 21.09140015 C-14.69995483 22.00792358 -15.6190564 22.92444702 -16.56600952 23.8687439 C-18.832626 25.75202562 -18.832626 25.75202562 -18.71835327 27.15390015 C-15.08835327 27.15390015 -11.45835327 27.15390015 -7.71835327 27.15390015 C-7.71835327 23.52390015 -7.71835327 19.89390015 -7.71835327 16.15390015 C-9.1202278 16.03962742 -9.1202278 16.03962742 -11.00350952 18.3062439 Z M106.28164673 105.15390015 C106.28164673 127.26390015 106.28164673 149.37390015 106.28164673 172.15390015 C112.17283306 169.69664219 112.17283306 169.69664219 117.28164673 166.15390015 C117.37555969 164.25146253 117.39908331 162.34551556 117.39517212 160.44076538 C117.39509659 159.21957504 117.39502106 157.9983847 117.39494324 156.7401886 C117.38983584 155.39762329 117.38461983 154.05505839 117.37930298 152.7124939 C117.37743872 151.34628857 117.37601486 149.98008258 117.37501526 148.61387634 C117.37119067 145.0118832 117.3613609 141.40993015 117.35031128 137.80795288 C117.34009589 134.1348627 117.33551737 130.46176606 117.33047485 126.78866577 C117.31973857 119.57705892 117.30266287 112.36548514 117.28164673 105.15390015 C113.65164673 105.15390015 110.02164673 105.15390015 106.28164673 105.15390015 Z M29.28164673 131.15390015 C29.28164673 140.72390015 29.28164673 150.29390015 29.28164673 160.15390015 C34.64212025 162.87840288 34.64212025 162.87840288 40.28164673 164.15390015 C40.28164673 153.26390015 40.28164673 142.37390015 40.28164673 131.15390015 C36.65164673 131.15390015 33.02164673 131.15390015 29.28164673 131.15390015 Z M67.28164673 140.15390015 C67.15767526 144.61954315 67.06713681 149.08426453 67.00698853 153.55111694 C66.98190564 155.06919816 66.94783013 156.58715932 66.90444946 158.10482788 C66.8435138 160.2920598 66.81537778 162.47769054 66.79336548 164.6656189 C66.7671814 165.98005981 66.74099731 167.29450073 66.71401978 168.64877319 C67.42046087 173.01108492 68.96737102 174.35029377 72.28164673 177.15390015 C74.22498745 180.15618701 74.51102934 182.3548912 74.40664673 185.90390015 C74.38859985 186.7031189 74.37055298 187.50233765 74.35195923 188.32577515 C74.3287561 188.9290564 74.30555298 189.53233765 74.28164673 190.15390015 C75.93164673 189.49390015 77.58164673 188.83390015 79.28164673 188.15390015 C79.28164673 172.31390015 79.28164673 156.47390015 79.28164673 140.15390015 C75.32164673 140.15390015 71.36164673 140.15390015 67.28164673 140.15390015 Z M-8.71835327 157.15390015 C-8.71835327 160.78390015 -8.71835327 164.41390015 -8.71835327 168.15390015 C-7.07132022 167.34383489 -5.42575821 166.53077805 -3.78085327 165.71640015 C-2.40606812 165.03770874 -2.40606812 165.03770874 -1.00350952 164.3453064 C1.18693577 163.3486462 1.18693577 163.3486462 2.28164673 162.15390015 C2.28164673 160.50390015 2.28164673 158.85390015 2.28164673 157.15390015 C-1.34835327 157.15390015 -4.97835327 157.15390015 -8.71835327 157.15390015 Z M-6.87802124 177.75448608 C-8.7390131 178.79040036 -10.60539664 179.81611184 -12.47225952 180.84140015 C-13.65879276 181.49965025 -14.84500317 182.15848267 -16.03085327 182.81796265 C-17.09948608 183.410448 -18.1681189 184.00293335 -19.26913452 184.6133728 C-21.81815395 185.92099674 -21.81815395 185.92099674 -22.71835327 188.15390015 C-22.02847114 189.95325406 -22.02847114 189.95325406 -20.87460327 191.8999939 C-20.45549683 192.6503894 -20.03639038 193.40078491 -19.60458374 194.17391968 C-18.91839966 195.37057251 -18.91839966 195.37057251 -18.21835327 196.59140015 C-17.76218628 197.3994812 -17.30601929 198.20756226 -16.83602905 199.04013062 C-13.32707143 205.20944221 -9.64999988 211.24341153 -5.71835327 217.15390015 C-4.91397827 216.63827515 -4.10960327 216.12265015 -3.28085327 215.59140015 C4.18768657 212.57777881 12.46349908 215.81765079 19.94180298 217.8765564 C21.97235814 218.42033975 24.00295847 218.96395448 26.03359985 219.50741577 C29.19638985 220.36221723 32.35825935 221.22024707 35.51919556 222.08187866 C38.59534065 222.91779025 41.67456824 223.74148522 44.75430298 224.5640564 C45.69097305 224.82340469 46.62764313 225.08275299 47.59269714 225.34996033 C55.50973232 227.4553164 61.92827976 228.41364737 69.46914673 224.46640015 C70.0567981 224.15879761 70.64444946 223.85119507 71.24990845 223.53427124 C78.46190244 219.66563454 85.36383802 215.25239867 92.28945923 210.8999939 C99.07536639 206.63958245 105.9269819 202.48983513 112.78164673 198.34140015 C116.16462441 196.2935138 119.54693183 194.24456302 122.92617798 192.19052124 C125.27424612 190.76534775 127.62558957 189.34680457 129.98086548 187.9336853 C131.17498696 187.21170099 132.3690009 186.48953879 133.56289673 185.7671814 C134.63604126 185.12176392 135.70918579 184.47634644 136.81484985 183.81137085 C139.36946895 182.38908097 139.36946895 182.38908097 140.28164673 180.15390015 C140.63075073 176.06204886 140.63075073 176.06204886 139.28164673 172.27890015 C136.00085008 170.43345203 132.88864292 170.60530317 129.28164673 171.15390015 C121.53465501 173.54736989 114.69152854 177.62813347 107.78164673 181.77890015 C105.67307224 183.02634799 103.56368862 184.27242913 101.45352173 185.5171814 C99.89794556 186.43684692 99.89794556 186.43684692 98.3109436 187.37509155 C93.91319349 189.95745836 89.4831165 192.47799513 85.03164673 194.96640015 C84.30010376 195.38035034 83.56856079 195.79430054 82.81484985 196.22079468 C69.51337253 203.62283223 55.07301537 199.46025428 41.20596313 195.5718689 C37.54144594 194.50225554 33.90429646 193.3571831 30.28164673 192.15390015 C29.28164673 187.40390015 29.28164673 187.40390015 29.28164673 185.15390015 C37.07117013 185.53699146 44.14340679 187.32160442 51.59146118 189.51400757 C57.40664979 191.2109476 57.40664979 191.2109476 63.28164673 190.15390015 C65.34109689 188.51939891 65.34109689 188.51939891 66.28164673 186.15390015 C65.37186388 182.33281218 64.60873006 181.3719557 61.28164673 179.15390015 C58.4945549 178.37058065 55.71805356 177.64997234 52.90664673 176.96640015 C44.57161159 174.87940445 36.48044777 172.31326531 28.40127563 169.38949585 C14.30826415 164.44830674 5.39094722 170.91388601 -6.87802124 177.75448608 Z M-44.84335327 183.15390015 C-46.20847046 183.98921265 -46.20847046 183.98921265 -47.60116577 184.84140015 C-48.29983765 185.27452515 -48.99850952 185.70765015 -49.71835327 186.15390015 C-48.42727136 189.54392736 -46.96053786 192.67550846 -45.17147827 195.8296814 C-44.66270142 196.72912476 -44.15392456 197.62856812 -43.62973022 198.55526733 C-43.08147583 199.51594116 -42.53322144 200.47661499 -41.96835327 201.46640015 C-41.40140747 202.46445679 -40.83446167 203.46251343 -40.25033569 204.49081421 C-29.90812566 223.0808773 -29.90812566 223.0808773 -18.71835327 241.15390015 C-14.41070512 239.58748264 -10.65663863 237.47053859 -6.71835327 235.15390015 C-10.63181806 227.0955148 -14.84027115 219.29726194 -19.40585327 211.59140015 C-20.63427104 209.50709066 -21.86212765 207.42245035 -23.08944702 205.3374939 C-23.99992798 203.79231079 -23.99992798 203.79231079 -24.92880249 202.21591187 C-26.64349687 199.28198323 -28.32957397 196.33389358 -30.00350952 193.3765564 C-30.5060022 192.49234009 -31.00849487 191.60812378 -31.5262146 190.69711304 C-32.47064848 189.03160301 -33.40951202 187.36291905 -34.34213257 185.69076538 C-35.41193855 183.81236833 -36.5572438 181.97727205 -37.71835327 180.15390015 C-40.66221951 180.15390015 -42.35721826 181.62397091 -44.84335327 183.15390015 Z M127.16445923 199.7671814 C126.55149994 200.13739914 125.93854065 200.50761688 125.30700684 200.88905334 C124.00666358 201.67562346 122.70705281 202.46340556 121.40811157 203.25228882 C119.42479194 204.45539305 117.43736836 205.65149807 115.44961548 206.84725952 C114.18763784 207.61180632 112.9259109 208.37676711 111.66445923 209.1421814 C111.07061432 209.49855179 110.47676941 209.85492218 109.8649292 210.22209167 C106.92858533 212.01473117 104.7418259 213.69372098 102.28164673 216.15390015 C112.84164673 216.15390015 123.40164673 216.15390015 134.28164673 216.15390015 C134.28164673 209.55390015 134.28164673 202.95390015 134.28164673 196.15390015 C131.88375675 196.15390015 129.21724457 198.5227825 127.16445923 199.7671814 Z " fill="#002C42" transform="translate(58.718353271484375,-0.153900146484375)"/>
<path d="M0 0 C2 2 2 2 2.046875 5.58984375 C1.95900027 7.03977677 1.8595578 8.48904399 1.75 9.9375 C1.71003906 10.66646484 1.67007813 11.39542969 1.62890625 12.14648438 C1.37696562 15.86090644 1.10258851 17.84611723 -1 21 C-5.05445642 21.43132515 -6.54970958 21.30019361 -10 19 C-10.81154541 19.84820312 -11.62309082 20.69640625 -12.45922852 21.5703125 C-15.48092892 24.71891521 -18.52590558 27.84412682 -21.57836914 30.96289062 C-22.89503676 32.31471474 -24.2053479 33.67276093 -25.5090332 35.03710938 C-27.38668577 36.9998822 -29.28623439 38.93897382 -31.19140625 40.875 C-31.76774307 41.48746582 -32.3440799 42.09993164 -32.93788147 42.73095703 C-35.85260395 45.64843115 -37.29157801 46.89348499 -41.4699707 47.52172852 C-45.28058737 46.95852997 -48.64770414 46.03619973 -52.2890625 44.77734375 C-53.6562461 44.31704572 -55.02343372 43.85675962 -56.390625 43.39648438 C-58.51576493 42.66652146 -60.63945582 41.93249263 -62.76269531 41.19702148 C-64.83076149 40.48472462 -66.90331337 39.78688197 -68.9765625 39.08984375 C-70.20455566 38.66566162 -71.43254883 38.24147949 -72.69775391 37.80444336 C-76.05633963 36.98627539 -77.76419611 36.8950059 -81 38 C-83.31727072 39.66645036 -85.45650914 41.34636701 -87.625 43.1875 C-88.94693564 44.27231938 -90.27127544 45.35421389 -91.59765625 46.43359375 C-92.30293457 47.00835449 -93.00821289 47.58311523 -93.73486328 48.17529297 C-97.78876657 51.44096156 -101.90932965 54.61195056 -106.0625 57.75 C-106.85930176 58.37028076 -107.65610352 58.99056152 -108.47705078 59.62963867 C-114.16416909 63.89166884 -114.16416909 63.89166884 -118.49609375 64.453125 C-121 64 -121 64 -122 63 C-122.375 60.2265625 -122.375 60.2265625 -122 57 C-119.9375 54.6484375 -119.9375 54.6484375 -117 52.375 C-116.20335937 51.74766968 -116.20335937 51.74766968 -115.390625 51.10766602 C-113.60956852 49.71647095 -111.80730628 48.35688581 -110 47 C-108.6874244 46.00140145 -107.37492618 45.00270117 -106.0625 44.00390625 C-103.35830975 41.95428748 -100.63625273 39.93163039 -97.90234375 37.921875 C-95.41302508 36.08334666 -92.99760932 34.19439347 -90.62890625 32.203125 C-89.61699219 31.37296875 -88.60507813 30.5428125 -87.5625 29.6875 C-86.69753906 28.94886719 -85.83257812 28.21023437 -84.94140625 27.44921875 C-77.79225045 23.92685912 -69.50173769 27.97453973 -62.45117188 30.3359375 C-60.55717785 30.98463291 -58.66319577 31.6333686 -56.77026367 32.28515625 C-54.91617112 32.92005761 -53.05774018 33.54224499 -51.19921875 34.1640625 C-49.55699341 34.72794678 -49.55699341 34.72794678 -47.8815918 35.30322266 C-44.31289191 36.18239357 -44.31289191 36.18239357 -41 35 C-39.01135897 33.26624268 -37.19021062 31.53938987 -35.359375 29.65234375 C-34.83232971 29.12105362 -34.30528442 28.58976349 -33.76226807 28.04237366 C-32.08432813 26.34767175 -30.41713272 24.64282783 -28.75 22.9375 C-27.61267255 21.78512255 -26.47465934 20.63342148 -25.3359375 19.48242188 C-22.54928008 16.66272816 -19.77221208 13.83389412 -17 11 C-17.50015625 10.56945312 -18.0003125 10.13890625 -18.515625 9.6953125 C-19.00546875 9.13585937 -19.4953125 8.57640625 -20 8 C-19.56521739 2.56521739 -19.56521739 2.56521739 -18 1 C-12.24963203 -0.03968707 -5.81508697 -0.72534911 0 0 Z " fill="#002C42" transform="translate(173,71)"/>
<path d="M0 0 C1.1713147 -0.00953201 2.34262939 -0.01906403 3.54943848 -0.02888489 C5.44792542 -0.02751778 5.44792542 -0.02751778 7.38476562 -0.02612305 C8.68297241 -0.03040817 9.9811792 -0.0346933 11.31872559 -0.03910828 C14.06587813 -0.04656735 16.81290215 -0.04628123 19.56005859 -0.04101562 C23.08095102 -0.03521648 26.60131817 -0.05216344 30.12212372 -0.0753603 C33.48052672 -0.09362937 36.83881315 -0.08991268 40.19726562 -0.08862305 C41.46292358 -0.09783279 42.72858154 -0.10704254 44.03259277 -0.11653137 C45.78956482 -0.10718819 45.78956482 -0.10718819 47.58203125 -0.09765625 C48.61444946 -0.09828568 49.64686768 -0.0989151 50.71057129 -0.0995636 C53.29101562 0.2746582 53.29101562 0.2746582 55.1595459 1.60261536 C56.29101562 3.2746582 56.29101562 3.2746582 56.10351562 6.3996582 C55.83539063 7.3484082 55.56726563 8.2971582 55.29101562 9.2746582 C52.64834925 10.59599139 50.65492602 10.40901902 47.69555664 10.41992188 C46.52416641 10.42630173 45.35277618 10.43268158 44.14588928 10.43925476 C42.87507004 10.44036758 41.60425079 10.44148041 40.29492188 10.44262695 C38.99530014 10.44595535 37.69567841 10.44928375 36.35667419 10.45271301 C33.60357839 10.45870453 30.85051398 10.46055289 28.09741211 10.45996094 C24.56876503 10.4598593 21.0403191 10.47351285 17.5117197 10.49073315 C14.14778387 10.50452221 10.78388564 10.50394176 7.41992188 10.50512695 C6.15112686 10.51231247 4.88233185 10.51949799 3.5750885 10.52690125 C2.40054611 10.52382462 1.22600372 10.52074799 0.01586914 10.51757812 C-1.53728249 10.51971565 -1.53728249 10.51971565 -3.12181091 10.52189636 C-5.70898438 10.2746582 -5.70898438 10.2746582 -8.70898438 8.2746582 C-9.08398438 5.2746582 -9.08398438 5.2746582 -8.70898438 2.2746582 C-5.28504919 -0.00796525 -4.02678567 0.01797041 0 0 Z " fill="#002C42" transform="translate(99.708984375,60.725341796875)"/>
<path d="M0 0 C1.1713147 -0.00953201 2.34262939 -0.01906403 3.54943848 -0.02888489 C5.44792542 -0.02751778 5.44792542 -0.02751778 7.38476562 -0.02612305 C8.68297241 -0.03040817 9.9811792 -0.0346933 11.31872559 -0.03910828 C14.06587813 -0.04656735 16.81290215 -0.04628123 19.56005859 -0.04101562 C23.08095102 -0.03521648 26.60131817 -0.05216344 30.12212372 -0.0753603 C33.48052672 -0.09362937 36.83881315 -0.08991268 40.19726562 -0.08862305 C41.46292358 -0.09783279 42.72858154 -0.10704254 44.03259277 -0.11653137 C45.78956482 -0.10718819 45.78956482 -0.10718819 47.58203125 -0.09765625 C48.61444946 -0.09828568 49.64686768 -0.0989151 50.71057129 -0.0995636 C53.29101562 0.2746582 53.29101562 0.2746582 55.1595459 1.60261536 C56.29101562 3.2746582 56.29101562 3.2746582 56.10351562 6.3996582 C55.83539063 7.3484082 55.56726563 8.2971582 55.29101562 9.2746582 C52.64834925 10.59599139 50.65492602 10.40901902 47.69555664 10.41992188 C46.52416641 10.42630173 45.35277618 10.43268158 44.14588928 10.43925476 C42.87507004 10.44036758 41.60425079 10.44148041 40.29492188 10.44262695 C38.99530014 10.44595535 37.69567841 10.44928375 36.35667419 10.45271301 C33.60357839 10.45870453 30.85051398 10.46055289 28.09741211 10.45996094 C24.56876503 10.4598593 21.0403191 10.47351285 17.5117197 10.49073315 C14.14778387 10.50452221 10.78388564 10.50394176 7.41992188 10.50512695 C6.15112686 10.51231247 4.88233185 10.51949799 3.5750885 10.52690125 C2.40054611 10.52382462 1.22600372 10.52074799 0.01586914 10.51757812 C-1.53728249 10.51971565 -1.53728249 10.51971565 -3.12181091 10.52189636 C-5.70898438 10.2746582 -5.70898438 10.2746582 -8.70898438 8.2746582 C-9.08398438 5.2746582 -9.08398438 5.2746582 -8.70898438 2.2746582 C-5.28504919 -0.00796525 -4.02678567 0.01797041 0 0 Z " fill="#002C42" transform="translate(99.708984375,23.725341796875)"/>
<path d="M0 0 C1.21465942 -0.00637985 2.42931885 -0.0127597 3.68078613 -0.01933289 C4.99848999 -0.02044571 6.31619385 -0.02155853 7.67382812 -0.02270508 C9.03381384 -0.02591708 10.3937992 -0.02928111 11.75378418 -0.03279114 C14.60523276 -0.03878233 17.45665103 -0.040631 20.30810547 -0.04003906 C23.96688434 -0.03993733 27.62546964 -0.05360134 31.28420258 -0.07081127 C34.09284361 -0.0819129 36.90143753 -0.08395886 39.71009827 -0.08342934 C41.7165368 -0.08518773 43.72296064 -0.0960383 45.72937012 -0.10697937 C47.55135925 -0.10236443 47.55135925 -0.10236443 49.41015625 -0.09765625 C50.48334106 -0.09908127 51.55652588 -0.10050629 52.66223145 -0.10197449 C55.20507812 0.14526367 55.20507812 0.14526367 57.20507812 2.14526367 C57.45507812 4.64526367 57.45507812 4.64526367 57.20507812 7.14526367 C55.20507812 9.14526367 55.20507812 9.14526367 52.66223145 9.39250183 C51.58904663 9.39107681 50.51586182 9.38965179 49.41015625 9.38818359 C48.19549683 9.39126022 46.9808374 9.39433685 45.72937012 9.39750671 C44.41166626 9.3903212 43.0939624 9.38313568 41.73632812 9.37573242 C40.37634322 9.37454056 39.01635748 9.37408747 37.65637207 9.37434387 C34.80487929 9.37277872 31.953512 9.36448691 29.10205078 9.35107422 C25.44331736 9.3340843 21.78472192 9.33025987 18.12595367 9.3310194 C15.31730833 9.33074772 12.50869327 9.32526685 9.70005798 9.31801796 C7.69363779 9.31327921 5.68721121 9.31155469 3.68078613 9.30986023 C2.46612671 9.30348038 1.25146729 9.29710052 0 9.29052734 C-1.60977722 9.28480965 -1.60977722 9.28480965 -3.2520752 9.27897644 C-5.79492188 9.14526367 -5.79492188 9.14526367 -7.79492188 8.14526367 C-7.79492188 5.83526367 -7.79492188 3.52526367 -7.79492188 1.14526367 C-5.1043007 -0.20004692 -3.01260857 0.01070035 0 0 Z " fill="#002C42" transform="translate(98.794921875,42.854736328125)"/>
<path d="M0 0 C2.5 1.5 2.5 1.5 4 3 C3.25 7.75 3.25 7.75 1 10 C-2.03616249 10.50407331 -4.95998078 10.46437239 -8 10 C-10.5625 8 -10.5625 8 -12 6 C-9.6863293 -0.44522551 -6.65008896 -0.7885481 0 0 Z " fill="#002C42" transform="translate(80,61)"/>
<path d="M0 0 C2.5 1.5 2.5 1.5 4 3 C3.25 7.75 3.25 7.75 1 10 C-2.03616249 10.50407331 -4.95998078 10.46437239 -8 10 C-10.5625 8 -10.5625 8 -12 6 C-9.6863293 -0.44522551 -6.65008896 -0.7885481 0 0 Z " fill="#002C42" transform="translate(80,24)"/>
<path d="M0 0 C1.08152344 -0.02578125 2.16304687 -0.0515625 3.27734375 -0.078125 C4.19644531 0.03015625 5.11554688 0.1384375 6.0625 0.25 C8.0625 3.25 8.0625 3.25 7.75 5.875 C7.0625 8.25 7.0625 8.25 6.0625 9.25 C4.08736333 9.40126231 2.10571865 9.47173766 0.125 9.5 C-0.95652344 9.52578125 -2.03804688 9.5515625 -3.15234375 9.578125 C-4.07144531 9.46984375 -4.99054688 9.3615625 -5.9375 9.25 C-7.9375 6.25 -7.9375 6.25 -7.625 3.625 C-6.352392 -0.77128219 -4.28607894 0.06115689 0 0 Z " fill="#002C42" transform="translate(75.9375,42.75)"/>
<path d="M0 0 C2.875 -0.125 2.875 -0.125 6 0 C6.66 0.66 7.32 1.32 8 2 C7.44444444 6.55555556 7.44444444 6.55555556 6 8 C3.5625 8.1875 3.5625 8.1875 1 8 C0.34 7.34 -0.32 6.68 -1 6 C-0.625 2.875 -0.625 2.875 0 0 Z " fill="#002C42" transform="translate(15,186)"/>
</svg>
