<?xml version="1.0" encoding="UTF-8"?>
<svg version="1.1" xmlns="http://www.w3.org/2000/svg" width="258" height="250">
<path d="M0 0 C1.010625 -0.020625 2.02125 -0.04125 3.0625 -0.0625 C4.031875 -0.06765625 5.00125 -0.0728125 6 -0.078125 C6.886875 -0.0874707 7.77375 -0.09681641 8.6875 -0.10644531 C11 0.25 11 0.25 12.828125 1.60644531 C14 3.25 14 3.25 13.75 5.875 C13 8.25 13 8.25 12 9.25 C4.74 9.58 -2.52 9.91 -10 10.25 C-10 62.39 -10 114.53 -10 168.25 C4.70304687 168.29898438 19.40609375 168.34796875 34.5546875 168.3984375 C43.84245397 168.43380263 53.13021397 168.46966842 62.41796875 168.5078125 C77.17560386 168.56832703 91.93322675 168.62673613 106.69091797 168.671875 C117.43701527 168.70475313 128.18306037 168.74456098 138.92910016 168.79279006 C144.62225514 168.81809673 150.31537532 168.83986558 156.00857162 168.85334396 C161.36173931 168.86612663 166.71478786 168.88813959 172.06789017 168.91738319 C174.03758206 168.92648879 176.00729314 168.9321561 177.977005 168.93421364 C180.65642775 168.93751523 183.33550837 168.95293491 186.01486206 168.9715271 C186.80278983 168.96959237 187.5907176 168.96765763 188.40252197 168.96566427 C193.77175758 169.02175758 193.77175758 169.02175758 196 171.25 C196.25 173.75 196.25 173.75 196 176.25 C194 178.25 194 178.25 191.56982422 178.47705078 C190.07733154 178.46134033 190.07733154 178.46134033 188.5546875 178.4453125 C187.47832031 178.43886719 186.40195313 178.43242187 185.29296875 178.42578125 C184.16503906 178.40902344 183.03710938 178.39226562 181.875 178.375 C180.73933594 178.36597656 179.60367188 178.35695312 178.43359375 178.34765625 C175.62218701 178.32403098 172.81119702 178.29109013 170 178.25 C170.01595215 178.93634521 170.0319043 179.62269043 170.04833984 180.32983398 C170.06074707 181.23032471 170.0731543 182.13081543 170.0859375 183.05859375 C170.10188965 183.95118896 170.1178418 184.84378418 170.13427734 185.76342773 C169.96184992 188.95647006 169.04450068 190.81232611 167 193.25 C163.56395235 194.96802382 159.61561104 194.3696618 155.8359375 194.34765625 C154.92872955 194.3462413 154.02152161 194.34482635 153.08682251 194.34336853 C150.18284845 194.33776096 147.27895085 194.32520718 144.375 194.3125 C142.40885528 194.30748598 140.44270935 194.3029229 138.4765625 194.29882812 C133.6510121 194.28778906 128.82551903 194.27051935 124 194.25 C124.33209473 194.88389648 124.66418945 195.51779297 125.00634766 196.17089844 C128.19250348 202.25587034 131.36651362 208.34702493 134.53369141 214.44189453 C135.73259544 216.73789757 136.94450822 219.02564162 138.16796875 221.30859375 C138.98201172 222.85740234 138.98201172 222.85740234 139.8125 224.4375 C140.27269531 225.29730469 140.73289063 226.15710938 141.20703125 227.04296875 C142.12473854 229.59717868 141.99026342 230.75497876 141 233.25 C140 234.25 140 234.25 136.9375 234.3125 C135.968125 234.291875 134.99875 234.27125 134 234.25 C133.60731934 233.48969482 133.21463867 232.72938965 132.81005859 231.94604492 C131.32374209 229.06971893 129.83630016 226.19397835 128.34814453 223.31860352 C127.70968666 222.08445451 127.0716514 220.85008676 126.43408203 219.61547852 C122.74298942 212.46870945 119.0040534 205.36054164 115.05322266 198.3527832 C114 196.25 114 196.25 114 194.25 C100.47 194.25 86.94 194.25 73 194.25 C72.01 197.22 72.01 197.22 71 200.25 C70.00125655 202.35166994 68.95925835 204.43314214 67.8828125 206.49609375 C67.27566406 207.66333984 66.66851562 208.83058594 66.04296875 210.03320312 C65.72763184 210.63398682 65.41229492 211.23477051 65.08740234 211.85375977 C64.13057387 213.67687966 63.17996125 215.50312868 62.23046875 217.33007812 C59.25505755 223.03242538 56.25275617 228.70069991 53 234.25 C51.02 234.25 49.04 234.25 47 234.25 C45.84545898 232.11621094 45.84545898 232.11621094 45 229.25 C45.88696289 226.43847656 45.88696289 226.43847656 47.47265625 223.390625 C48.04306641 222.27429688 48.61347656 221.15796875 49.20117188 220.0078125 C49.81541016 218.85023438 50.42964844 217.69265625 51.0625 216.5 C51.64966797 215.35789063 52.23683594 214.21578125 52.84179688 213.0390625 C56.11151167 206.71058225 59.50310565 200.45542912 63 194.25 C61.77893555 194.27094727 60.55787109 194.29189453 59.29980469 194.31347656 C54.76753476 194.38590159 50.23531593 194.43180888 45.70263672 194.46972656 C43.74128619 194.48983632 41.77999556 194.51712818 39.81884766 194.55175781 C36.99887305 194.60030421 34.17969135 194.62297486 31.359375 194.640625 C30.04510529 194.67159271 30.04510529 194.67159271 28.70428467 194.70318604 C22.60482285 194.70543184 22.60482285 194.70543184 19.47753906 192.35058594 C17.13270326 189.01698263 16.88563958 187.17011301 16.9375 183.125 C16.94652344 182.21492187 16.95554688 181.30484375 16.96484375 180.3671875 C16.97644531 179.66851562 16.98804688 178.96984375 17 178.25 C16.20827393 178.26047363 15.41654785 178.27094727 14.60083008 178.28173828 C11.00475249 178.32337846 7.40872572 178.34935193 3.8125 178.375 C2.56662109 178.39175781 1.32074219 178.40851563 0.03710938 178.42578125 C-1.16494141 178.43222656 -2.36699219 178.43867188 -3.60546875 178.4453125 C-5.26292114 178.46102295 -5.26292114 178.46102295 -6.95385742 178.47705078 C-11.4269672 178.14363793 -13.94584155 177.32387815 -17.11472988 174.09571075 C-19.43494304 170.59347759 -19.50493741 168.5960926 -19.5146637 164.41833496 C-19.52160922 163.74380453 -19.52855475 163.06927409 -19.53571075 162.37430334 C-19.55396287 160.12094101 -19.54372244 157.86863365 -19.53344727 155.61523438 C-19.54050665 153.99700636 -19.54925175 152.37878495 -19.55955505 150.76057434 C-19.58205544 146.37007064 -19.57910808 141.9799273 -19.57023358 137.58938789 C-19.56512376 133.92372423 -19.57241611 130.25812829 -19.57970566 126.5924716 C-19.59670633 117.94553934 -19.59313668 109.29878356 -19.57641602 100.65185547 C-19.55948811 91.73064508 -19.57533792 82.80992375 -19.6076389 73.88876677 C-19.6343246 66.22831714 -19.64161376 58.56801985 -19.63312382 50.9075284 C-19.62819237 46.33262559 -19.63042205 41.75801716 -19.65091133 37.18315125 C-19.66925296 32.8819566 -19.66332886 28.58146635 -19.63871193 24.28030968 C-19.63369944 22.70210307 -19.63720527 21.12384292 -19.64986038 19.54567909 C-19.66577735 17.3901966 -19.65085826 15.23703772 -19.62818909 13.08166504 C-19.62730962 11.27316952 -19.62730962 11.27316952 -19.62641239 9.42813873 C-18.81692459 5.32115653 -17.21618722 3.84351111 -14 1.25 C-9.4025367 -0.28248777 -4.81559361 0.02456936 0 0 Z M26 178.25 C26 180.89 26 183.53 26 186.25 C70.55 186.25 115.1 186.25 161 186.25 C161 183.61 161 180.97 161 178.25 C116.45 178.25 71.9 178.25 26 178.25 Z " fill="#002C42" transform="translate(19,15.75)"/>
<path d="M0 0 C10.85479013 7.94470659 17.34843656 18.60896378 20.375 31.73828125 C21.95292464 46.45495213 19.58168602 59.24428944 10.66796875 71.30078125 C9.02343159 74.40105675 9.42539467 75.40951156 10.375 78.73828125 C11.67020032 81.39684191 11.67020032 81.39684191 13.32421875 84.08984375 C13.92556641 85.10691406 14.52691406 86.12398438 15.14648438 87.171875 C15.77876953 88.22503906 16.41105469 89.27820313 17.0625 90.36328125 C19.51291014 94.48079482 21.95332839 98.60379251 24.375 102.73828125 C25.25285156 104.23379517 25.25285156 104.23379517 26.1484375 105.75952148 C26.96248047 107.18953491 26.96248047 107.18953491 27.79296875 108.6484375 C28.27660889 109.49027588 28.76024902 110.33211426 29.25854492 111.19946289 C31.22186249 115.66404619 31.25307529 119.9921329 30.375 124.73828125 C28.60152978 128.55806327 27.11550477 130.22165002 23.6875 132.61328125 C19.43662336 134.0569752 15.81691498 134.45600539 11.375 133.73828125 C4.62305579 130.29861156 1.23244915 124.74506845 -2.41015625 118.30078125 C-2.75251816 117.6982251 -3.09488007 117.09566895 -3.44761658 116.47485352 C-4.53170034 114.56496387 -5.60977647 112.65176573 -6.6875 110.73828125 C-7.77010271 108.82556244 -8.85392949 106.91354228 -9.93809509 105.00170898 C-10.92046024 103.26790355 -11.89988829 101.53243494 -12.87915039 99.796875 C-14.00143566 97.83071784 -15.15716934 95.88308158 -16.35327148 93.9609375 C-17.625 91.73828125 -17.625 91.73828125 -17.625 89.73828125 C-18.32496094 89.898125 -19.02492187 90.05796875 -19.74609375 90.22265625 C-32.82150539 92.56452102 -46.4526646 89.91284807 -57.625 82.73828125 C-69.20993823 73.90347672 -77.11911288 62.28019726 -79.37109375 47.75390625 C-80.56382244 33.58795929 -77.21732979 21.01430459 -68.625 9.73828125 C-67.8825 8.70703125 -67.14 7.67578125 -66.375 6.61328125 C-48.75664964 -11.80590322 -21.01414149 -13.57163305 0 0 Z M-63.08984375 16.421875 C-69.8625203 26.64120628 -72.35774305 38.13397433 -69.94140625 50.1328125 C-67.98950357 57.09000921 -65.5029438 62.41368236 -60.625 67.73828125 C-60.10035156 68.35316406 -59.57570312 68.96804687 -59.03515625 69.6015625 C-52.64752156 76.6204458 -43.38800574 81.21492487 -33.92578125 82.07421875 C-20.52882991 82.20543277 -9.73902418 79.32882 0.3125 69.92578125 C7.95053009 61.76099047 12.18306226 52.0480564 12.44140625 40.86328125 C11.94792399 29.37860317 7.47452605 18.93558829 -0.625 10.73828125 C-9.44013949 3.40053944 -20.28282696 -0.70579871 -31.75 -0.53515625 C-44.33627981 0.66190841 -55.07532105 6.74002843 -63.08984375 16.421875 Z M-4.6875 83.73828125 C-5.60660156 84.29515625 -6.52570313 84.85203125 -7.47265625 85.42578125 C-8.18292969 85.85890625 -8.89320313 86.29203125 -9.625 86.73828125 C-5.87365874 94.85762262 -1.48380979 102.54375112 3.0625 110.23828125 C3.91847778 111.68968506 3.91847778 111.68968506 4.79174805 113.17041016 C8.50266126 120.39766409 8.50266126 120.39766409 14.25 125.67578125 C17.46985319 125.77048281 18.93094448 124.78600344 21.375 122.73828125 C22.38084829 119.30163294 22.63768788 117.40552299 21.31445312 114.04443359 C20.76724609 113.1467627 20.22003906 112.2490918 19.65625 111.32421875 C19.05296875 110.31488281 18.4496875 109.30554688 17.828125 108.265625 C16.86132812 106.70521484 16.86132812 106.70521484 15.875 105.11328125 C14.63541667 103.05859375 13.39583333 101.00390625 12.15625 98.94921875 C11.53621094 97.93698242 10.91617188 96.92474609 10.27734375 95.88183594 C7.6901708 91.6066256 5.21216953 87.27086805 2.74023438 82.92822266 C2.28970703 82.20554199 1.83917969 81.48286133 1.375 80.73828125 C-0.75228865 80.73828125 -2.94587786 82.68008046 -4.6875 83.73828125 Z " fill="#002C42" transform="translate(227.625,77.26171875)"/>
<path d="M0 0 C3.70910097 1.78586343 5.54021301 3.36223095 7.9375 6.6875 C9.34391381 11.07220188 9.34301793 14.58838957 8 19 C5.48106916 22.19972296 2.92379266 24.76680802 -1 26 C-3.69085704 26.15035617 -6.30014607 26.08999513 -9 26 C-9.27473145 26.57959473 -9.54946289 27.15918945 -9.83251953 27.75634766 C-10.97543686 29.9527948 -12.24098313 31.88564191 -13.6796875 33.8984375 C-14.19660156 34.62546875 -14.71351563 35.3525 -15.24609375 36.1015625 C-15.78363281 36.85179687 -16.32117188 37.60203125 -16.875 38.375 C-18.92317834 41.24543971 -20.96646796 44.11916295 -23 47 C-23.42345703 47.59731934 -23.84691406 48.19463867 -24.28320312 48.81005859 C-26.43231871 51.57014309 -26.43231871 51.57014309 -26.75 54.875 C-26.5025 55.57625 -26.255 56.2775 -26 57 C-25.61662432 61.75385849 -25.51087116 64.03985821 -27.6875 68.3125 C-30.47582229 71.55298267 -32.5775136 73.6454898 -36.921875 74.28125 C-41.4398266 74.48506737 -44.38476239 73.91227474 -48 71 C-50.94627128 68.05372872 -51.97136732 66.78739882 -52.125 62.5625 C-53.18044733 58.26532159 -54.11765514 57.80905698 -57.75 55.5 C-61.38502909 53.34886915 -61.38502909 53.34886915 -65.48046875 53.33203125 C-66.31191406 53.55246094 -67.14335938 53.77289063 -68 54 C-69.8517785 54.11294536 -71.70732512 54.17459892 -73.5625 54.1875 C-74.49191406 54.20167969 -75.42132813 54.21585938 -76.37890625 54.23046875 C-79 54 -79 54 -81.01953125 52.80859375 C-81.67308594 52.54175781 -82.32664063 52.27492187 -83 52 C-85.60794673 53.07589041 -85.60794673 53.07589041 -88.125 54.875 C-92.84753363 58 -92.84753363 58 -95 58 C-95.02578125 58.59167969 -95.0515625 59.18335938 -95.078125 59.79296875 C-95.45445474 65.0359263 -96.01159084 68.23949994 -100 72 C-104.26466898 74.53019145 -108.15286133 74.66479853 -113 74 C-117.11293161 72.09586499 -118.64916002 70.5998232 -120.9375 66.6875 C-122.41334561 61.56544759 -121.90871297 58.10438794 -119.8125 53.25 C-117.46388906 50.33448297 -115.51301388 49.28360123 -112 48 C-108.11934706 47.65351313 -105.7549216 47.6225392 -102.25 49.375 C-97.40946032 50.30587302 -94.50346463 48.42403717 -90.3515625 45.984375 C-87.1306275 43.26637669 -86.81514366 41.17512057 -86.37109375 37.1171875 C-85.75793412 33.61895048 -83.72518992 32.09142482 -81 30 C-77.33488019 27.82073957 -74.21186088 27.72462698 -70 28.38671875 C-66.48378784 29.46493225 -64.5582779 31.37932508 -62 34 C-60.8422494 37.47325181 -60.93133348 40.36067448 -61 44 C-60.319375 44.2475 -59.63875 44.495 -58.9375 44.75 C-56.52890143 45.77493556 -54.72099484 46.83019006 -52.5625 48.25 C-49.19281183 50.37244242 -49.19281183 50.37244242 -46.0625 49.3125 C-45.051875 48.879375 -44.04125 48.44625 -43 48 C-41.75347656 47.98324219 -40.50695312 47.96648437 -39.22265625 47.94921875 C-36.48065869 47.63395648 -35.28606113 47.26175915 -33.22973633 45.38012695 C-31.48548153 43.15298326 -29.91612146 40.87211832 -28.375 38.5 C-27.84132813 37.72140625 -27.30765625 36.9428125 -26.7578125 36.140625 C-25.68626567 34.56971654 -24.62949334 32.98862613 -23.58789062 31.39770508 C-22.50294285 29.75944061 -21.38520557 28.142546 -20.24023438 26.5456543 C-19.68400391 25.76101807 -19.12777344 24.97638184 -18.5546875 24.16796875 C-18.04663574 23.46696045 -17.53858398 22.76595215 -17.01513672 22.04370117 C-15.77716531 19.55138308 -15.97266899 18.43955752 -16.75 15.8125 C-16.98332031 15.1628125 -17.21664062 14.513125 -17.45703125 13.84375 C-18.37353912 10.7315794 -17.43375369 8.80517027 -16 6 C-10.92556708 0.29126296 -7.47580992 -0.89357324 0 0 Z M-5 8 C-6.32 8.99 -7.64 9.98 -9 11 C-8.62095792 14.29075996 -8.62095792 14.29075996 -7 17 C-4.54190002 17.2500773 -4.54190002 17.2500773 -2 17 C-1.34 16.34 -0.68 15.68 0 15 C-0.00922702 12.45286596 -0.00922702 12.45286596 -1 10 C-2.96758273 8.63979849 -2.96758273 8.63979849 -5 8 Z M-76 37 C-78.23845015 38.82915641 -78.23845015 38.82915641 -78.3125 41.5 C-78.209375 42.325 -78.10625 43.15 -78 44 C-75.30844799 46.264384 -75.30844799 46.264384 -72.9375 45.75 C-70.80523025 45.07467282 -70.80523025 45.07467282 -69 43 C-69.36681658 40.06546739 -69.86437246 39.13562754 -72 37 C-73.32 37 -74.64 37 -76 37 Z M-113 59 C-112.99077298 61.54713404 -112.99077298 61.54713404 -112 64 C-110.03241727 65.36020151 -110.03241727 65.36020151 -108 66 C-106.68 65.01 -105.36 64.02 -104 63 C-104.37904208 59.70924004 -104.37904208 59.70924004 -106 57 C-109.961168 56.60909667 -109.961168 56.60909667 -113 59 Z M-42 57 C-43.19838209 59.32854463 -43.19838209 59.32854463 -44 62 C-43.01 63.485 -43.01 63.485 -42 65 C-39.5 65.41666667 -39.5 65.41666667 -37 65 C-36.34 64.34 -35.68 63.68 -35 63 C-35.28983269 59.69316534 -35.28983269 59.69316534 -37 57 C-38.66617115 56.95936168 -40.33388095 56.957279 -42 57 Z " fill="#002C42" transform="translate(169,38)"/>
<path d="M0 0 C1.07030457 -0.00861053 1.07030457 -0.00861053 2.16223145 -0.01739502 C3.66499014 -0.02146275 5.16785634 -0.01049621 6.67041016 0.01464844 C8.96368322 0.04680396 11.2499134 0.01493588 13.54296875 -0.0234375 C15.00782797 -0.01947236 16.47268282 -0.01178436 17.9375 0 C18.61784302 -0.01214539 19.29818604 -0.02429077 19.99914551 -0.0368042 C23.82026196 0.07538479 25.45924017 0.7891127 28.43945312 3.22167969 C31.46263129 7.32639491 30.90135539 11.93246776 30.46875 16.796875 C31.49525665 16.79021317 32.52176331 16.78355133 33.57937622 16.77668762 C43.26069628 16.71583082 52.94197745 16.6708804 62.62344551 16.64143848 C67.60060737 16.62579317 72.57761462 16.60457551 77.5546875 16.57055664 C82.35926709 16.53792289 87.16369809 16.52001345 91.96837997 16.51224327 C93.79997979 16.50670699 95.63157162 16.49589593 97.46310806 16.47968483 C100.03173546 16.45785711 102.59975157 16.4549103 105.16845703 16.45629883 C106.30026649 16.44012009 106.30026649 16.44012009 107.4549408 16.4236145 C112.20144891 16.45131608 115.45123932 17.2571356 119.46875 19.796875 C122.94207756 24.68800874 122.89545107 29.29389705 122.83203125 35.0625 C122.83277901 36.37441315 122.83277901 36.37441315 122.83354187 37.71282959 C122.83121083 39.55174037 122.82153987 41.39065493 122.80493164 43.22949219 C122.78120928 46.05171973 122.78439396 48.87300971 122.79101562 51.6953125 C122.78544267 53.48438065 122.77833521 55.27344483 122.76953125 57.0625 C122.77044266 57.90830627 122.77135406 58.75411255 122.77229309 59.62554932 C122.69982203 65.56580297 122.69982203 65.56580297 120.46875 67.796875 C117.34375 67.921875 117.34375 67.921875 114.46875 67.796875 C112.80525681 64.46988863 113.22496943 60.73258115 113.15234375 57.0703125 C113.13156265 56.20749664 113.11078156 55.34468079 113.08937073 54.45571899 C113.02388966 51.69452007 112.96499702 48.93322462 112.90625 46.171875 C112.8630634 44.30207328 112.81944907 42.43228138 112.77539062 40.5625 C112.66820976 35.97405772 112.56693825 31.38551817 112.46875 26.796875 C111.57476596 26.79448665 110.68078192 26.79209829 109.75970745 26.78963757 C88.02767332 26.73055434 66.29575071 26.65504731 44.56383801 26.56116009 C34.05453174 26.5161552 23.54525973 26.47675143 13.03588867 26.45043945 C3.87811118 26.42749731 -5.27955837 26.39414188 -14.43725032 26.34817344 C-19.28817305 26.32419003 -24.13898854 26.30549487 -28.98996925 26.29926109 C-33.55279678 26.2932333 -38.11534972 26.27331756 -42.67807579 26.24259949 C-44.35546846 26.23378212 -46.03289697 26.23010429 -47.71031189 26.23186684 C-49.99545316 26.2335103 -52.27974803 26.21690117 -54.56477356 26.19560242 C-55.84514401 26.19099345 -57.12551447 26.18638449 -58.44468403 26.18163586 C-61.53125 25.796875 -61.53125 25.796875 -63.47837353 24.43601704 C-64.53125 22.796875 -64.53125 22.796875 -64.34375 20.171875 C-63.53125 17.796875 -63.53125 17.796875 -61.53125 16.796875 C-59.95833792 16.70683534 -58.38163425 16.67930991 -56.80615234 16.68334961 C-55.82528656 16.68342514 -54.84442078 16.68350067 -53.83383179 16.68357849 C-52.77233917 16.68873978 -51.71084656 16.69390106 -50.6171875 16.69921875 C-48.99002304 16.70134117 -48.99002304 16.70134117 -47.32998657 16.70350647 C-43.85538 16.70911698 -40.38083719 16.72167128 -36.90625 16.734375 C-34.55468843 16.73938865 -32.20312585 16.74395179 -29.8515625 16.74804688 C-24.07810314 16.75908982 -18.30468112 16.77583821 -12.53125 16.796875 C-12.58925781 16.14460938 -12.64726563 15.49234375 -12.70703125 14.8203125 C-13.12213174 6.77922294 -13.12213174 6.77922294 -10.50195312 3.22167969 C-6.94812623 0.32090645 -4.41564949 -0.07882754 0 0 Z M-3.53125 8.796875 C-3.53125 11.436875 -3.53125 14.076875 -3.53125 16.796875 C4.71875 16.796875 12.96875 16.796875 21.46875 16.796875 C21.46875 14.156875 21.46875 11.516875 21.46875 8.796875 C13.21875 8.796875 4.96875 8.796875 -3.53125 8.796875 Z " fill="#002C42" transform="translate(103.53125,-0.796875)"/>
<path d="M0 0 C2.3125 2.0625 2.3125 2.0625 2.8125 4.6875 C2.3125 7.0625 2.3125 7.0625 0.3125 9.0625 C-3.68799879 9.54176109 -5.76892393 8.65641228 -9.125 6.5625 C-16.26680068 2.83726864 -23.91201176 2.60546259 -31.59375 4.94921875 C-38.69780065 8.16957906 -42.9046918 12.68131204 -46.5 19.5 C-49.18456845 27.55370536 -49.3234032 34.45223131 -45.68359375 42.19921875 C-41.51248293 49.42639097 -36.09881025 54.30245125 -28.00390625 56.58984375 C-19.33205939 58.35930997 -12.07114218 56.53515469 -4.640625 51.7421875 C0.72058891 47.54944329 3.19577393 42.41267821 5.3125 36.0625 C5.72391662 29.96779332 5.50229559 24.81071342 3.3125 19.0625 C3 16.3125 3 16.3125 3.3125 14.0625 C6.3125 12.0625 6.3125 12.0625 8.8125 11.9375 C11.78884951 13.27685728 11.92990203 13.86996605 13.0625 16.8125 C13.50466041 18.22141793 13.92373227 19.63792455 14.3125 21.0625 C14.539375 21.8875 14.76625 22.7125 15 23.5625 C16.5529385 35.986008 13.08153613 45.11333307 6.125 55.25 C-0.66956209 62.04456209 -9.08372867 66.23941852 -18.75219727 66.44287109 C-30.29603099 66.41449836 -39.00942484 64.12338447 -47.6875 56.0625 C-54.66146472 48.71723623 -57.8569852 40.13218429 -58.1875 30.0625 C-57.82446956 19.34724672 -54.23778343 10.71723399 -46.6875 3.0625 C-32.97248941 -8.58761123 -15.30433672 -8.76066004 0 0 Z " fill="#002C42" transform="translate(219.6875,87.9375)"/>
<path d="M0 0 C2.03125 -0.37231445 2.03125 -0.37231445 4.5 -0.36328125 C5.386875 -0.36263672 6.27375 -0.36199219 7.1875 -0.36132812 C8.5796875 -0.3371582 8.5796875 -0.3371582 10 -0.3125 C10.928125 -0.31572266 11.85625 -0.31894531 12.8125 -0.32226562 C19.73305861 -0.26694139 19.73305861 -0.26694139 22 2 C22.25396729 4.39099121 22.25396729 4.39099121 22.25878906 7.42773438 C22.26509338 8.56231079 22.27139771 9.69688721 22.27789307 10.86584473 C22.2738446 12.09605347 22.26979614 13.32626221 22.265625 14.59375 C22.26753845 15.85135132 22.2694519 17.10895264 22.27142334 18.40466309 C22.27278649 21.06792875 22.27008006 23.7308293 22.26074219 26.39404297 C22.24934752 29.81071394 22.25590748 33.22707072 22.26788712 36.64373016 C22.27684454 39.89791479 22.27057628 43.15206127 22.265625 46.40625 C22.26967346 47.63645874 22.27372192 48.86666748 22.27789307 50.13415527 C22.27158875 51.26873169 22.26528442 52.40330811 22.25878906 53.57226562 C22.25640228 55.07545349 22.25640228 55.07545349 22.25396729 56.60900879 C22 59 22 59 20 61 C17.96875 61.25878906 17.96875 61.25878906 15.5 61.265625 C14.613125 61.26820313 13.72625 61.27078125 12.8125 61.2734375 C11.884375 61.26570313 10.95625 61.25796875 10 61.25 C9.071875 61.25773437 8.14375 61.26546875 7.1875 61.2734375 C5.8571875 61.26957031 5.8571875 61.26957031 4.5 61.265625 C3.6853125 61.26336914 2.870625 61.26111328 2.03125 61.25878906 C0 61 0 61 -2 59 C-2.25396729 56.65370178 -2.25396729 56.65370178 -2.25878906 53.67993164 C-2.26824554 52.01293968 -2.26824554 52.01293968 -2.27789307 50.31227112 C-2.2738446 49.10707321 -2.26979614 47.90187531 -2.265625 46.66015625 C-2.26753845 45.42712265 -2.2694519 44.19408905 -2.27142334 42.9236908 C-2.27313621 39.64174412 -2.26506755 36.35998562 -2.25390625 33.07806396 C-2.2500069 31.06605997 -2.25388805 29.05423069 -2.26074219 27.04223633 C-2.27307499 23.18562678 -2.27160516 19.32927647 -2.265625 15.47265625 C-2.26967346 14.26948257 -2.27372192 13.0663089 -2.27789307 11.82667542 C-2.27158875 10.71219528 -2.26528442 9.59771515 -2.25878906 8.44946289 C-2.25719788 7.46732315 -2.25560669 6.48518341 -2.25396729 5.47328186 C-2 3 -2 3 0 0 Z M7 9 C7 23.52 7 38.04 7 53 C9.31 53 11.62 53 14 53 C14 38.48 14 23.96 14 9 C11.69 9 9.38 9 7 9 Z " fill="#002C42" transform="translate(85,111)"/>
<path d="M0 0 C1.25586914 -0.00386719 1.25586914 -0.00386719 2.53710938 -0.0078125 C3.41302734 -0.00007812 4.28894531 0.00765625 5.19140625 0.015625 C6.06345703 0.00789062 6.93550781 0.00015625 7.83398438 -0.0078125 C8.67251953 -0.00523437 9.51105469 -0.00265625 10.375 0 C11.14255615 0.00225586 11.9101123 0.00451172 12.70092773 0.00683594 C14.75390625 0.265625 14.75390625 0.265625 17.75390625 2.265625 C18.04549774 5.15056431 18.14981162 7.81750437 18.1171875 10.703125 C18.117686 11.53900146 18.11818451 12.37487793 18.11869812 13.23608398 C18.11635584 15.00474421 18.10661822 16.77340766 18.09008789 18.54199219 C18.06649986 21.25485932 18.06952492 23.96674395 18.07617188 26.6796875 C18.07059514 28.39583921 18.06348529 30.11198678 18.0546875 31.828125 C18.05605461 33.0500354 18.05605461 33.0500354 18.05744934 34.29663086 C17.98492783 40.03460342 17.98492783 40.03460342 15.75390625 42.265625 C13.72265625 42.52441406 13.72265625 42.52441406 11.25390625 42.53125 C10.36703125 42.53382813 9.48015625 42.53640625 8.56640625 42.5390625 C7.63828125 42.53132813 6.71015625 42.52359375 5.75390625 42.515625 C4.82578125 42.52335937 3.89765625 42.53109375 2.94140625 42.5390625 C1.61109375 42.53519531 1.61109375 42.53519531 0.25390625 42.53125 C-0.56078125 42.52899414 -1.37546875 42.52673828 -2.21484375 42.52441406 C-4.24609375 42.265625 -4.24609375 42.265625 -6.24609375 40.265625 C-6.44599602 37.42022358 -6.52586351 34.67424716 -6.51171875 31.828125 C-6.5136322 30.99224854 -6.51554565 30.15637207 -6.51751709 29.29516602 C-6.51887911 27.52652689 -6.51518151 25.75787777 -6.50683594 23.98925781 C-6.4961365 21.27646506 -6.50673051 18.56433456 -6.51953125 15.8515625 C-6.51820966 14.1354152 -6.51564727 12.41926831 -6.51171875 10.703125 C-6.51576721 9.88851807 -6.51981567 9.07391113 -6.52398682 8.23461914 C-6.47574801 2.46383943 -6.07831565 0.01789055 0 0 Z M2.75390625 9.265625 C2.75390625 17.515625 2.75390625 25.765625 2.75390625 34.265625 C4.73390625 34.265625 6.71390625 34.265625 8.75390625 34.265625 C8.75390625 26.015625 8.75390625 17.765625 8.75390625 9.265625 C6.77390625 9.265625 4.79390625 9.265625 2.75390625 9.265625 Z " fill="#002C42" transform="translate(124.24609375,129.734375)"/>
<path d="M0 0 C0.84175781 -0.00257813 1.68351562 -0.00515625 2.55078125 -0.0078125 C3.87142578 0.00378906 3.87142578 0.00378906 5.21875 0.015625 C6.09917969 0.00789062 6.97960938 0.00015625 7.88671875 -0.0078125 C8.72847656 -0.00523437 9.57023437 -0.00265625 10.4375 0 C11.59668945 0.00338379 11.59668945 0.00338379 12.77929688 0.00683594 C14.71875 0.265625 14.71875 0.265625 16.71875 2.265625 C16.90643653 5.1948553 16.97428641 8.02790897 16.94921875 10.95703125 C16.94853142 12.24769753 16.94853142 12.24769753 16.9478302 13.56443787 C16.94480705 15.38436257 16.93691888 17.20428467 16.92456055 19.02416992 C16.90630148 21.82024224 16.90405085 24.61598366 16.90429688 27.41210938 C16.8993819 29.17708622 16.89355367 30.9420608 16.88671875 32.70703125 C16.88560593 33.54867325 16.8844931 34.39031525 16.88334656 35.25746155 C16.83479705 41.14957795 16.83479705 41.14957795 15.71875 42.265625 C14.16919441 42.36462023 12.61521327 42.39642024 11.0625 42.3984375 C9.65291016 42.40037109 9.65291016 42.40037109 8.21484375 42.40234375 C7.22613281 42.39847656 6.23742187 42.39460938 5.21875 42.390625 C4.23003906 42.39449219 3.24132812 42.39835937 2.22265625 42.40234375 C1.28292969 42.40105469 0.34320313 42.39976562 -0.625 42.3984375 C-1.49318359 42.39730957 -2.36136719 42.39618164 -3.25585938 42.39501953 C-5.28125 42.265625 -5.28125 42.265625 -6.28125 41.265625 C-6.39474161 38.40468283 -6.44543492 35.56879044 -6.44921875 32.70703125 C-6.45254715 31.84754379 -6.45587555 30.98805634 -6.45930481 30.1025238 C-6.4643777 28.28083839 -6.46671302 26.45914364 -6.46655273 24.63745117 C-6.46873803 21.8434321 -6.48688644 19.04980843 -6.50585938 16.25585938 C-6.5087934 14.48958469 -6.51077814 12.72330812 -6.51171875 10.95703125 C-6.51890427 10.11741348 -6.52608978 9.27779572 -6.53349304 8.41273499 C-6.51029341 2.55044146 -6.19903545 0.0180956 0 0 Z M1.71875 9.265625 C1.71875 17.515625 1.71875 25.765625 1.71875 34.265625 C4.02875 34.265625 6.33875 34.265625 8.71875 34.265625 C8.71875 26.015625 8.71875 17.765625 8.71875 9.265625 C6.40875 9.265625 4.09875 9.265625 1.71875 9.265625 Z " fill="#002C42" transform="translate(55.28125,129.734375)"/>
<path d="M0 0 C2.6875 0.875 2.6875 0.875 5 2 C5 5.3 5 8.6 5 12 C9.62 12 14.24 12 19 12 C19.66 13.65 20.32 15.3 21 17 C20.34 17.99 19.68 18.98 19 20 C16.86108398 20.35644531 16.86108398 20.35644531 14.24609375 20.328125 C12.84133789 20.32039063 12.84133789 20.32039063 11.40820312 20.3125 C10.42787109 20.291875 9.44753906 20.27125 8.4375 20.25 C6.96120117 20.24226563 6.96120117 20.24226563 5.45507812 20.234375 C-1.84613458 20.15386542 -1.84613458 20.15386542 -3 19 C-3.15322744 16.17413249 -3.23162755 13.38956118 -3.25 10.5625 C-3.270625 9.77294922 -3.29125 8.98339844 -3.3125 8.16992188 C-3.328125 5.87890625 -3.328125 5.87890625 -3 2 C-2.01 1.34 -1.02 0.68 0 0 Z " fill="#002C42" transform="translate(156,152)"/>
</svg>
