<?xml version="1.0" encoding="UTF-8"?>
<svg version="1.1" xmlns="http://www.w3.org/2000/svg" width="254" height="250">
<path d="M0 0 C1.05525879 0.00161133 2.11051758 0.00322266 3.19775391 0.00488281 C11.8337731 0.13959362 19.21532053 1.42645836 27.375 4.375 C28.26832031 4.66375 29.16164062 4.9525 30.08203125 5.25 C37.8618667 7.9943829 47.14312509 12.84864057 52.375 19.375 C51.95394737 23.79605263 51.95394737 23.79605263 50.375 25.375 C45.50768012 26.10553807 42.71633947 23.89443407 38.9375 21.1875 C23.38757364 10.64955044 5.40074372 7.28082227 -13 10.5 C-32.05323384 14.68859435 -48.26146567 25.13930461 -58.875 41.625 C-69.14240249 59.173668 -72.49157946 77.98847954 -67.66015625 97.8984375 C-62.04499449 116.7569053 -51.04882728 131.63400897 -34.01953125 141.5859375 C-16.09679284 151.03198375 1.88224675 152.5232458 21.375 147.375 C40.09447357 141.34088398 54.33912672 128.7021423 63.375 111.375 C71.76950252 93.15487111 72.75335681 74.29336008 66.30859375 55.21875 C63.82207875 48.85064558 60.62853487 43.3898402 56.6328125 37.84765625 C55.11286424 34.85968342 55.3764704 33.51083171 56.375 30.375 C59.345 29.88 59.345 29.88 62.375 29.375 C68.08739893 37.11225503 73.57992937 44.78836866 75.375 54.375 C76.06537354 54.35928955 76.75574707 54.3435791 77.46704102 54.32739258 C80.62377588 54.26466547 83.78037915 54.22589 86.9375 54.1875 C88.02353516 54.16236328 89.10957031 54.13722656 90.22851562 54.11132812 C96.36843298 54.05534104 101.10094671 54.06918736 106.375 57.375 C111.69388214 63.01552501 110.91374354 69.21948266 110.82910156 76.63232422 C110.82797228 77.98294542 110.82860853 79.33356907 110.83087158 80.68418884 C110.83201653 84.33889246 110.80854346 87.99306808 110.78057575 91.64764929 C110.75552514 95.47129972 110.75321723 99.29496303 110.74847412 103.11868286 C110.73605504 110.35408156 110.70324807 117.58923773 110.66307616 124.82452977 C110.61832506 133.06389742 110.59636305 141.30327683 110.57629442 149.54273582 C110.53451435 166.48696402 110.46418326 183.43095635 110.375 200.375 C111.13280762 200.42470947 111.89061523 200.47441895 112.67138672 200.52563477 C113.66412598 200.60096436 114.65686523 200.67629395 115.6796875 200.75390625 C116.66437012 200.82424072 117.64905273 200.8945752 118.66357422 200.96704102 C122.18185007 201.49639802 123.99903493 202.76143843 126.375 205.375 C128.11791109 208.86082219 127.64443922 212.78397884 127.6875 216.625 C127.71650391 217.47191406 127.74550781 218.31882813 127.77539062 219.19140625 C127.83158691 224.75051599 127.21642703 228.05584865 123.375 232.375 C118.77353544 236.05229172 114.48267622 235.80027961 108.85462952 235.76268005 C107.40899389 235.77075836 107.40899389 235.77075836 105.9341535 235.77899987 C102.70214788 235.79331661 99.47054968 235.78616644 96.23852539 235.77905273 C93.92242605 235.78475434 91.60632951 235.79171778 89.29023743 235.79985046 C82.99690253 235.81781989 76.70370677 235.81660636 70.4103539 235.81090808 C65.15915972 235.80782176 59.90799247 235.81390246 54.65680212 235.81994683 C41.56181164 235.83480679 28.46689946 235.83116806 15.37190925 235.81908352 C4.00159788 235.80915097 -7.36855078 235.82209188 -18.73883706 235.84601771 C-30.41659169 235.87040521 -42.09426375 235.87961764 -53.77204329 235.87336498 C-60.32714932 235.8699903 -66.88212089 235.87244458 -73.43720818 235.88961601 C-79.60060673 235.90505619 -85.76369403 235.90116184 -91.92708015 235.88231087 C-94.19020655 235.87861693 -96.45335585 235.88175674 -98.71646118 235.89219666 C-101.80388395 235.90535275 -104.89026813 235.89390613 -107.97764587 235.87620544 C-109.3237101 235.89061295 -109.3237101 235.89061295 -110.69696754 235.90531152 C-116.16437807 235.84073588 -119.28238402 235.01056806 -123.625 231.375 C-127.38904459 226.98228835 -127.10894343 222.38910196 -127.0625 216.875 C-127.08248047 216.03324219 -127.10246094 215.19148437 -127.12304688 214.32421875 C-127.11976901 210.16133354 -126.98092686 207.94214423 -124.72265625 204.34375 C-121.50586213 201.32463596 -119.32086574 201.16419837 -115 200.8125 C-113.99710938 200.72871094 -112.99421875 200.64492187 -111.9609375 200.55859375 C-111.19007812 200.49800781 -110.41921875 200.43742188 -109.625 200.375 C-109.62868717 199.67446943 -109.63237434 198.97393887 -109.63617325 198.2521801 C-109.72453926 181.20086928 -109.79071684 164.14961667 -109.83224869 147.09812737 C-109.85286742 138.85211841 -109.88097473 130.60626237 -109.92675781 122.36035156 C-109.96664681 115.17258194 -109.99243783 107.98492306 -110.00135398 100.79704583 C-110.00656529 96.99163166 -110.018799 93.18653432 -110.04792023 89.38122177 C-110.07512221 85.79757809 -110.08343552 82.21438097 -110.07743073 78.63064384 C-110.07905143 76.69227776 -110.10054927 74.75396002 -110.12268066 72.8157196 C-110.07188538 62.09079695 -110.07188538 62.09079695 -105.625 57.375 C-99.47973822 53.52310793 -93.26320705 54.02372993 -86.1875 54.1875 C-85.07439453 54.20103516 -83.96128906 54.21457031 -82.81445312 54.22851562 C-80.08412788 54.26367003 -77.35482256 54.31287894 -74.625 54.375 C-74.4388916 53.7876709 -74.2527832 53.2003418 -74.06103516 52.59521484 C-67.49868947 32.3270719 -53.361462 17.21743842 -34.625 7.375 C-23.14950738 2.49575395 -12.43691661 -0.01983876 0 0 Z M-100.24338055 65.06891632 C-101.91123002 67.85275122 -101.99979682 69.4958927 -101.9992218 72.72644043 C-102.00623611 73.81158432 -102.01325043 74.89672821 -102.02047729 76.01475525 C-102.01283356 77.20033524 -102.00518982 78.38591522 -101.99731445 79.60742188 C-102.00096512 80.85979141 -102.00461578 82.11216095 -102.00837708 83.40248108 C-102.01509487 86.83441991 -102.00836788 90.26581673 -101.99504495 93.69770241 C-101.98372322 97.28996444 -101.98783852 100.88221256 -101.98979187 104.4744873 C-101.99067462 110.50696474 -101.97959852 116.53932976 -101.96118164 122.57177734 C-101.94001427 129.54505263 -101.93650424 136.51816323 -101.9427436 143.49146414 C-101.94843942 150.20092028 -101.94278903 156.91031845 -101.93157005 163.61976624 C-101.92692695 166.47454399 -101.92604897 169.32928627 -101.9281559 172.18406677 C-101.93039022 176.17029955 -101.91592593 180.15637586 -101.8996582 184.14257812 C-101.90213562 185.32815811 -101.90461304 186.5137381 -101.90716553 187.73524475 C-101.90008072 188.82038864 -101.89299591 189.90553253 -101.88569641 191.02355957 C-101.88364354 191.96596748 -101.88159067 192.9083754 -101.87947559 193.87934113 C-101.60968466 196.52519858 -101.05571362 198.14508321 -99.625 200.375 C-96.55355473 201.91072264 -93.33395159 201.51562772 -89.96376038 201.50871277 C-89.16379196 201.51097833 -88.36382355 201.51324388 -87.53961366 201.51557809 C-84.84418437 201.52193627 -82.14880513 201.52108757 -79.45336914 201.52026367 C-77.5269311 201.52325402 -75.60049365 201.52665625 -73.67405701 201.53044128 C-68.43033639 201.53929784 -63.18663208 201.54162008 -57.94290471 201.54225707 C-53.57139298 201.54320479 -49.19988507 201.54688147 -44.8283748 201.55042917 C-34.51847512 201.5585799 -24.20858417 201.56101282 -13.89868164 201.56030273 C-3.24911644 201.55970167 7.40039815 201.57025785 18.04995054 201.5860464 C27.18117479 201.59910355 36.31238246 201.60448741 45.44361597 201.60384732 C50.90260855 201.60359181 56.36155616 201.60647222 61.82053947 201.61702538 C66.95291498 201.62667579 72.08520226 201.62680664 77.2175808 201.61950874 C79.10462828 201.6184591 80.99168116 201.62084811 82.87871933 201.6268692 C85.44817699 201.63453872 88.01732614 201.62997802 90.58677673 201.62223816 C91.71556139 201.6299535 91.71556139 201.6299535 92.86714977 201.63782471 C96.59091869 201.6129153 98.19212068 201.49691955 101.375 199.375 C102.38438082 196.34685755 102.50545443 194.3110556 102.51544189 191.14381409 C102.52115204 190.06004486 102.52686218 188.97627563 102.53274536 187.85966492 C102.53386322 186.67048965 102.53498108 185.48131439 102.53613281 184.25610352 C102.54109772 183.00388 102.54606262 181.75165649 102.55117798 180.46148682 C102.56328734 177.02553947 102.57074464 173.58965298 102.57518864 170.15369153 C102.57812031 168.00733951 102.58222524 165.86099282 102.58669281 163.71464348 C102.60036351 156.99986692 102.61003291 150.28510255 102.6138947 143.57031304 C102.61837804 135.81742697 102.63594039 128.06471698 102.6648953 120.31188446 C102.68649949 114.31945069 102.69659826 108.3270665 102.69793582 102.33459419 C102.69898453 98.75516009 102.70490648 95.17589161 102.72275543 91.59649849 C102.74227105 87.60537125 102.73795217 83.6144649 102.73144531 79.62329102 C102.74526749 77.84256447 102.74526749 77.84256447 102.7593689 76.02586365 C102.75379974 74.9392746 102.74823059 73.85268555 102.74249268 72.73316956 C102.74395924 71.78946282 102.7454258 70.84575609 102.7469368 69.87345219 C102.30533729 66.90704697 101.43357897 65.52856581 99.375 63.375 C97.06409272 62.82586421 97.06409272 62.82586421 94.48828125 62.984375 C93.55048828 62.99726562 92.61269531 63.01015625 91.64648438 63.0234375 C90.67001953 63.05695313 89.69355469 63.09046875 88.6875 63.125 C87.69943359 63.14304688 86.71136719 63.16109375 85.69335938 63.1796875 C83.25293158 63.22684553 80.81445231 63.29263958 78.375 63.375 C78.705 65.025 79.035 66.675 79.375 68.375 C80.13425781 68.46136719 80.89351562 68.54773438 81.67578125 68.63671875 C82.66964844 68.77722656 83.66351563 68.91773437 84.6875 69.0625 C85.67363281 69.19011719 86.65976563 69.31773438 87.67578125 69.44921875 C90.375 70.375 90.375 70.375 92.01844788 72.24829102 C94.04068947 76.90934372 93.80082078 81.29839209 93.77905273 86.328125 C93.78591599 87.43273071 93.79277924 88.53733643 93.79985046 89.67541504 C93.81814664 93.32540756 93.81427712 96.97497147 93.80859375 100.625 C93.81315384 103.16178528 93.81845889 105.69856932 93.82447815 108.23535156 C93.83341457 113.55148926 93.83121336 118.86747074 93.82104492 124.18359375 C93.80955979 130.32367773 93.82364803 136.46332513 93.8504414 142.60335159 C93.87528126 148.51778069 93.87777475 154.43207422 93.87132454 160.34655762 C93.87117102 162.85999274 93.8772407 165.37343616 93.88961601 167.88684082 C93.90447275 171.39885065 93.89388721 174.90989562 93.87670898 178.421875 C93.89121094 179.98210388 93.89121094 179.98210388 93.90600586 181.57385254 C93.89125465 183.01214417 93.89125465 183.01214417 93.87620544 184.47949219 C93.87599616 185.30906433 93.87578688 186.13863647 93.87557125 186.99334717 C93.1563473 190.41532108 91.93914253 192.00765712 89.375 194.375 C86.11408997 195.0042057 86.11408997 195.0042057 82.16333008 195.00991821 C81.07212844 195.02161814 81.07212844 195.02161814 79.95888233 195.03355443 C77.52025074 195.05350503 75.08317451 195.03769945 72.64453125 195.02197266 C70.89674976 195.02874747 69.1489754 195.03764984 67.4012146 195.04852295 C62.65322279 195.07133919 57.9057735 195.06247042 53.15777206 195.04662752 C48.19216179 195.03398055 43.2265984 195.04570528 38.26098633 195.05355835 C29.92162728 195.06265842 21.58248953 195.05065761 13.24316406 195.02685547 C3.59770759 194.99964352 -6.04722048 195.00845743 -15.69266415 195.0359875 C-23.9696426 195.05866737 -32.24646186 195.06188414 -40.52346134 195.04879415 C-45.46888454 195.04099346 -50.41405926 195.039975 -55.35946655 195.05647659 C-60.0086583 195.07090579 -64.65716791 195.06092824 -69.30628586 195.03200531 C-71.0139083 195.02538616 -72.72158801 195.02730634 -74.42918777 195.03831863 C-76.75801366 195.05195411 -79.08464468 195.03488652 -81.41333008 195.00991821 C-82.71708084 195.00803308 -84.0208316 195.00614796 -85.36408997 195.0042057 C-88.625 194.375 -88.625 194.375 -91.0463562 191.99602318 C-92.81362096 189.06183251 -93.10642915 187.50235995 -93.05078125 184.109375 C-93.04240234 183.13742188 -93.03402344 182.16546875 -93.02539062 181.1640625 C-92.99638672 180.16117187 -92.96738281 179.15828125 -92.9375 178.125 C-92.92783203 177.10664063 -92.91816406 176.08828125 -92.90820312 175.0390625 C-92.7932676 167.5432676 -92.7932676 167.5432676 -91.625 166.375 C-89.95882885 166.33436168 -88.29111905 166.332279 -86.625 166.375 C-83.48033962 172.66432075 -84.9945766 180.3530446 -84.625 187.375 C-28.525 187.375 27.575 187.375 85.375 187.375 C85.375 151.075 85.375 114.775 85.375 77.375 C83.395 77.375 81.415 77.375 79.375 77.375 C79.34921875 78.28378906 79.3234375 79.19257812 79.296875 80.12890625 C78.86387713 89.72374536 77.29872602 98.17417045 74.375 107.375 C74.08753906 108.27992187 73.80007812 109.18484375 73.50390625 110.1171875 C66.6986251 129.05099194 51.78556966 142.35053696 34.5625 151.6875 C16.51864347 160.11109492 -4.93549217 161.35775724 -24.02734375 155.69140625 C-44.67977387 148.13454528 -60.36260149 134.91091493 -70.625 115.375 C-72.57800413 110.78173205 -74.18964716 106.15367471 -75.625 101.375 C-75.85960938 100.59769531 -76.09421875 99.82039063 -76.3359375 99.01953125 C-78.15874693 91.97926006 -78.26295167 84.60643905 -78.625 77.375 C-80.605 77.375 -82.585 77.375 -84.625 77.375 C-84.63530746 78.32269257 -84.64561493 79.27038513 -84.65623474 80.24679565 C-84.75385792 89.16422119 -84.85658134 98.08157521 -84.96433926 106.9988842 C-85.01957776 111.58370405 -85.07299925 116.16853027 -85.12231445 120.75341797 C-85.16994432 125.17547393 -85.22228663 129.59745099 -85.27794075 134.01941299 C-85.29837055 135.70913867 -85.31708259 137.398886 -85.33407402 139.08864975 C-85.35810422 141.44964192 -85.38816056 143.81048433 -85.41967773 146.17138672 C-85.4254332 146.87485229 -85.43118866 147.57831787 -85.43711853 148.30310059 C-85.51094784 153.14689568 -85.51094784 153.14689568 -86.625 155.375 C-88.29111905 155.417721 -89.95882885 155.41563832 -91.625 155.375 C-93.56695705 153.43304295 -92.78205963 149.73879998 -92.78613281 147.08886719 C-92.79109772 146.32622055 -92.79606262 145.56357391 -92.80117798 144.77781677 C-92.81584029 142.24249381 -92.82260942 139.70723348 -92.828125 137.171875 C-92.83387449 135.41408282 -92.83963224 133.65629066 -92.84539795 131.89849854 C-92.85592046 128.20625515 -92.86175447 124.51403362 -92.86523438 120.82177734 C-92.87071223 116.09266095 -92.89471973 111.36383349 -92.92320633 106.63480759 C-92.941843 103.00080528 -92.94703892 99.36687229 -92.94857025 95.73282623 C-92.95159657 93.98972245 -92.95962442 92.24661988 -92.97275543 90.50356293 C-92.98983256 88.06172354 -92.98793146 85.62058601 -92.98144531 83.17871094 C-92.9906601 82.45955002 -92.99987488 81.7403891 -93.0093689 80.99943542 C-92.97310295 76.63548823 -92.36203229 73.8164059 -89.625 70.375 C-86.92578125 69.44921875 -86.92578125 69.44921875 -83.9375 69.0625 C-82.44669922 68.85173828 -82.44669922 68.85173828 -80.92578125 68.63671875 C-80.16652344 68.55035156 -79.40726563 68.46398437 -78.625 68.375 C-78.295 66.725 -77.965 65.075 -77.625 63.375 C-81.0622166 63.25895321 -84.49893086 63.18780492 -87.9375 63.125 C-88.91396484 63.09148437 -89.89042969 63.05796875 -90.89648438 63.0234375 C-91.83427734 63.01054688 -92.77207031 62.99765625 -93.73828125 62.984375 C-94.60235596 62.96342773 -95.46643066 62.94248047 -96.35668945 62.92089844 C-98.74152194 63.17287486 -98.74152194 63.17287486 -100.24338055 65.06891632 Z M-118.625 210.375 C-118.80358965 212.47416026 -118.89298477 214.58122688 -118.9375 216.6875 C-118.97488281 217.83863281 -119.01226562 218.98976562 -119.05078125 220.17578125 C-118.86699551 223.35926504 -118.86699551 223.35926504 -117.17250061 225.54320526 C-113.37518467 228.27368679 -110.00995964 227.92925202 -105.43920898 227.88293457 C-104.02949027 227.89229451 -104.02949027 227.89229451 -102.59129238 227.90184355 C-99.43430618 227.91783002 -96.27808602 227.90514698 -93.12109375 227.89257812 C-90.86100818 227.89799672 -88.60092615 227.90511789 -86.34085083 227.91381836 C-80.19629924 227.93208576 -74.05201566 227.92496995 -67.90745926 227.91230202 C-61.48444127 227.9021921 -55.0614466 227.9115621 -48.63842773 227.91784668 C-37.15957165 227.92559572 -25.68086434 227.91314608 -14.2020334 227.89280933 C-3.79250599 227.87493806 6.616843 227.87804209 17.02636719 227.89648438 C29.112197 227.91788648 41.19789201 227.92586067 53.28374767 227.91403532 C59.68230156 227.90779133 66.08073252 227.90698971 72.47927856 227.92018127 C78.49411409 227.93171502 84.50861186 227.92375904 90.5234108 227.90060425 C92.73415694 227.89530395 94.94493138 227.89685337 97.15566635 227.90565491 C100.1672342 227.91654158 103.17771116 227.90292966 106.18920898 227.88293457 C107.51001638 227.8963189 107.51001638 227.8963189 108.85750675 227.90997362 C113.72140475 227.85110605 113.72140475 227.85110605 117.92250061 225.54320526 C119.95378324 222.51102659 119.80483113 220.30048951 119.6875 216.6875 C119.66300781 215.52863281 119.63851562 214.36976563 119.61328125 213.17578125 C119.68628704 210.47141378 119.68628704 210.47141378 118.375 209.375 C115.60561034 209.27982197 112.86122841 209.24945735 110.09155273 209.26147461 C109.22333893 209.26132858 108.35512512 209.26118256 107.46060181 209.2610321 C104.57657414 209.26173154 101.6926102 209.26952537 98.80859375 209.27734375 C96.81462133 209.27920782 94.82064845 209.28063177 92.82667542 209.28163147 C87.56754298 209.28545752 82.30843797 209.29528855 77.04931641 209.30633545 C71.68717825 209.3165477 66.32503569 209.32112869 60.96289062 209.32617188 C50.43358167 209.33691074 39.90429311 209.3539882 29.375 209.375 C29.09570145 210.19832195 29.09570145 210.19832195 28.8107605 211.03827667 C28.42852829 212.11863819 28.42852829 212.11863819 28.03857422 213.2208252 C27.79050018 213.9347065 27.54242615 214.6485878 27.28683472 215.38410187 C25.73211618 218.77867127 23.7128713 219.86216572 20.375 221.375 C17.31950646 221.90586453 14.3459369 221.93662899 11.25 221.90625 C9.95231689 221.91199036 9.95231689 221.91199036 8.62841797 221.91784668 C6.80630321 221.92055865 4.98414904 221.91324766 3.16210938 221.89648438 C0.38322631 221.87506341 -2.39307173 221.89630922 -5.171875 221.921875 C-6.94792234 221.9192316 -8.72396807 221.91410635 -10.5 221.90625 C-11.7377417 221.91839539 -11.7377417 221.91839539 -13.00048828 221.93078613 C-18.28710693 221.84543893 -21.62213041 221.14785395 -25.625 217.375 C-26.53683472 215.38410187 -26.53683472 215.38410187 -27.28857422 213.2208252 C-27.54339569 212.50058418 -27.79821716 211.78034317 -28.0607605 211.03827667 C-28.24695953 210.48939537 -28.43315857 209.94051407 -28.625 209.375 C-40.21188402 209.35187772 -51.79876259 209.3340855 -63.38566494 209.32318783 C-68.76533762 209.31795875 -74.14499458 209.31086065 -79.5246582 209.29956055 C-84.71174843 209.28873255 -89.89882349 209.28272335 -95.08592415 209.28012276 C-97.0695628 209.27826835 -99.05320058 209.27464744 -101.03683281 209.26926994 C-103.80509136 209.26206068 -106.57328638 209.26100901 -109.34155273 209.26147461 C-110.17017319 209.25787933 -110.99879364 209.25428406 -111.8525238 209.25057983 C-115.54002628 208.90381821 -115.54002628 208.90381821 -118.625 210.375 Z M-19.625 209.375 C-18.965 210.695 -18.305 212.015 -17.625 213.375 C-5.745 213.375 6.135 213.375 18.375 213.375 C19.035 212.055 19.695 210.735 20.375 209.375 C7.175 209.375 -6.025 209.375 -19.625 209.375 Z " fill="#002C42" transform="translate(126.625,14.625)"/>
<path d="M0 0 C3.42222186 0.72393155 4.28843896 0.91611685 6.25 3.6875 C6.59057617 6.59838867 6.59057617 6.59838867 6.54296875 10.10546875 C6.53330078 11.35908203 6.52363281 12.61269531 6.51367188 13.90429688 C6.48853516 15.21462891 6.46339844 16.52496094 6.4375 17.875 C6.42244967 19.21027163 6.40876187 20.54555937 6.39648438 21.88085938 C6.36107694 25.15014576 6.3116889 28.41862093 6.25 31.6875 C7.19472168 31.67001709 8.13944336 31.65253418 9.11279297 31.63452148 C13.86391137 31.71475438 16.67026016 33.70184465 20.25 36.6875 C24.46694092 41.85325263 24.87989547 46.27746102 24.6328125 52.8828125 C23.90439479 58.21958716 21.13527988 60.78210012 17.5 64.5 C13.46021413 67.21908664 11.03323387 67.22984491 6.25 67.6875 C6.2814209 68.93623901 6.2814209 68.93623901 6.31347656 70.21020508 C6.38168816 73.30196034 6.43181724 76.39333197 6.46972656 79.4855957 C6.49971281 81.48089014 6.55053786 83.47583582 6.6015625 85.47070312 C6.62089844 87.35112305 6.62089844 87.35112305 6.640625 89.26953125 C6.6720459 91.00553589 6.6720459 91.00553589 6.70410156 92.77661133 C6.25 95.6875 6.25 95.6875 4.43945312 97.58618164 C1.00392956 99.31428677 -1.11397057 98.74337754 -4.75 97.6875 C-6.77921497 95.82836374 -8.32157973 94.18839254 -10 92.0625 C-17.51646623 83.25000131 -26.04927818 78.8123227 -36.75 74.6875 C-36.73428955 75.47398926 -36.7185791 76.26047852 -36.70239258 77.07080078 C-36.63984085 80.65129338 -36.60094449 84.23167076 -36.5625 87.8125 C-36.53736328 89.05 -36.51222656 90.2875 -36.48632812 91.5625 C-36.47182617 93.36074219 -36.47182617 93.36074219 -36.45703125 95.1953125 C-36.4413208 96.29504395 -36.42561035 97.39477539 -36.40942383 98.52783203 C-36.87061442 102.80649056 -38.33661082 106.17341134 -41.28515625 109.33203125 C-47.25331172 113.89591484 -51.27772177 114.44846751 -58.75 113.6875 C-63.75230198 111.23182448 -67.24851535 107.6904693 -69.75 102.6875 C-69.83639869 100.27911322 -69.86567764 97.90016119 -69.84765625 95.4921875 C-69.8462413 94.78474396 -69.84482635 94.07730042 -69.84336853 93.34841919 C-69.837766 91.08640331 -69.82521318 88.82448602 -69.8125 86.5625 C-69.80748532 85.02994935 -69.80292236 83.49739714 -69.79882812 81.96484375 C-69.78779577 78.20569112 -69.77052952 74.44661228 -69.75 70.6875 C-70.98234375 70.57535156 -72.2146875 70.46320313 -73.484375 70.34765625 C-79.51276159 69.58414914 -83.38802174 66.66651191 -87.140625 61.93359375 C-90.51434388 56.24341296 -90.59884242 50.12311142 -89.75 43.6875 C-87.79320159 37.01459755 -83.80031511 33.1492103 -77.93676758 29.58544922 C-75.15045669 28.4413104 -72.76970542 28.33154918 -69.76171875 28.1953125 C-68.58754395 28.13255127 -67.41336914 28.06979004 -66.20361328 28.00512695 C-64.33938721 27.90977661 -64.33938721 27.90977661 -62.4375 27.8125 C-43.55740464 26.62664872 -24.30866764 23.1664392 -10.75 8.6875 C-9.55934106 7.21087494 -8.37182473 5.73171023 -7.1875 4.25 C-4.60500138 1.20064236 -4.13462436 0.75801447 0 0 Z M-2.75 12.6875 C-3.88978916 13.86081237 -5.01114618 15.05203885 -6.125 16.25 C-18.82185543 29.03722451 -34.65802128 33.19141344 -51.75 36.6875 C-51.75 45.2675 -51.75 53.8475 -51.75 62.6875 C-49.419375 63.05875 -47.08875 63.43 -44.6875 63.8125 C-31.9733152 66.08555871 -20.94206835 70.60890319 -10.75 78.6875 C-9.326875 79.7703125 -9.326875 79.7703125 -7.875 80.875 C-5.73351136 82.70156384 -3.74026494 84.69723506 -1.75 86.6875 C-1.75 62.2675 -1.75 37.8475 -1.75 12.6875 C-2.08 12.6875 -2.41 12.6875 -2.75 12.6875 Z M-76.75 39.6875 C-80.50020496 43.43770496 -81.65679992 46.37509523 -81.75 51.6875 C-80.09349242 56.38093814 -77.89105302 58.96046508 -73.75 61.6875 C-68.98197052 63.05130344 -68.98197052 63.05130344 -60.75 62.6875 C-60.75 54.1075 -60.75 45.5275 -60.75 36.6875 C-70.1094079 35.91349644 -70.1094079 35.91349644 -76.75 39.6875 Z M6.25 39.6875 C6.25 45.9575 6.25 52.2275 6.25 58.6875 C12.1490701 58.33225027 12.1490701 58.33225027 14.6875 55.0625 C16.59451879 50.94333941 16.53112127 49.0112843 15.25 44.6875 C12.38266214 40.7961129 11.2454539 40.68659078 6.25 39.6875 Z M-61.75 70.6875 C-61.83719631 75.24987931 -61.89045922 79.81204386 -61.9375 84.375 C-61.96263672 85.66857422 -61.98777344 86.96214844 -62.01367188 88.29492188 C-62.02333984 89.54208984 -62.03300781 90.78925781 -62.04296875 92.07421875 C-62.0586792 93.22108154 -62.07438965 94.36794434 -62.09057617 95.54956055 C-61.71163179 99.04101007 -60.81634961 100.87967512 -58.75 103.6875 C-56.36780919 105.43443992 -55.20525467 105.71026273 -52.25 105.5625 C-48.59271587 104.28245056 -46.47346584 102.13443168 -44.75 98.6875 C-44.66472372 96.65517366 -44.64283865 94.62002994 -44.65234375 92.5859375 C-44.65717773 90.76835937 -44.65717773 90.76835937 -44.66210938 88.9140625 C-44.67048828 87.64304687 -44.67886719 86.37203125 -44.6875 85.0625 C-44.69201172 83.78375 -44.69652344 82.505 -44.70117188 81.1875 C-44.71298797 78.02078708 -44.72946185 74.85416644 -44.75 71.6875 C-48.768118 70.93037688 -52.53825175 70.57516161 -56.625 70.625 C-57.59179688 70.63402344 -58.55859375 70.64304687 -59.5546875 70.65234375 C-60.64136719 70.66974609 -60.64136719 70.66974609 -61.75 70.6875 Z " fill="#002C42" transform="translate(159.75,37.3125)"/>
<path d="M0 0 C2 2 2 2 2.3293457 4.43383789 C2 7 2 7 0.64916992 8.63061523 C-0.30058716 9.3374646 -0.30058716 9.3374646 -1.26953125 10.05859375 C-2.34231323 10.87541626 -2.34231323 10.87541626 -3.43676758 11.70874023 C-4.22075928 12.27923096 -5.00475098 12.84972168 -5.8125 13.4375 C-6.61260498 14.03570557 -7.41270996 14.63391113 -8.23706055 15.25024414 C-9.93845978 16.51955773 -11.64476189 17.78232133 -13.35546875 19.0390625 C-16.01581899 21.01172988 -18.63514227 23.03002464 -21.25 25.0625 C-22.93684307 26.35502446 -24.6243241 27.64671684 -26.3125 28.9375 C-27.10567627 29.55874756 -27.89885254 30.17999512 -28.71606445 30.82006836 C-29.465896 31.38346924 -30.21572754 31.94687012 -30.98828125 32.52734375 C-31.97115112 33.28132446 -31.97115112 33.28132446 -32.97387695 34.05053711 C-35.6749873 35.31630626 -37.2017256 34.86794085 -40 34 C-41 33 -41 33 -41.34375 30.69140625 C-41 28 -41 28 -39.15625 25.96484375 C-38.2796875 25.29582031 -37.403125 24.62679688 -36.5 23.9375 C-35.50226563 23.16535156 -34.50453125 22.39320312 -33.4765625 21.59765625 C-32.31870341 20.73044067 -31.15978346 19.8646403 -30 19 C-28.67415362 17.99912902 -27.34864628 16.9978088 -26.0234375 15.99609375 C-23.27636836 13.9245068 -20.5183193 11.8686766 -17.75390625 9.8203125 C-14.02556769 7.04569169 -10.42639315 4.1305196 -6.89453125 1.109375 C-4.42875834 -0.33450027 -2.81123064 -0.34967844 0 0 Z " fill="#002C42" transform="translate(235,4)"/>
<path d="M0 0 C0.66 1.65 1.32 3.3 2 5 C-1.62561124 9.86138296 -6.17814561 10.2530584 -11.8125 11.25 C-12.68970703 11.42273437 -13.56691406 11.59546875 -14.47070312 11.7734375 C-19.38350433 12.6994105 -24.00114274 13.29365784 -29 13 C-30 12 -30 12 -30.0625 8.9375 C-30.041875 7.968125 -30.02125 6.99875 -30 6 C-20.50082465 2.50030382 -10.18583925 -0.32857546 0 0 Z " fill="#002C42" transform="translate(232,41)"/>
<path d="M0 0 C2.75 0.4375 2.75 0.4375 3.75 1.4375 C3.49574174 7.25012625 2.03923819 9.89503456 -2 14 C-6.23914351 18.37854605 -6.23914351 18.37854605 -10.125 23.0625 C-12.25 25.4375 -12.25 25.4375 -14.375 26.4375 C-16.25 26.4375 -16.25 26.4375 -19.25 24.4375 C-18.87519061 18.62074663 -17.56600704 16.00716988 -13.5 11.875 C-10.63711996 8.92265496 -7.90349284 6.08642756 -5.5 2.75 C-3.25 0.4375 -3.25 0.4375 0 0 Z " fill="#002C42" transform="translate(200.25,-0.4375)"/>
</svg>
