<?xml version="1.0" encoding="UTF-8"?>
<svg version="1.1" xmlns="http://www.w3.org/2000/svg" width="271" height="250">
<path d="M0 0 C0.65725571 -0.00671722 1.31451141 -0.01343445 1.99168396 -0.02035522 C4.16388512 -0.03934964 6.33577761 -0.04325995 8.50805664 -0.04541016 C10.01876452 -0.05183668 11.52947114 -0.05856493 13.04017639 -0.06558228 C16.20682664 -0.07755832 19.37336776 -0.08126273 22.54003906 -0.08007812 C26.59675679 -0.07987482 30.65277489 -0.10718689 34.70932674 -0.14162254 C37.82946483 -0.16386464 40.94943376 -0.16791652 44.06964302 -0.16685867 C45.56517513 -0.16921832 47.06071165 -0.17806238 48.5561657 -0.19352341 C50.64861891 -0.21313236 52.73955332 -0.20736773 54.83203125 -0.1953125 C56.02211288 -0.19816254 57.21219452 -0.20101257 58.43833923 -0.20394897 C61.48071289 0.29052734 61.48071289 0.29052734 63.87184143 1.91366577 C65.99507288 5.05041558 65.93987034 7.03686752 65.87133789 10.80615234 C65.85844727 12.05654297 65.84555664 13.30693359 65.83227539 14.59521484 C65.78200195 16.54814453 65.78200195 16.54814453 65.73071289 18.54052734 C65.71266602 19.85794922 65.69461914 21.17537109 65.67602539 22.53271484 C65.6288756 25.78605042 65.56307333 29.03792359 65.48071289 32.29052734 C66.34879578 32.28386551 67.21687866 32.27720367 68.11126709 32.27033997 C76.29216749 32.21022859 84.47299371 32.16455281 92.65406418 32.13509083 C96.86004813 32.11943491 101.06584959 32.09819815 105.27172852 32.06420898 C109.3306584 32.03161264 113.38941276 32.01367377 117.44846344 32.00589561 C118.99702976 32.00035257 120.54558647 31.98952833 122.09407806 31.97333717 C124.26320657 31.95155864 126.43160982 31.9485605 128.60083008 31.94995117 C129.83549011 31.94328934 131.07015015 31.9366275 132.34222412 31.92976379 C135.84949522 32.3329182 137.00714951 32.83115317 139.48071289 35.29052734 C139.97849083 37.79366398 139.97849083 37.79366398 139.97518921 40.83888245 C139.98357819 41.99285522 139.99196716 43.146828 140.00061035 44.33576965 C139.98937134 45.60289291 139.97813232 46.87001617 139.96655273 48.17553711 C139.96869844 49.52247486 139.9725759 50.86941081 139.97805786 52.21633911 C139.98775942 55.87545201 139.97243904 59.53407771 139.95215178 63.19313169 C139.93460013 67.01855504 139.93810546 70.84396292 139.93887329 74.66941833 C139.93699972 81.09292772 139.91962719 87.51624824 139.89233398 93.93969727 C139.86086915 101.37253558 139.85033821 108.8051671 139.85180509 116.23806721 C139.85302461 123.38162524 139.84282415 130.52511573 139.82622147 137.66865349 C139.81914966 140.71208155 139.8154941 143.75548571 139.81443405 146.79892159 C139.81242899 150.38008986 139.80025092 153.96108364 139.78010178 157.54219437 C139.77144715 159.4883826 139.77259692 161.43460662 139.77398682 163.3808136 C139.76545685 164.53196655 139.75692688 165.68311951 139.74813843 166.86915588 C139.74478674 167.87370095 139.74143505 168.87824602 139.7379818 169.91323185 C139.48071289 172.29052734 139.48071289 172.29052734 137.48071289 174.29052734 C134.62472822 174.4862239 131.86582105 174.55530538 129.0087738 174.5377655 C128.12163966 174.54017992 127.23450551 174.54259433 126.32048851 174.54508191 C123.33012193 174.55074451 120.33996656 174.54203656 117.34960938 174.53344727 C115.21303245 174.53451951 113.07645581 174.53645732 110.93988037 174.53919983 C105.1239729 174.54406031 99.30814177 174.53637774 93.49224353 174.52624679 C87.41882582 174.51748695 81.34541065 174.51922332 75.27198792 174.51960754 C65.07209998 174.51867003 54.87224173 174.50997395 44.67236328 174.49633789 C32.86170372 174.48060725 21.05107669 174.47533988 9.24040741 174.47607344 C-2.09933015 174.47668276 -13.43905706 174.47158641 -24.77879143 174.46328163 C-29.61491924 174.45974131 -34.45104328 174.45791732 -39.28717232 174.45738792 C-44.97601141 174.45638696 -50.66482294 174.45031062 -56.35365295 174.44022179 C-58.44794483 174.43728893 -60.54223988 174.43607299 -62.63653374 174.43664932 C-65.48249615 174.43713633 -68.32838013 174.43152088 -71.17433167 174.42424011 C-72.01439036 174.42578871 -72.85444906 174.42733732 -73.71996409 174.42893285 C-79.40510857 174.40470588 -79.40510857 174.40470588 -80.51928711 173.29052734 C-80.61567895 171.49358696 -80.64116136 169.69281842 -80.63954163 167.89329529 C-80.64091629 166.72235321 -80.64229095 165.55141113 -80.64370728 164.34498596 C-80.640112 163.04882858 -80.63651672 161.7526712 -80.6328125 160.41723633 C-80.63253063 159.04764813 -80.63268836 157.67805979 -80.633255 156.30847168 C-80.63354299 152.57929786 -80.62764619 148.85015594 -80.62068105 145.12098956 C-80.61444758 141.22788322 -80.61384372 137.33477621 -80.61265564 133.44166565 C-80.6095423 126.06454588 -80.60132889 118.68744085 -80.59130615 111.31032759 C-80.58014508 102.91385192 -80.57463458 94.51737555 -80.56961071 86.12089431 C-80.55914627 68.84409678 -80.54154679 51.56731362 -80.51928711 34.29052734 C-76.79703258 32.26602273 -74.18195564 32.0474346 -69.91479492 32.06347656 C-69.26072159 32.06318451 -68.60664825 32.06289246 -67.93275452 32.06259155 C-65.77917028 32.06398059 -63.62593562 32.07952127 -61.47241211 32.09521484 C-59.97597442 32.0989465 -58.47953427 32.10179275 -56.98309326 32.10379028 C-53.05065121 32.11141475 -49.11835764 32.13105296 -45.18597412 32.15319824 C-41.1707968 32.17368229 -37.15559541 32.18279747 -33.14038086 32.19287109 C-25.26661492 32.21430005 -17.3929695 32.24842158 -9.51928711 32.29052734 C-9.53499756 31.39221191 -9.55070801 30.49389648 -9.56689453 29.56835938 C-9.61797966 26.23985042 -9.65561496 22.91175707 -9.68408203 19.58300781 C-9.69918194 18.14153477 -9.71966369 16.70010775 -9.74560547 15.25878906 C-9.78193841 13.18852391 -9.7990004 11.11886527 -9.81225586 9.04833984 C-9.82796631 7.80197754 -9.84367676 6.55561523 -9.85986328 5.27148438 C-9.74747314 4.28776855 -9.63508301 3.30405273 -9.51928711 2.29052734 C-5.92270682 -0.10719285 -4.27722872 0.02741802 0 0 Z M0.48071289 11.29052734 C0.48071289 18.22052734 0.48071289 25.15052734 0.48071289 32.29052734 C18.30071289 32.29052734 36.12071289 32.29052734 54.48071289 32.29052734 C54.48071289 25.36052734 54.48071289 18.43052734 54.48071289 11.29052734 C36.66071289 11.29052734 18.84071289 11.29052734 0.48071289 11.29052734 Z M-70.51928711 43.29052734 C-70.51928711 59.79052734 -70.51928711 76.29052734 -70.51928711 93.29052734 C-62.45040039 93.34660156 -62.45040039 93.34660156 -54.21850586 93.40380859 C-50.81417669 93.43407845 -47.40990045 93.46521974 -44.00561523 93.49951172 C-38.60012438 93.55387884 -33.19473822 93.60498675 -27.7890625 93.63696289 C-23.43170905 93.66293953 -19.07470623 93.7033014 -14.71756935 93.75371361 C-13.05381437 93.77042063 -11.38999869 93.78191098 -9.72617149 93.78814125 C-7.39861518 93.79774099 -5.07196368 93.82574882 -2.74462891 93.8581543 C-2.05410934 93.85671921 -1.36358978 93.85528412 -0.65214539 93.85380554 C2.19573158 93.91002077 4.05269241 93.98074596 6.39762878 95.67790222 C7.81540073 97.78885062 8.03550086 99.52569142 8.35571289 102.04052734 C9.57430472 108.83690129 12.16240095 112.56315766 17.66821289 116.66552734 C23.36577933 119.52669658 29.72711975 120.16848263 35.79321289 118.16552734 C39.45243875 116.54986109 41.8749057 114.34304434 44.48071289 111.29052734 C45.24254883 110.41267578 45.24254883 110.41267578 46.01977539 109.51708984 C47.82356295 106.76800185 48.35953556 104.31045071 49.04321289 101.10302734 C49.46092272 99.15135487 49.92666014 97.20795596 50.48071289 95.29052734 C53.43445359 93.813657 56.44379548 94.11171775 59.68432617 94.08520508 C60.7966713 94.07035568 60.7966713 94.07035568 61.93148804 94.0552063 C64.38796777 94.02356371 66.84446686 93.99882303 69.30102539 93.97412109 C71.00211089 93.95355394 72.70319125 93.93255754 74.40426636 93.91114807 C78.88572025 93.8559027 83.36722045 93.80650432 87.84875488 93.75830078 C93.22358781 93.69928114 98.59833594 93.63303963 103.97309875 93.56800079 C112.14225176 93.46996025 120.31145867 93.38112549 128.48071289 93.29052734 C128.48071289 76.79052734 128.48071289 60.29052734 128.48071289 43.29052734 C62.81071289 43.29052734 -2.85928711 43.29052734 -70.51928711 43.29052734 Z M-70.51928711 104.29052734 C-70.51928711 124.09052734 -70.51928711 143.89052734 -70.51928711 164.29052734 C-4.84928711 164.29052734 60.82071289 164.29052734 128.48071289 164.29052734 C128.48071289 144.49052734 128.48071289 124.69052734 128.48071289 104.29052734 C105.71071289 104.29052734 82.94071289 104.29052734 59.48071289 104.29052734 C56.01571289 111.22052734 56.01571289 111.22052734 52.48071289 118.29052734 C45.81720992 125.37710987 40.40200991 128.27690959 30.66821289 128.69091797 C20.07181466 128.87596536 13.00651493 126.44937178 5.20336914 119.22021484 C2.52755429 116.22281681 0.95003707 113.00020719 -0.51928711 109.29052734 C-1.50928711 106.81552734 -1.50928711 106.81552734 -2.51928711 104.29052734 C-24.95928711 104.29052734 -47.39928711 104.29052734 -70.51928711 104.29052734 Z " fill="#002C42" transform="translate(109.519287109375,75.70947265625)"/>
<path d="M0 0 C2.30547389 3.45821083 2.24850744 4.9806823 2.375 9.0625 C2.9805105 18.14515754 5.47084116 25.50928809 11.83984375 32.17578125 C19.48817219 38.63467706 27.08443587 40.66834841 36.96875 40.6015625 C40 41 40 41 42.4140625 42.859375 C44 45 44 45 43.875 47.625 C43 50 43 50 41 52 C27.620609 53.47139083 16.24994272 50.69430946 5.54296875 42.3203125 C-3.38450759 34.17450459 -8.20742919 24.41764856 -9.33984375 12.390625 C-9.57851611 3.7984199 -9.57851611 3.7984199 -7.6640625 1.15625 C-5.0783259 -0.64041205 -3.04897818 -0.38923126 0 0 Z " fill="#002C42" transform="translate(72,3)"/>
<path d="M0 0 C3.1875 0.875 3.1875 0.875 6 2 C7.15557999 5.13657425 7.31939614 7.2425388 6.01171875 10.34375 C0.03092921 20.78998079 -7.56940354 27.90904969 -19 32 C-31.57460949 35.01363918 -42.47396782 34.32315972 -53.94140625 28.31640625 C-55.95318234 27.02993842 -57.47319637 25.8331216 -59 24 C-59.42674516 21.15503228 -59.36066991 19.63647631 -57.9375 17.125 C-54.74203558 15.26956905 -52.51194289 16.13640749 -49 17 C-46.90523287 17.93404728 -44.90054542 18.95122535 -42.89453125 20.0625 C-36.85738178 23.04995541 -29.83846136 22.76210758 -23.5 20.875 C-14.40940825 17.42247561 -9.3033133 12.86962642 -4.5078125 4.390625 C-3 2 -3 2 0 0 Z " fill="#002C42" transform="translate(234,20)"/>
<path d="M0 0 C2 2 2 2 2.3125 5.9375 C2.23081662 8.43791894 2.12109418 9.77205801 0.9375 12 C-2.13215135 13.58433618 -4.61681143 13.36248449 -8 13 C-9.9375 12 -9.9375 12 -11 10 C-11.46000079 7.23999526 -11.50420748 4.75595226 -11 2 C-7.93817059 -2.04161482 -4.56939437 -1.10003939 0 0 Z " fill="#002C42" transform="translate(269,58)"/>
<path d="M0 0 C2.50041894 0.08168338 3.83455801 0.19140582 6.0625 1.375 C7.64683618 4.44465135 7.42498449 6.92931143 7.0625 10.3125 C6 12.25 6 12.25 4.0625 13.3125 C0.14244554 13.81141602 -2.05344538 13.86503414 -5.4375 11.75 C-6.9375 9.3125 -6.9375 9.3125 -6.8125 5.6875 C-5.56526038 0.87671861 -5.01226784 0.39779904 0 0 Z " fill="#002C42" transform="translate(144.9375,-0.3125)"/>
<path d="M0 0 C1.9375 1.0625 1.9375 1.0625 3 3 C3.36528977 6.4093712 3.6140629 8.88023824 1.9375 11.9375 C-1.11976176 13.6140629 -3.5906288 13.36528977 -7 13 C-8.9375 11.9375 -8.9375 11.9375 -10 10 C-10.36528977 6.5906288 -10.6140629 4.11976176 -8.9375 1.0625 C-5.88023824 -0.6140629 -3.4093712 -0.36528977 0 0 Z " fill="#002C42" transform="translate(10,80)"/>
</svg>
