<?xml version="1.0" encoding="UTF-8"?>
<svg version="1.1" xmlns="http://www.w3.org/2000/svg" width="250" height="250">
<path d="M0 0 C3.48819624 0.52011255 5.78755627 1.50903379 8.87255859 3.20678711 C9.9225 3.77977539 10.97244141 4.35276367 12.05419922 4.94311523 C13.13507812 5.54961914 14.21595703 6.15612305 15.32958984 6.78100586 C16.96831055 7.67335938 16.96831055 7.67335938 18.64013672 8.58374023 C27.9367249 13.7103246 27.9367249 13.7103246 30.14208984 16.46850586 C30.60000793 20.68135223 29.93601028 23.65642492 28.14208984 27.46850586 C28.70154297 27.56647461 29.26099609 27.66444336 29.83740234 27.76538086 C36.32110231 28.97455963 42.54636029 30.71145846 48.84521484 32.66381836 C56.15638426 34.4482981 60.52644516 32.73683999 67.07958984 29.59350586 C78.3343123 24.28060101 89.39132237 20.70090243 101.66552734 24.88256836 C103.99756255 25.72289296 106.3185018 26.58933978 108.63891602 27.46118164 C114.91009458 29.69560697 119.78849448 29.79162663 126.14208984 27.46850586 C125.660625 26.32575195 125.660625 26.32575195 125.16943359 25.15991211 C123.9441017 21.94982208 123.63472674 19.87508668 124.14208984 16.46850586 C128.68468834 12.05102131 134.56901227 9.24733088 140.07958984 6.21850586 C141.05605469 5.66420898 142.03251953 5.10991211 143.03857422 4.53881836 C143.98925781 4.01545898 144.93994141 3.49209961 145.91943359 2.95288086 C147.20708618 2.23696777 147.20708618 2.23696777 148.52075195 1.5065918 C151.73086391 0.23534321 153.72550461 -0.12988235 157.14208984 0.46850586 C159.2253418 2.85961914 159.2253418 2.85961914 161.06787109 6.16381836 C161.40369705 6.7514798 161.73952301 7.33914124 162.08552551 7.9446106 C163.12545445 9.7749698 164.13415181 11.62038235 165.14208984 13.46850586 C165.74714355 14.53552734 166.35219727 15.60254883 166.97558594 16.7019043 C168.78532533 19.90248501 170.56067228 23.12020325 172.32958984 26.34350586 C173.63658236 28.71288105 174.94597437 31.08092741 176.25537109 33.44897461 C176.74420776 34.33396385 176.74420776 34.33396385 177.24291992 35.23683167 C180.46439535 41.06401552 183.73625439 46.86210703 187.01708984 52.65600586 C187.54608887 53.59492676 188.07508789 54.53384766 188.62011719 55.5012207 C191.02346244 59.76152509 193.44813256 64.00388724 195.95068359 68.20678711 C196.37687988 68.93293213 196.80307617 69.65907715 197.2421875 70.40722656 C198.01697093 71.72448321 198.80334758 73.03503355 199.60449219 74.33642578 C202.05010564 78.52516448 203.1726514 81.6702999 202.14208984 86.46850586 C199.79247714 88.72833694 197.08921359 90.11192089 194.20458984 91.59350586 C193.03404053 92.2313501 193.03404053 92.2313501 191.83984375 92.88208008 C190.3007092 93.71918703 188.75620431 94.54650826 187.20605469 95.36303711 C184.74942437 96.67881923 182.39109814 98.13512729 180.01708984 99.59350586 C176.26999929 101.61563016 173.42511413 102.39229541 169.14208984 101.46850586 C166.70458984 98.46850586 166.70458984 98.46850586 165.14208984 95.46850586 C163.16208984 96.78850586 161.18208984 98.10850586 159.14208984 99.46850586 C159.26068359 100.31413086 159.37927734 101.15975586 159.50146484 102.03100586 C160.31890024 109.22443739 160.72493839 114.58041563 156.14208984 120.46850586 C152.69292337 124.00843987 150.0371494 125.01315148 145.14208984 125.46850586 C145.22458984 126.47913086 145.30708984 127.48975586 145.39208984 128.53100586 C145.09752497 133.17040267 144.0383667 135.87925479 141.14208984 139.46850586 C137.40791213 142.50252526 136.00518568 143.46850586 131.14208984 143.46850586 C131.13951172 144.03698242 131.13693359 144.60545898 131.13427734 145.19116211 C130.85185334 150.83022797 129.62820625 153.90648211 125.81005859 158.05834961 C122.08079386 161.21119403 119.24317818 161.70900796 114.39208984 161.59350586 C113.40724609 161.57545898 112.42240234 161.55741211 111.40771484 161.53881836 C110.66005859 161.51561523 109.91240234 161.49241211 109.14208984 161.46850586 C108.95646484 162.33475586 108.77083984 163.20100586 108.57958984 164.09350586 C106.73000165 168.43601728 104.08107995 170.91730341 100.14208984 173.46850586 C94.83023996 175.17075891 90.03980817 175.13893454 85.01708984 172.65600586 C82.00186713 171.02328153 79.07707011 169.24066522 76.14208984 167.46850586 C75.57361328 167.99959961 75.00513672 168.53069336 74.41943359 169.07788086 C66.79617202 176.05208344 61.71258214 180.25438572 50.95068359 179.85131836 C45.6523886 179.12915854 43.16300874 176.68257157 39.82958984 172.71850586 C37.77796837 168.76723487 37.44657112 165.88348435 37.14208984 161.46850586 C36.46146484 161.42725586 35.78083984 161.38600586 35.07958984 161.34350586 C30.06125736 159.84868342 26.30445775 156.49001526 23.70458984 151.96850586 C23.05221949 149.06908206 23.00430262 146.43093113 23.14208984 143.46850586 C22.25521484 143.38600586 21.36833984 143.30350586 20.45458984 143.21850586 C15.71889069 142.14627209 13.33175138 139.94532707 10.32958984 136.21850586 C8.69921678 132.44290508 8.93396952 129.56153899 9.14208984 125.46850586 C8.29646484 125.42725586 7.45083984 125.38600586 6.57958984 125.34350586 C1.9865867 124.17437779 -0.73903054 121.99061793 -3.85791016 118.46850586 C-6.87347579 112.30626305 -6.13968433 106.0375985 -4.85791016 99.46850586 C-6.83791016 98.14850586 -8.81791016 96.82850586 -10.85791016 95.46850586 C-11.37353516 96.45850586 -11.88916016 97.44850586 -12.42041016 98.46850586 C-14.85791016 101.46850586 -14.85791016 101.46850586 -18.12792969 101.84521484 C-22.19028089 101.43493811 -24.45920402 100.47212233 -27.97509766 98.44116211 C-29.07595703 97.8140332 -30.17681641 97.1869043 -31.31103516 96.54077148 C-32.44025391 95.87754883 -33.56947266 95.21432617 -34.73291016 94.53100586 C-35.89620508 93.86365046 -37.06026209 93.19762162 -38.22509766 92.53295898 C-46.61890834 87.70750768 -46.61890834 87.70750768 -47.85791016 86.46850586 C-48.7747361 79.59231125 -45.98699053 75.18626184 -42.60791016 69.34350586 C-42.06505371 68.37775635 -41.52219727 67.41200684 -40.96289062 66.41699219 C-39.27626082 63.42533075 -37.56918541 60.4461248 -35.85791016 57.46850586 C-34.86504067 55.72540456 -33.87282382 53.98193131 -32.88134766 52.23803711 C-30.93262791 48.81653557 -28.97367089 45.40112147 -27.01025391 41.98803711 C-24.72345646 38.00122936 -22.47178963 33.99631232 -20.23681641 29.98022461 C-19.62241699 28.87654541 -19.00801758 27.77286621 -18.375 26.63574219 C-17.19412939 24.51083691 -16.01587596 22.38447408 -14.84082031 20.25634766 C-13.20403358 17.31258888 -11.53557799 14.38912632 -9.85791016 11.46850586 C-9.27605957 10.41695312 -8.69420898 9.36540039 -8.09472656 8.28198242 C-7.50739746 7.27361328 -6.92006836 6.26524414 -6.31494141 5.22631836 C-5.79520752 4.31253418 -5.27547363 3.39875 -4.73999023 2.45727539 C-2.85791016 0.46850586 -2.85791016 0.46850586 0 0 Z M2.14208984 13.46850586 C-4.59917926 25.23585343 -11.3172553 37.01573514 -17.97070312 48.83300781 C-20.73334827 53.73413876 -23.51840687 58.62024665 -26.34619141 63.48413086 C-26.90435547 64.44770508 -27.46251953 65.4112793 -28.03759766 66.40405273 C-29.10379561 68.24184131 -30.17518829 70.07662869 -31.25244141 71.90795898 C-31.72681641 72.7271582 -32.20119141 73.54635742 -32.68994141 74.39038086 C-33.10993408 75.10806641 -33.52992676 75.82575195 -33.96264648 76.56518555 C-35.07072762 78.57039327 -35.07072762 78.57039327 -34.85791016 81.46850586 C-32.27881511 83.40722946 -32.27881511 83.40722946 -29.04541016 85.15600586 C-27.96646484 85.77862305 -26.88751953 86.40124023 -25.77587891 87.04272461 C-22.94994972 88.68801384 -22.94994972 88.68801384 -19.85791016 88.46850586 C-19.53218018 87.89221436 -19.2064502 87.31592285 -18.87084961 86.72216797 C-17.8794133 84.96808835 -16.88795614 83.21402052 -15.89648438 81.45996094 C-14.72999357 79.39608067 -13.56365641 77.33211356 -12.39746094 75.26806641 C-9.4307531 70.01777947 -6.4620502 64.76865417 -3.48681641 59.52319336 C3.48546327 47.22345155 10.36447738 34.87662348 17.14208984 22.46850586 C14.47383062 19.61748915 11.94831603 17.57756486 8.51708984 15.71850586 C7.74107422 15.29053711 6.96505859 14.86256836 6.16552734 14.42163086 C4.21331674 13.32646138 4.21331674 13.32646138 2.14208984 13.46850586 Z M143.51708984 17.46850586 C142.90607422 17.85006836 142.29505859 18.23163086 141.66552734 18.62475586 C140.15522248 19.5686964 138.64832856 20.51809044 137.14208984 21.46850586 C138.55203402 25.20906988 140.25081594 28.63464717 142.19677734 32.12475586 C142.80577881 33.21957275 143.41478027 34.31438965 144.04223633 35.44238281 C144.7003692 36.61784208 145.35865717 37.7932145 146.01708984 38.96850586 C146.69438066 40.18222131 147.37154404 41.39600787 148.04858398 42.60986328 C153.57451226 52.50462625 159.17878314 62.35408457 164.82714844 72.17944336 C166.85509006 75.70970342 168.87350243 79.24539171 170.89208984 82.78100586 C171.84341797 84.44583008 171.84341797 84.44583008 172.81396484 86.14428711 C173.25224609 86.9112793 173.69052734 87.67827148 174.14208984 88.46850586 C178.03341039 87.26163253 181.48730142 85.87580828 185.01708984 83.84350586 C185.79826172 83.39749023 186.57943359 82.95147461 187.38427734 82.49194336 C188.25439453 81.9853418 188.25439453 81.9853418 189.14208984 81.46850586 C188.49396779 78.36348781 187.42932911 75.88885096 185.91162109 73.10913086 C185.44546387 72.25287109 184.97930664 71.39661133 184.49902344 70.5144043 C183.98936035 69.59175781 183.47969727 68.66911133 182.95458984 67.71850586 C182.42430176 66.75203125 181.89401367 65.78555664 181.34765625 64.78979492 C176.78051559 56.51658639 172.0346366 48.35245415 167.24633789 40.20581055 C162.06110738 31.37488488 157.06312096 22.4488207 152.14208984 13.46850586 C148.80205367 13.46850586 146.26883733 15.72808437 143.51708984 17.46850586 Z M65.26708984 42.34350586 C64.17912109 42.86041992 63.09115234 43.37733398 61.97021484 43.90991211 C52.69149109 48.1460709 52.69149109 48.1460709 46.01708984 55.53100586 C45.96611809 57.6918254 45.96611809 57.6918254 47.95458984 59.65600586 C51.82375662 62.8618869 54.80368494 62.91378686 59.72412109 62.89428711 C65.29996539 62.19969622 70.27008075 60.09374823 75.44287109 57.97631836 C83.87732008 54.53841201 91.58021149 52.38444506 100.44677734 55.70678711 C104.27498166 57.59280953 107.89417072 59.5212629 111.29833984 62.10522461 C115.92781155 65.52828738 121.66006274 64.78258033 127.14208984 64.46850586 C129.84464889 64.01318341 132.48453058 63.45987637 135.14599609 62.80834961 C137.14208984 62.46850586 137.14208984 62.46850586 139.14208984 63.46850586 C140.01708984 65.78100586 140.01708984 65.78100586 140.14208984 68.46850586 C137.94483195 71.81215917 135.63363306 72.76816717 131.89208984 73.71850586 C130.65458984 73.96600586 129.41708984 74.21350586 128.14208984 74.46850586 C131.31510144 78.82346427 134.91280861 81.90441412 139.14208984 85.15600586 C139.75826172 85.64133789 140.37443359 86.12666992 141.00927734 86.62670898 C144.03280436 88.97870156 146.6678793 90.73140059 150.14208984 92.46850586 C153.11208984 89.82850586 156.08208984 87.18850586 159.14208984 84.46850586 C157.5949629 80.6006885 155.99988353 77.24697822 153.98193359 73.63647461 C153.35681885 72.51474854 152.7317041 71.39302246 152.08764648 70.23730469 C151.41837794 69.0434915 150.74902426 67.84972604 150.07958984 66.65600586 C149.40023223 65.439587 148.72111527 64.22303372 148.04223633 63.00634766 C146.07968447 59.49139127 144.11149263 55.97962845 142.14208984 52.46850586 C141.35753418 51.06906738 141.35753418 51.06906738 140.55712891 49.64135742 C138.09206077 45.24665927 135.62104586 40.85538466 133.14208984 36.46850586 C132.03414062 36.79334961 132.03414062 36.79334961 130.90380859 37.12475586 C117.55869853 40.78745443 108.6749655 39.41212479 95.88818359 34.78100586 C85.76524726 31.23428364 74.26880314 37.90803696 65.26708984 42.34350586 Z M21.14208984 36.46850586 C20.6002002 37.43953247 20.6002002 37.43953247 20.04736328 38.43017578 C18.33001373 41.50605406 16.61111102 44.58106151 14.89208984 47.65600586 C14.26544434 48.7782959 13.63879883 49.90058594 12.99316406 51.05688477 C9.87793914 56.6253395 6.74353669 62.18031208 3.54052734 67.69897461 C2.9878418 68.65328369 2.43515625 69.60759277 1.86572266 70.59082031 C0.81587835 72.39854703 -0.23930137 74.20318777 -1.30029297 76.00439453 C-2.00557129 77.22026245 -2.00557129 77.22026245 -2.72509766 78.46069336 C-3.13872559 79.16564941 -3.55235352 79.87060547 -3.97851562 80.59692383 C-5.07054141 82.57639316 -5.07054141 82.57639316 -4.85791016 85.46850586 C-2.8651584 87.38358364 -2.8651584 87.38358364 -0.35791016 89.15600586 C0.47740234 89.77862305 1.31271484 90.40124023 2.17333984 91.04272461 C2.82302734 91.51323242 3.47271484 91.98374023 4.14208984 92.46850586 C7.86412058 90.85444988 10.64635978 88.47093308 13.76708984 85.90600586 C18.26062048 82.41601203 22.01987566 80.19395682 27.82177734 80.12866211 C33.18364871 80.9139867 36.86450776 83.09006203 40.51708984 87.03100586 C41.72542318 88.84350586 42.93375651 90.65600586 44.14208984 92.46850586 C46.38082214 92.7194154 46.38082214 92.7194154 48.89208984 92.46850586 C53.46900027 92.3432014 56.27590573 92.79899778 60.14208984 95.46850586 C64.59734439 100.28499726 65.3056339 103.84951243 65.24365234 110.17163086 C65.11890028 112.9929468 64.70920189 115.70383463 64.14208984 118.46850586 C65.31771484 119.33475586 65.31771484 119.33475586 66.51708984 120.21850586 C69.88472238 123.10504803 71.01649608 124.90177691 71.37255859 129.34350586 C71.35837891 130.37475586 71.34419922 131.40600586 71.32958984 132.46850586 C71.32314453 133.49975586 71.31669922 134.53100586 71.31005859 135.59350586 C71.16658776 138.04919268 70.84669394 140.12358341 70.14208984 142.46850586 C71.25583984 143.21100586 71.25583984 143.21100586 72.39208984 143.96850586 C75.02111499 146.35852872 75.50569898 147.07577856 76.70458984 150.15600586 C79.45256642 156.17430166 85.42839444 160.41269242 91.14208984 163.46850586 C94.03863187 163.28004627 95.58264768 162.82281923 98.01708984 161.28100586 C99.35260524 159.43156412 99.35260524 159.43156412 99.39208984 156.71850586 C97.70745491 152.33845503 94.99376753 150.75460506 91.17333984 148.17944336 C89.14208984 146.46850586 89.14208984 146.46850586 88.30224609 144.39819336 C88.09517355 141.90322173 88.86206861 140.57677612 90.14208984 138.46850586 C93.14932667 138.02626515 95.32842946 137.97732491 97.97900391 139.57739258 C99.96285296 141.1321766 101.87255028 142.74356626 103.76708984 144.40600586 C105.06667693 145.52523686 106.37120682 146.63876002 107.68115234 147.74584961 C108.25043457 148.24334717 108.8197168 148.74084473 109.40625 149.25341797 C111.34073704 150.6075589 112.81809528 151.10717286 115.14208984 151.46850586 C117.42373008 151.1195742 117.42373008 151.1195742 119.14208984 149.46850586 C120.84014569 146.36160177 120.84014569 146.36160177 120.14208984 142.46850586 C117.16546575 139.01515681 113.72932797 136.26489754 110.14208984 133.46850586 C109.24748047 132.71956055 108.35287109 131.97061523 107.43115234 131.19897461 C105.35444611 129.26749089 105.35444611 129.26749089 103.14208984 129.46850586 C103.14208984 126.82850586 103.14208984 124.18850586 103.14208984 121.46850586 C106.40930286 120.53139825 108.93571592 119.81796764 112.04541016 121.49487305 C114.03103562 123.03833437 115.90567109 124.65233882 117.76708984 126.34350586 C123.16825263 131.54131575 123.16825263 131.54131575 130.14208984 133.46850586 C132.68227226 132.12785403 133.83291426 131.15310894 135.01708984 128.53100586 C135.18605 125.74316324 134.69334386 124.83092774 133.14208984 122.46850586 C130.28758017 120.01490511 127.18799883 117.87125964 124.10888672 115.71069336 C120.88772112 113.32414819 119.36564526 112.14989617 118.08349609 108.24194336 C118.14208984 105.46850586 118.14208984 105.46850586 120.14208984 103.46850586 C123.09475869 102.96294098 125.17039035 102.85699776 127.76757812 104.49145508 C129.4762498 105.90604054 131.0968164 107.37776891 132.70458984 108.90600586 C137.62403317 113.80568344 137.62403317 113.80568344 144.14208984 115.46850586 C146.95308398 113.63722476 146.95308398 113.63722476 149.14208984 111.46850586 C149.13254307 108.32284349 148.78710009 106.18389996 146.64306641 103.8059082 C144.56923471 102.01267842 142.44283315 100.32415264 140.26708984 98.65600586 C139.49059082 98.03999512 138.7140918 97.42398438 137.9140625 96.78930664 C136.3639635 95.55998441 134.80919213 94.33652777 133.24951172 93.11938477 C130.6350664 91.07132183 128.07407198 88.96270166 125.51708984 86.84350586 C123.72573366 85.38479116 121.93404024 83.92649054 120.14208984 82.46850586 C119.56217285 81.9913916 118.98225586 81.51427734 118.38476562 81.02270508 C105.35144658 69.00451568 105.35144658 69.00451568 89.23168945 64.21069336 C85.79663788 64.63450624 82.7665678 65.93663442 79.64208984 67.34350586 C68.96449099 71.83809699 57.51183224 75.3989953 46.14208984 70.84350586 C41.43295643 68.35909172 38.13718772 65.64222038 36.48193359 60.36303711 C35.1787224 53.0119138 38.18364719 48.40616984 42.14208984 42.46850586 C39.01856757 41.46384857 35.89304132 40.46557659 32.76708984 39.46850586 C31.87763672 39.18233398 30.98818359 38.89616211 30.07177734 38.60131836 C29.22099609 38.33061523 28.37021484 38.05991211 27.49365234 37.78100586 C26.70812988 37.52963867 25.92260742 37.27827148 25.11328125 37.01928711 C23.16216879 36.37880326 23.16216879 36.37880326 21.14208984 36.46850586 Z M18.76708984 95.15600586 C18.21537109 95.59106445 17.66365234 96.02612305 17.09521484 96.47436523 C15.9868262 97.35249004 14.88438809 98.23817905 13.78808594 99.13134766 C12.67672781 100.0341819 11.55423467 100.92345537 10.421875 101.79980469 C6.86919894 104.59194398 6.86919894 104.59194398 5.26708984 108.78100586 C5.22583984 109.66788086 5.18458984 110.55475586 5.14208984 111.46850586 C8.27163988 114.60944235 8.27163988 114.60944235 12.41162109 115.41772461 C16.14255894 114.1207033 18.7362911 111.80068897 21.64208984 109.21850586 C22.19767578 108.74026367 22.75326172 108.26202148 23.32568359 107.76928711 C26.73606422 104.80827428 30.10303713 101.8137318 33.14208984 98.46850586 C33.14208984 95.46520616 32.57760415 94.06993037 30.82958984 91.65600586 C26.0585166 88.29858395 22.44249409 92.17079849 18.76708984 95.15600586 Z M38.39208984 108.46850586 C36.9799035 109.66709922 35.56714335 110.86501687 34.15380859 112.06225586 C33.47108887 112.64749023 32.78836914 113.23272461 32.08496094 113.83569336 C30.39338497 115.25731438 28.67980705 116.61322741 26.91162109 117.93725586 C26.01830078 118.60756836 25.12498047 119.27788086 24.20458984 119.96850586 C23.04636719 120.81928711 23.04636719 120.81928711 21.86474609 121.68725586 C19.69753081 123.92818595 19.28451984 125.37433703 19.14208984 128.46850586 C21.14208984 131.46850586 21.14208984 131.46850586 24.14208984 133.46850586 C29.48031013 133.49695108 32.98958641 129.67609393 36.82958984 126.40600586 C38.24944177 125.21504161 39.67001448 124.02493613 41.09130859 122.83569336 C41.78015137 122.25658203 42.46899414 121.6774707 43.17871094 121.08081055 C44.88956939 119.67587282 46.6223657 118.34122068 48.41162109 117.03881836 C49.76320313 116.04495117 49.76320313 116.04495117 51.14208984 115.03100586 C51.92583984 114.47541992 52.70958984 113.91983398 53.51708984 113.34741211 C55.43998203 111.48678904 55.43998203 111.48678904 55.46240234 108.36303711 C55.35172487 105.52248104 55.35172487 105.52248104 54.01708984 103.59350586 C47.61724453 99.75359867 43.08210959 104.36747578 38.39208984 108.46850586 Z M44.89208984 132.71850586 C43.83248047 133.61762695 43.83248047 133.61762695 42.75146484 134.53491211 C40.85585834 136.154076 38.98350306 137.78804423 37.14208984 139.46850586 C36.28019043 140.19505371 36.28019043 140.19505371 35.40087891 140.9362793 C33.72265051 142.61576754 33.72265051 142.61576754 34.45458984 146.15600586 C34.68146484 147.24913086 34.90833984 148.34225586 35.14208984 149.46850586 C37.8143056 150.86112464 37.8143056 150.86112464 41.14208984 151.46850586 C44.06656185 149.80160154 44.06656185 149.80160154 47.14208984 147.46850586 C47.69268066 147.08114258 48.24327148 146.6937793 48.81054688 146.29467773 C50.52376327 145.08558133 52.20858361 143.84355762 53.89208984 142.59350586 C54.46830078 142.18487305 55.04451172 141.77624023 55.63818359 141.35522461 C59.49121305 138.47218859 61.16932441 136.18870324 62.14208984 131.46850586 C61.8998379 129.06720754 61.8998379 129.06720754 60.14208984 127.46850586 C53.00870681 125.16303986 50.00439624 128.16893469 44.89208984 132.71850586 Z M55.07958984 154.34350586 C54.20173828 155.06280273 53.32388672 155.78209961 52.41943359 156.52319336 C49.12302265 159.11261981 49.12302265 159.11261981 47.70458984 162.84350586 C47.93923128 165.66580393 47.93923128 165.66580393 50.26708984 167.90600586 C53.00333306 169.73764323 53.00333306 169.73764323 55.89208984 169.21850586 C60.64608168 166.6586641 64.74127579 163.70046057 68.14208984 159.46850586 C68.75089893 155.62780773 68.75089893 155.62780773 67.14208984 152.46850586 C62.3381616 148.7854942 59.25755551 150.88545474 55.07958984 154.34350586 Z " fill="#002A41" transform="translate(47.85791015625,69.531494140625)"/>
<path d="M0 0 C9.49405291 6.56717725 16.31896143 15.3917502 18.83984375 26.71484375 C19.67735082 40.56803446 18.96536776 51.66501727 9.69140625 62.71484375 C2.11213997 70.90173053 -6.60515593 76.04015006 -17.921875 77.05078125 C-31.03287184 77.18123893 -41.31299839 74.99427283 -51.16015625 65.71484375 C-58.65688998 58.30196611 -63.32904921 48.97257202 -63.54052734 38.34521484 C-63.50935421 24.89259005 -60.61666724 15.38238807 -51.08984375 5.5859375 C-37.40175723 -7.36289696 -16.29702429 -9.695698 0 0 Z M-44.91015625 14.96484375 C-49.98880164 20.32177108 -52.73913231 26.90045144 -53.25390625 34.26171875 C-52.83717712 45.16613099 -48.58222741 52.74651703 -40.78515625 60.02734375 C-33.03697308 66.19563708 -24.87448784 66.69631468 -15.16015625 65.71484375 C-6.84054116 63.63184027 -0.09801301 57.81724803 4.77734375 50.90234375 C7.07188738 46.98089963 7.50453756 43.30797942 7.69921875 38.81640625 C7.83984375 36.71484375 7.83984375 36.71484375 8.83984375 34.71484375 C8.08326363 25.02341273 3.74060885 17.83748978 -3.21875 11.25390625 C-16.70584935 0.56192005 -33.0429757 4.08238669 -44.91015625 14.96484375 Z " fill="#012940" transform="translate(147.16015625,6.28515625)"/>
<path d="M0 0 C1.0725 0.2475 2.145 0.495 3.25 0.75 C4.05859375 3.85546875 4.05859375 3.85546875 4.25 7.75 C2.66961102 10.22563823 1.30852124 11.98699686 -0.6875 14.0625 C-1.71403094 15.18716965 -2.73875555 16.31349052 -3.76171875 17.44140625 C-4.52621338 18.27115967 -4.52621338 18.27115967 -5.30615234 19.11767578 C-8.02178658 22.18780268 -10.34742814 25.57203084 -12.703125 28.921875 C-15.71457336 31.61148918 -17.74504857 31.84383273 -21.75 31.75 C-24.31554355 30.09617854 -26.07305139 28.72618356 -28.1875 26.625 C-28.72826172 26.13773438 -29.26902344 25.65046875 -29.82617188 25.1484375 C-32.24700338 22.84696431 -33.65856082 21.34689462 -34.171875 17.99609375 C-33.75 15.75 -33.75 15.75 -32.5625 13.9375 C-30.04227998 12.28632137 -28.7180175 12.25533042 -25.75 12.75 C-22.9375 14.75 -22.9375 14.75 -20.75 16.75 C-16.76338802 15.2097181 -14.8490317 12.69499598 -12.25 9.375 C-4.62843606 -0.3085624 -4.62843606 -0.3085624 0 0 Z " fill="#01293F" transform="translate(139.75,26.25)"/>
</svg>
