<?xml version="1.0" encoding="UTF-8"?>
<svg version="1.1" xmlns="http://www.w3.org/2000/svg" width="250" height="250">
<path d="M0 0 C4.41854291 3.11306432 8.02390999 6.75922996 9.75 11.9375 C10.49682896 18.54160179 10.2703309 23.78117529 6.3203125 29.27734375 C3.745117 31.99987631 1.16207699 33.39240853 -2.25 34.9375 C-2.91 34.9375 -3.57 34.9375 -4.25 34.9375 C-3.755 46.3225 -3.755 46.3225 -3.25 57.9375 C-0.1871875 58.4634375 -0.1871875 58.4634375 2.9375 59 C9.84407748 60.44442128 14.93839407 62.85644556 21.0078125 66.51171875 C23.82637451 68.24504196 23.82637451 68.24504196 27.75 67.9375 C29.57003562 66.66724271 29.57003562 66.66724271 31.203125 64.875 C31.821875 64.24335937 32.440625 63.61171875 33.078125 62.9609375 C34.02945313 61.95933594 34.02945313 61.95933594 35 60.9375 C35.6496875 60.26976562 36.299375 59.60203125 36.96875 58.9140625 C38.57184289 57.26381982 40.16487834 55.60498209 41.75 53.9375 C41.42 52.9475 41.09 51.9575 40.75 50.9375 C40.08524321 43.48350582 40.10566355 37.96258513 44.75 31.9375 C50.16717904 26.91669991 54.64543663 26.58252582 61.8046875 26.66015625 C67.24641289 27.17257336 70.11322111 30.092766 73.5625 34 C77.12945116 38.78990585 77.42440043 43.14889629 76.75 48.9375 C74.69761597 55.2954288 71.33359404 58.94661442 65.5 62.1875 C60.88131599 63.44714109 55.954759 63.58736608 51.34301758 62.22802734 C48.7305718 61.65753675 48.7305718 61.65753675 46.80541992 63.20092773 C46.20318604 63.83458252 45.60095215 64.4682373 44.98046875 65.12109375 C44.31982422 65.80107422 43.65917969 66.48105469 42.97851562 67.18164062 C42.30498047 67.90544922 41.63144531 68.62925781 40.9375 69.375 C40.24462891 70.09494141 39.55175781 70.81488281 38.83789062 71.55664062 C37.12771709 73.33757996 35.43304201 75.13096102 33.75 76.9375 C34.20890625 77.65292969 34.6678125 78.36835937 35.140625 79.10546875 C44.04967506 93.57331685 47.15760774 107.93912337 44.0546875 124.69140625 C39.9766341 139.20447864 31.56387328 150.19000663 18.75 157.9375 C5.09958426 165.31768198 -8.8740805 166.89209635 -23.9453125 163.04296875 C-38.58148001 158.14694581 -49.29749318 149.13785551 -56.50390625 135.578125 C-62.7971228 122.10924826 -63.6033834 105.99840175 -58.60546875 91.9609375 C-56.24508607 86.6959917 -53.36212013 81.78926032 -50.25 76.9375 C-52.62111769 74.39239625 -55.02544635 71.88129202 -57.4375 69.375 C-58.11103516 68.65119141 -58.78457031 67.92738281 -59.47851562 67.18164062 C-60.46948242 66.16166992 -60.46948242 66.16166992 -61.48046875 65.12109375 C-62.38381958 64.17061157 -62.38381958 64.17061157 -63.30541992 63.20092773 C-65.23133644 61.65773515 -65.23133644 61.65773515 -67.84960938 62.22363281 C-68.64173828 62.45920898 -69.43386719 62.69478516 -70.25 62.9375 C-76.80045665 63.65487497 -81.79681413 62.74607426 -87.25 58.9375 C-91.49052228 54.58538503 -93.3301036 50.53220218 -93.5625 44.5 C-93.41134189 39.42780555 -92.26147288 35.92103575 -88.5625 32.2734375 C-83.02113054 27.40165018 -79.73687727 26.58500597 -72.30078125 26.65625 C-66.73593585 27.16927032 -63.67991171 29.39470052 -59.875 33.5 C-57.28485407 37.3852189 -57.11380379 40.36944755 -57.125 44.9375 C-57.12113281 46.5153125 -57.12113281 46.5153125 -57.1171875 48.125 C-57.25 50.9375 -57.25 50.9375 -58.25 53.9375 C-53.3 58.8875 -48.35 63.8375 -43.25 68.9375 C-38.0013641 66.83804564 -33.17902859 64.27674656 -28.2109375 61.59375 C-24.25 59.9375 -24.25 59.9375 -13.25 57.9375 C-12.92 50.3475 -12.59 42.7575 -12.25 34.9375 C-14.23 34.2775 -16.21 33.6175 -18.25 32.9375 C-22.39513898 29.3707525 -25.90837843 25.9933751 -26.53515625 20.38671875 C-26.70702635 14.86445776 -26.5747773 10.54928786 -23.25 5.9375 C-16.44494085 -0.88364676 -9.43768397 -3.08539668 0 0 Z M-16.25 11.9375 C-17.81935594 15.07621188 -17.60201103 17.47605822 -17.25 20.9375 C-15.26216563 23.85713173 -13.8185303 25.54852978 -10.3125 26.41796875 C-6.34984094 26.69565509 -4.58588599 26.16842162 -1.25 23.875 C1.26930235 20.17477467 1.4566341 18.3343344 0.75 13.9375 C-1.04562405 11.18420979 -2.30254922 9.41122539 -5.25 7.9375 C-10.36519005 7.36914555 -12.57841583 8.37081824 -16.25 11.9375 Z M-77.9375 35.4375 C-80.82822824 37.31256696 -82.44333332 38.99330244 -84.25 41.9375 C-84.9102967 45.89928018 -84.61550574 47.38924139 -82.375 50.75 C-79.90678697 53.29080753 -78.9863048 53.8370948 -75.5 54.3125 C-71.07384215 53.80178948 -69.29151876 52.12048475 -66.25 48.9375 C-64.80151821 45.61451236 -65.14219527 44.27438978 -66.25 40.8125 C-69.18928712 36.58727477 -72.71874934 34.46656964 -77.9375 35.4375 Z M51.75 37.9375 C49.34176064 41.32408661 48.5891624 42.932265 49.25 47.0625 C51.0169099 50.4490773 52.46190784 51.99453645 55.75 53.9375 C59.71178018 54.5977967 61.20174139 54.30300574 64.5625 52.0625 C67.10330753 49.59428697 67.6495948 48.6738048 68.125 45.1875 C67.61428948 40.76134215 65.93298475 38.97901876 62.75 35.9375 C58.35241427 34.02060366 55.60907689 35.33681775 51.75 37.9375 Z M-42.13671875 82.23046875 C-51.00539698 93.59090131 -53.54228993 105.81086871 -52.25 119.9375 C-50.86713324 125.87287366 -48.44220339 130.77875298 -45.25 135.9375 C-42.86024672 133.72942387 -41.29005172 131.47232334 -39.625 128.6875 C-36.30255865 123.58755252 -32.1833786 120.3998348 -27.25 116.9375 C-25.91391692 115.94117688 -24.57971456 114.94230693 -23.25 113.9375 C-23.86875 113.256875 -24.4875 112.57625 -25.125 111.875 C-29.22074628 106.21323309 -29.62058838 101.01990357 -28.71484375 94.29296875 C-27.39840973 87.62229888 -23.74671809 83.62864333 -18.25 79.9375 C-11.51019967 77.01268099 -4.81626871 77.70302237 2 80.0625 C6.76628246 83.31223804 9.88791637 86.95095945 12.1875 92.25 C13.53467697 101.0814935 11.67377168 107.55184248 6.75 114.9375 C7.46285156 115.33839844 8.17570312 115.73929688 8.91015625 116.15234375 C17.54078736 121.27496599 22.93336293 127.15422063 27.75 135.9375 C30.26397448 133.68928853 31.55123321 131.59052641 32.875 128.5 C33.20757812 127.73816406 33.54015625 126.97632813 33.8828125 126.19140625 C37.60560792 116.51549202 37.10226892 103.81853062 33.0078125 94.35546875 C26.27039979 81.40373437 17.34081087 72.83231205 3.33203125 68.125 C-13.7858097 63.76222284 -30.12550947 69.70723633 -42.13671875 82.23046875 Z M-16.25 88.9375 C-20.04804142 92.63289165 -21.157119 95.64328292 -21.25 100.9375 C-19.60185604 105.60724122 -17.47175909 108.34687511 -13.25 110.9375 C-9.21722277 112.03734834 -7.01753416 112.20839441 -3.0625 110.8125 C1.26421137 107.92802575 3.30909639 105.55414656 4.6875 100.5 C4.76100421 96.31025996 4.06349744 94.40774616 1.75 90.9375 C-3.75040243 85.28430861 -9.68271072 84.55930715 -16.25 88.9375 Z M-32.0625 132.0078125 C-35.27599881 137.20681209 -35.27599881 137.20681209 -37.25 142.9375 C-35.8304902 147.62805411 -32.13563712 149.25015902 -28.08984375 151.54296875 C-16.35802083 157.30398771 -4.57754546 157.36090887 7.68359375 153.21484375 C12.09139497 151.37872783 16.20249895 149.16641479 19.75 145.9375 C21.12176691 141.82219927 19.85022692 140.06427613 18.02734375 136.27734375 C13.62733165 128.21738274 7.48693474 123.84640935 -1.25 120.9375 C-12.90762447 118.98143463 -24.7677842 122.23810384 -32.0625 132.0078125 Z " fill="#002C42" transform="translate(133.25,4.0625)"/>
<path d="M0 0 C4.65053551 2.19843497 7.95048878 5.24869388 10 10 C10.66769674 13.92878094 10.74460392 17.83739202 10.828125 21.81640625 C10.86712921 22.9737326 10.90613342 24.13105896 10.94631958 25.32345581 C11.06709533 29.06950902 11.159847 32.81559447 11.25 36.5625 C11.32281559 39.12315443 11.3965466 41.683783 11.47119141 44.24438477 C11.64471291 50.41712004 11.79200935 56.59010938 11.92712402 62.76379395 C11.99140904 65.61850092 12.06389697 68.47278152 12.14160156 71.32714844 C12.24981559 75.36389566 12.32103359 79.39965592 12.375 83.4375 C12.40110352 84.52683838 12.42720703 85.61617676 12.45410156 86.73852539 C12.47884119 97.62307924 8.49988837 104.39261427 1 112 C-4.59135096 117.60569681 -10.2386161 123.15666331 -15.91894531 128.67211914 C-17.88997386 130.5887663 -19.8481498 132.51779636 -21.8046875 134.44921875 C-22.41190643 135.03265549 -23.01912537 135.61609222 -23.64474487 136.21720886 C-26.76374335 139.31647468 -28.75111384 141.38698665 -29 146 C-28.40832031 145.95359375 -27.81664062 145.9071875 -27.20703125 145.859375 C-23.02110854 145.66817461 -20.6675782 145.59667151 -17 147.8125 C-12.88950806 152.30835056 -13.73558502 157.75661472 -13.77734375 163.53125 C-14.05366783 167.83608837 -14.75741741 170.34542096 -17 174 C-20.5140351 176.34269007 -21.96131667 176.25742888 -26.12036133 176.2746582 C-27.38209671 176.28419022 -28.64383209 176.29372223 -29.94380188 176.30354309 C-31.32321195 176.3032816 -32.70262204 176.30234427 -34.08203125 176.30078125 C-35.49826686 176.30466925 -36.91450131 176.30900414 -38.33073425 176.31376648 C-41.30068742 176.32122958 -44.27052173 176.32093761 -47.24047852 176.31567383 C-51.03682814 176.30989058 -54.83268807 176.32678147 -58.62895679 176.3500185 C-61.55530112 176.36479222 -64.48152866 176.36562243 -67.40790367 176.36250877 C-68.80687108 176.36302054 -70.20584527 176.36823116 -71.60477638 176.37832069 C-73.56696439 176.39073168 -75.52925138 176.38192917 -77.49145508 176.37231445 C-78.60603592 176.37294388 -79.72061676 176.3735733 -80.86897278 176.3742218 C-85.00460609 175.87992902 -88.66091242 174.64009285 -91.35546875 171.33984375 C-92.33932412 167.76815061 -92.32819 164.23709823 -92.3125 160.5625 C-92.32861328 159.81162109 -92.34472656 159.06074219 -92.36132812 158.28710938 C-92.36537079 153.6906005 -91.92486666 150.7564464 -89 147 C-85.74932796 144.64606507 -82.91045427 144.94131651 -79 145 C-79.01047363 144.08822998 -79.02094727 143.17645996 -79.03173828 142.23706055 C-79.06615067 138.80213816 -79.09105769 135.36740323 -79.10986328 131.93237305 C-79.11982183 130.45545532 -79.13339361 128.97855678 -79.15087891 127.50170898 C-79.4376744 102.62641718 -79.4376744 102.62641718 -72 94 C-67.45636605 89.49559166 -62.67468346 85.30426867 -57.828125 81.12890625 C-57.20421875 80.59136719 -56.5803125 80.05382812 -55.9375 79.5 C-55.31617188 78.97019531 -54.69484375 78.44039063 -54.0546875 77.89453125 C-51.91848437 75.92483825 -49.9628996 73.82329639 -47.9855957 71.69604492 C-43.84099752 67.30258598 -40.3381491 63.66457305 -34.07421875 62.93359375 C-29.70754392 63.07339313 -26.17981528 63.82018472 -23 67 C-22.99635437 66.39802292 -22.99270874 65.79604584 -22.98895264 65.17582703 C-22.94687752 58.86415112 -22.87735957 52.55318557 -22.79248047 46.24194336 C-22.76439639 43.89208102 -22.74311992 41.54212643 -22.72900391 39.19213867 C-22.70740015 35.79818918 -22.66065973 32.40533446 -22.609375 29.01171875 C-22.60814636 27.97480392 -22.60691772 26.9378891 -22.60565186 25.86955261 C-22.4372683 17.32847321 -20.95651287 8.75722805 -14.9375 2.3125 C-10.38437219 -1.07290753 -5.41863652 -0.94948918 0 0 Z M-8.625 9.5625 C-14.17407779 15.25760616 -13.28006254 22.62655372 -13.2734375 30.08203125 C-13.29372804 32.48242652 -13.31457885 34.88281712 -13.3359375 37.28320312 C-13.35851285 41.04862429 -13.37500212 44.81386001 -13.38085938 48.5793457 C-13.3904148 52.22641108 -13.42423 55.87265187 -13.4609375 59.51953125 C-13.45589203 60.63544144 -13.45084656 61.75135162 -13.44564819 62.90107727 C-13.63782451 78.27540154 -22.38919005 87.42630226 -32.5625 98.0625 C-33.09222412 98.63516602 -33.62194824 99.20783203 -34.16772461 99.79785156 C-37.89361492 103.58510408 -40.49957395 104.77110459 -46 105 C-46.52734375 102.52734375 -46.52734375 102.52734375 -46 99 C-42.82790876 95.02678637 -38.89367557 91.76536949 -35.13085938 88.36523438 C-30.18488058 83.96582044 -30.18488058 83.96582044 -27.96484375 77.96484375 C-27.97644531 76.98644531 -27.98804688 76.00804687 -28 75 C-29.67488528 73.26352052 -29.67488528 73.26352052 -32 72 C-37.52528965 73.12496888 -40.89988597 77.65626714 -44.625 81.5625 C-50.08403989 87.17220739 -55.53469527 92.3548686 -61.765625 97.10546875 C-66.85913893 101.42426989 -68.82293601 105.49130074 -70 112 C-70.15610913 114.70723444 -70.23626416 117.3001472 -70.1953125 120 C-70.1924826 120.7211499 -70.18965271 121.4422998 -70.18673706 122.18530273 C-70.17566696 124.45704747 -70.15058895 126.72837727 -70.125 129 C-70.1149531 130.55337967 -70.10583027 132.1067656 -70.09765625 133.66015625 C-70.07577111 137.44026062 -70.04133514 141.22006032 -70 145 C-58.98440762 145.65764731 -48.03913945 146.16207546 -37 146 C-37.01908417 145.37836975 -37.03816833 144.7567395 -37.05783081 144.11627197 C-36.88611295 137.42680326 -35.20176364 134.19014955 -30.47488403 129.53216553 C-29.70200043 128.81514465 -28.92911682 128.09812378 -28.1328125 127.359375 C-27.34228485 126.5886969 -26.5517572 125.8180188 -25.73727417 125.02398682 C-23.22035351 122.57697114 -20.67492 120.16256842 -18.125 117.75 C-15.58770527 115.31816504 -13.05706544 112.87991516 -10.53414917 110.4331665 C-8.96660662 108.91624383 -7.38990624 107.40871173 -5.80300903 105.91204834 C-1.1012798 101.40221699 2.5720811 97.67746471 3.35644531 90.93676758 C3.34709961 89.85032959 3.33775391 88.7638916 3.328125 87.64453125 C3.32369385 86.39921631 3.3192627 85.15390137 3.31469727 83.87084961 C3.29375109 82.51805667 3.27216806 81.16527347 3.25 79.8125 C3.23731897 78.40178173 3.22553646 76.99105513 3.21459961 75.58032227 C3.17155037 71.05292946 3.09108414 66.52665613 3 62 C2.98455139 61.22837524 2.96910278 60.45675049 2.95318604 59.66174316 C2.8415219 54.25314367 2.70965755 48.84524622 2.5625 43.4375 C2.53343567 42.36213486 2.53343567 42.36213486 2.50378418 41.26504517 C2.37059724 36.5082614 2.19600092 31.75462162 2 27 C1.9754071 26.30013977 1.95081421 25.60027954 1.92547607 24.87921143 C1.84932161 22.80523406 1.75347469 20.73304888 1.65234375 18.66015625 C1.59941162 17.45109619 1.54647949 16.24203613 1.49194336 14.99633789 C0.9702677 11.81890597 0.55969323 10.85485591 -2 9 C-4.9899718 7.5050141 -5.70622425 7.82513348 -8.625 9.5625 Z M-83 154 C-83 158.29 -83 162.58 -83 167 C-63.2 167 -43.4 167 -23 167 C-23 163.04 -23 159.08 -23 155 C-30.63548105 154.20823322 -38.12012977 153.86332886 -45.79296875 153.90234375 C-46.86501053 153.9037587 -47.93705231 153.90517365 -49.0415802 153.90663147 C-52.42358338 153.91217298 -55.80551726 153.92471413 -59.1875 153.9375 C-61.49804591 153.94252257 -63.80859287 153.94708415 -66.11914062 153.95117188 C-71.74611994 153.96212317 -77.37304827 153.97934655 -83 154 Z " fill="#002C42" transform="translate(229,71)"/>
<path d="M0 0 C4.97998315 2.26113206 7.25794604 5.98751472 9.15332031 10.97973633 C11.25455246 17.04749199 11.60181672 22.6328716 11.609375 29.01171875 C11.62591125 30.10595657 11.64244751 31.2001944 11.65948486 32.32759094 C11.70759856 35.78095313 11.72925462 39.23387619 11.75 42.6875 C11.77819024 45.04624562 11.80812188 47.40497111 11.83984375 49.76367188 C11.9133473 55.5090358 11.96520337 61.2542781 12 67 C12.90890991 66.26982666 12.90890991 66.26982666 13.83618164 65.52490234 C16.54494618 63.61596143 18.15265441 63.59766425 21.4375 63.625 C22.36433594 63.61726563 23.29117188 63.60953125 24.24609375 63.6015625 C31.03493169 64.58377735 35.08731974 69.92281332 39.625 74.625 C45.10734004 80.22337172 50.64957593 85.32436446 56.79296875 90.1875 C63.5532558 95.73931096 66.81702768 102.13358758 67.81466675 110.86352539 C68.10180747 114.1736106 68.11104844 117.45998789 68.09765625 120.78125 C68.0962413 121.48020386 68.09482635 122.17915771 68.09336853 122.89929199 C68.0878367 125.09957429 68.07529777 127.29974923 68.0625 129.5 C68.05747616 131.00520685 68.05291482 132.51041532 68.04882812 134.015625 C68.03788977 137.67711735 68.02067359 141.33854817 68 145 C69.39992187 144.96132813 69.39992187 144.96132813 70.828125 144.921875 C74.52851188 145.01301753 76.10098338 145.7452093 79 148 C81.67166202 151.7701154 81.33143997 156.00175852 81.3125 160.4375 C81.32861328 161.18837891 81.34472656 161.93925781 81.36132812 162.71289062 C81.36532048 167.25220199 81.07796913 170.41238893 78 174 C74.14264583 175.93614619 70.92292003 176.26533995 66.63671875 176.30639648 C65.37190674 176.32238388 64.10709473 176.33837128 62.80395508 176.35484314 C61.43180751 176.3612189 60.05965507 176.36661194 58.6875 176.37109375 C57.27172758 176.38006704 55.8559561 176.38918901 54.44018555 176.39845276 C51.47800395 176.41490889 48.51593496 176.42263715 45.55371094 176.42553711 C41.76378255 176.43092949 37.97491569 176.46865705 34.18528748 176.51428127 C31.26326651 176.54406026 28.34150155 176.55126076 25.41934204 176.55226326 C24.02229937 176.55646099 22.62525562 176.56887769 21.22836304 176.58978081 C19.27351871 176.61671514 17.31828855 176.60875952 15.36328125 176.59936523 C13.69712769 176.60697121 13.69712769 176.60697121 11.99731445 176.61473083 C8.02079682 175.79917143 6.53260051 174.1002899 4 171 C2.80332797 167.40998391 2.79461119 164.4095161 2.75 160.625 C2.72421875 159.31789062 2.6984375 158.01078125 2.671875 156.6640625 C3.0161156 152.82004252 3.65373995 151.01505381 6 148 C9.20380017 145.86413322 10.01939967 145.76867825 13.6875 145.875 C14.49574219 145.89304688 15.30398437 145.91109375 16.13671875 145.9296875 C16.75160156 145.95289063 17.36648437 145.97609375 18 146 C16.6727539 139.71965185 12.97845961 136.52259386 8.5078125 132.2578125 C7.76546356 131.53061005 7.02311462 130.80340759 6.25827026 130.0541687 C3.0930991 126.95414999 -0.09515089 123.87826873 -3.28173828 120.80029297 C-5.61019823 118.54449282 -7.92633124 116.27653877 -10.2421875 114.0078125 C-10.95897675 113.32421661 -11.67576599 112.64062073 -12.41427612 111.93630981 C-17.773482 106.68217228 -22.71350634 100.38337797 -23.12939453 92.56860352 C-23.13052246 91.59850342 -23.13165039 90.62840332 -23.1328125 89.62890625 C-23.13482666 88.51507568 -23.13684082 87.40124512 -23.13891602 86.25366211 C-23.13432373 85.03557861 -23.12973145 83.81749512 -23.125 82.5625 C-23.12234131 81.29220947 -23.11968262 80.02191895 -23.11694336 78.71313477 C-23.06198183 64.50736782 -22.67875601 50.30860371 -22.19953918 36.11149597 C-22.0576447 31.90143557 -21.94382713 27.69188128 -21.8515625 23.48046875 C-21.79802074 21.69527777 -21.74345067 19.91011711 -21.6875 18.125 C-21.67726807 17.35986084 -21.66703613 16.59472168 -21.65649414 15.80639648 C-21.40984549 9.47769941 -18.99353613 5.84766763 -14.4375 1.625 C-9.53481352 -0.69263361 -5.3242571 -0.98282071 0 0 Z M-6 8 C-9.18234105 9.75454385 -9.18234105 9.75454385 -12 12 C-13.76743301 27.41230679 -13.61499918 43.13395155 -13.94671631 58.63244629 C-13.99978622 60.9905013 -14.0607901 63.34823905 -14.12353516 65.70605469 C-14.2216656 69.48292549 -14.29149663 73.25939049 -14.34103394 77.03720093 C-14.36343764 78.45551877 -14.39443767 79.87373042 -14.43460083 81.29165649 C-14.48861271 83.27074516 -14.50666939 85.25071421 -14.5234375 87.23046875 C-14.54325684 88.34832764 -14.56307617 89.46618652 -14.58349609 90.61791992 C-13.1538916 98.90424252 -7.0072436 104.33005167 -1.109375 109.8671875 C0.42012585 111.34416718 1.94874574 112.82205958 3.4765625 114.30078125 C5.86586238 116.59712566 8.26133115 118.88568033 10.67285156 121.15869141 C13.01604096 123.37446094 15.329559 125.61799646 17.640625 127.8671875 C18.36348694 128.53418671 19.08634888 129.20118591 19.83111572 129.88839722 C24.41815199 134.40389791 25.84029439 137.63474683 26.03997803 144.09841919 C26.0201889 145.03970169 26.0201889 145.03970169 26 146 C37.03913945 146.16207546 47.98440762 145.65764731 59 145 C59.07490483 140.48343092 59.12895323 135.96720377 59.16479492 131.45019531 C59.17975744 129.91790457 59.20013497 128.38565571 59.22631836 126.85351562 C59.92208198 111.79456311 59.92208198 111.79456311 53.36328125 98.86328125 C52.35652344 98.02152344 51.34976563 97.17976563 50.3125 96.3125 C49.7750415 95.85101563 49.23758301 95.38953125 48.68383789 94.9140625 C47.13813349 93.59095992 45.56962279 92.29463772 44 91 C42.64134216 89.83856668 41.28647948 88.67266058 39.9375 87.5 C39.32261719 86.97148437 38.70773438 86.44296875 38.07421875 85.8984375 C34.38728103 82.52395213 30.96401861 78.87369951 27.515625 75.2578125 C24.63830981 72.65828313 24.63830981 72.65828313 21 72 C18.75244247 73.3516367 18.75244247 73.3516367 17 75 C16.9540574 78.87449301 17.20417008 81.0150069 19.67626953 84.07470703 C21.92318524 86.29701586 24.217691 88.44369669 26.5625 90.5625 C34.8600901 98.06415819 34.8600901 98.06415819 35.52734375 102.52734375 C35.35332031 103.34332031 35.17929688 104.15929687 35 105 C28.91545734 104.92869677 26.28644268 102.98971571 22.04931641 98.72998047 C21.37304199 98.01471191 20.69676758 97.29944336 20 96.5625 C19.29665527 95.83691895 18.59331055 95.11133789 17.86865234 94.36376953 C7.28217141 83.26905857 2.72066553 75.27349386 2.69140625 59.84765625 C2.66625132 57.43814857 2.64085322 55.02864342 2.61523438 52.61914062 C2.58648319 48.83602526 2.56245268 45.05295368 2.54370117 41.26977539 C2.52201982 37.60800945 2.48258441 33.9467473 2.44140625 30.28515625 C2.44129044 29.15892349 2.44117462 28.03269073 2.4410553 26.87232971 C2.36518989 20.83651935 2.03614269 16.28105368 -1 11 C-3.52980707 9.04499143 -3.52980707 9.04499143 -6 8 Z M12 155 C12 158.96 12 162.92 12 167 C31.8 167 51.6 167 72 167 C72 162.71 72 158.42 72 154 C65.22306581 153.9751256 58.44615871 153.9570579 51.66918945 153.94506836 C49.36775245 153.94006559 47.06631858 153.93326128 44.76489258 153.92456055 C41.44091005 153.91231619 38.11696986 153.90673097 34.79296875 153.90234375 C33.27040718 153.89460182 33.27040718 153.89460182 31.71708679 153.88670349 C25.08292884 153.88619228 18.59965761 154.31564369 12 155 Z " fill="#002C42" transform="translate(32,71)"/>
<path d="M0 0 C2.5 0.25 2.5 0.25 4.5 2.25 C4.6875 5.3125 4.6875 5.3125 4.5 8.25 C3.5 9.25 3.5 9.25 -0.0625 9.3125 C-1.196875 9.291875 -2.33125 9.27125 -3.5 9.25 C-4.125 5.875 -4.125 5.875 -4.5 2.25 C-2.5 0.25 -2.5 0.25 0 0 Z " fill="#002C42" transform="translate(152.5,226.75)"/>
<path d="M0 0 C2.5 0.25 2.5 0.25 4.5 2.25 C4.75 4.75 4.75 4.75 4.5 7.25 C2.5 9.25 2.5 9.25 -0.5625 9.4375 C-3.5 9.25 -3.5 9.25 -4.5 8.25 C-4.6875 5.3125 -4.6875 5.3125 -4.5 2.25 C-2.5 0.25 -2.5 0.25 0 0 Z " fill="#002C42" transform="translate(97.5,226.75)"/>
</svg>
