<?xml version="1.0" encoding="UTF-8"?>
<svg version="1.1" xmlns="http://www.w3.org/2000/svg" width="283" height="242">
<path d="M0 0 C8.91065699 0.18119757 14.6804166 3.06660521 20.9296875 9.30078125 C24.76252931 14.57342115 25.81289744 19.31195283 25.83190918 25.75520325 C25.83800028 26.46466667 25.84409139 27.1741301 25.85036707 27.90509242 C25.86691725 30.26477535 25.86223289 32.62391393 25.85742188 34.98364258 C25.86476694 36.68271949 25.87335444 38.38179141 25.88308716 40.08085632 C25.90526768 44.68431657 25.90823552 49.28759763 25.90633965 53.89110398 C25.90621977 57.74030217 25.91479115 61.58946264 25.92311716 65.43865031 C25.94233937 74.52398594 25.94523961 83.60922969 25.93847656 92.69458008 C25.93183886 102.05196264 25.95469194 111.40895072 25.99179029 120.76625329 C26.02253029 128.8132163 26.03384259 136.86005269 26.02995348 144.9070732 C26.02789016 149.70735829 26.03330045 154.50733645 26.05784607 159.30756569 C26.0801814 163.82463092 26.0781793 168.34105699 26.05791855 172.85812569 C26.05452029 174.51003266 26.05954629 176.16198324 26.07390213 177.81383133 C26.14632751 186.76981647 26.09723656 194.90055736 20.4375 202.375 C13.31110477 209.07491902 7.10117801 210.67376285 -2.47355652 210.64915466 C-3.47941042 210.65439134 -4.48526432 210.65962802 -5.52159864 210.66502339 C-8.89619374 210.68003972 -12.27063743 210.68072891 -15.64526367 210.68139648 C-18.0632452 210.68901693 -20.48122431 210.69744423 -22.89920044 210.70661926 C-29.47168288 210.72858415 -36.04412944 210.7373879 -42.61663985 210.74244571 C-46.72325034 210.7457054 -50.82985148 210.75222957 -54.93645668 210.7594471 C-66.31411404 210.77901136 -77.69176272 210.79541628 -89.06943798 210.79832363 C-89.79724673 210.7985112 -90.52505549 210.79869877 -91.27491905 210.79889202 C-92.75027041 210.79925827 -94.22562176 210.79962197 -95.70097312 210.79998314 C-96.7994736 210.80025735 -96.7994736 210.80025735 -97.92016602 210.80053711 C-99.02001287 210.80080793 -99.02001287 210.80080793 -100.14207885 210.80108423 C-112.01732917 210.80462425 -123.89239797 210.83163652 -135.76758536 210.869035 C-147.96967555 210.90715432 -160.17167576 210.92648138 -172.3738268 210.92678314 C-179.22085292 210.92736694 -186.06766255 210.93580845 -192.9146328 210.96478081 C-199.35709153 210.99191672 -205.79923492 210.99316865 -212.24173355 210.97712517 C-214.60316845 210.97531026 -216.96462794 210.98200507 -219.32600975 210.99794388 C-222.55668657 211.01841644 -225.7858666 211.00784418 -229.01652527 210.98973083 C-230.40931309 211.00953079 -230.40931309 211.00953079 -231.83023804 211.02973074 C-238.60063458 210.94337721 -243.93151948 209.19090901 -249.5625 205.375 C-254.85068985 199.8228396 -257.81392071 194.30935808 -257.80973816 186.54144287 C-257.81393265 185.37486145 -257.81812714 184.20828003 -257.82244873 183.00634766 C-257.81682922 181.73549316 -257.81120972 180.46463867 -257.80541992 179.15527344 C-257.80649343 177.7965689 -257.80843314 176.4378648 -257.81117249 175.0791626 C-257.81601116 171.39764534 -257.80837873 167.71624968 -257.79821944 164.03474712 C-257.78942883 160.18350554 -257.79119654 156.33226764 -257.7915802 152.48101807 C-257.7906444 146.01824917 -257.78196943 139.55552731 -257.76831055 133.09277344 C-257.75255934 125.61219469 -257.7473134 118.13166735 -257.7480461 110.65107322 C-257.74865544 103.45947539 -257.74356032 96.26789436 -257.73525429 89.07630157 C-257.73171653 86.01251342 -257.72989035 82.9487312 -257.72936058 79.8849411 C-257.7283594 76.28328812 -257.72228131 72.68167863 -257.71219444 69.08003998 C-257.70785967 67.12054388 -257.70844263 65.16103886 -257.70913696 63.20153809 C-257.70487198 62.04623596 -257.70060699 60.89093384 -257.69621277 59.70062256 C-257.69453692 58.69037899 -257.69286108 57.68013542 -257.69113445 56.63927841 C-257.5625 54.375 -257.5625 54.375 -256.5625 53.375 C-253.625 53.1875 -253.625 53.1875 -250.5625 53.375 C-247.96115677 55.97634323 -248.31218713 57.03331811 -248.3109436 60.65556335 C-248.30556076 61.77569321 -248.30017792 62.89582306 -248.29463196 64.04989624 C-248.30081795 65.90211288 -248.30081795 65.90211288 -248.30712891 67.79174805 C-248.30157126 69.78123987 -248.29600928 71.77073168 -248.29028487 73.76022303 C-248.28593859 75.90308199 -248.28641642 78.04589469 -248.28810501 80.18875694 C-248.29093473 84.6561621 -248.27659752 89.12340865 -248.25912476 93.59077454 C-248.21206966 106.29576211 -248.18816683 119.00073975 -248.18164062 131.70581055 C-248.17788566 138.71972718 -248.15981803 145.73346515 -248.12654626 152.74730521 C-248.10635851 157.18452635 -248.10394941 161.62128579 -248.11482644 166.05853403 C-248.11805461 169.47621819 -248.09532292 172.8936464 -248.07666016 176.3112793 C-248.08483261 177.53596924 -248.09300507 178.76065918 -248.10142517 180.02246094 C-248.03701714 186.65013274 -247.83886276 191.15966476 -243.5625 196.375 C-237.84403126 200.4372359 -233.52846321 200.95049941 -226.61853027 200.88293457 C-225.63335214 200.88917453 -224.64817401 200.8954145 -223.63314199 200.90184355 C-220.34046915 200.91776548 -217.04853738 200.905172 -213.75585938 200.89257812 C-211.39182606 200.89799957 -209.02779612 200.90512236 -206.66377258 200.91381836 C-200.24854814 200.93205169 -193.83358106 200.92498392 -187.41835213 200.91230202 C-183.41058504 200.90518733 -179.40283553 200.90653331 -175.39506531 200.91026306 C-174.72917274 200.91087599 -174.06328017 200.91148893 -173.37720904 200.91212043 C-172.02434288 200.91339937 -170.67147673 200.91469622 -169.31861061 200.9160108 C-156.64107592 200.92740936 -143.96365703 200.9143143 -131.28614134 200.89280933 C-120.414824 200.87493896 -109.54367753 200.87804328 -98.67236328 200.89648438 C-86.03933669 200.91790393 -73.40641153 200.92631079 -60.77336931 200.91403532 C-59.42555779 200.91276116 -58.07774625 200.91150368 -56.72993469 200.91026306 C-56.06683402 200.90964596 -55.40373334 200.90902886 -54.72053871 200.90839306 C-50.05394525 200.90494339 -45.38745167 200.91095617 -40.72087097 200.92018127 C-34.43677747 200.93173621 -28.15300663 200.92372 -21.86894798 200.90060425 C-19.56270572 200.89531533 -17.25643631 200.89683401 -14.95020485 200.90565491 C-11.80192659 200.91658625 -8.65468213 200.90287485 -5.50646973 200.88293457 C-4.59391592 200.89185746 -3.6813621 200.90078034 -2.74115515 200.90997362 C3.15640503 200.83752512 6.59609121 199.79522042 11.4375 196.375 C17.15291586 189.85577673 16.00040299 181.47080638 15.95507812 173.26953125 C15.96050269 171.6246987 15.96762723 169.97987102 15.97631836 168.33505249 C15.99451495 163.88047185 15.98749941 159.42626281 15.97480202 154.97167587 C15.96465532 150.3037798 15.97407233 145.63591494 15.98034668 140.96801758 C15.98761822 133.12998763 15.97804833 125.29210858 15.95898438 117.45410156 C15.93721657 108.40002633 15.94426829 99.34631142 15.96629 90.29224491 C15.98445805 82.51028649 15.98699545 74.72843637 15.97653532 66.94646358 C15.97030811 62.30227187 15.96944346 57.65824936 15.98268127 53.0140686 C15.99425964 48.64725553 15.98617798 44.28090578 15.96310425 39.91414261 C15.95782773 38.31420281 15.95931283 36.71422384 15.96815491 35.11429977 C16.24151625 24.02496755 16.24151625 24.02496755 11.4375 14.375 C7.07445465 10.73134329 1.86054087 9.89938861 -3.6796875 9.6484375 C-5.5625 9.375 -5.5625 9.375 -7.5625 7.375 C-7.8125 4.875 -7.8125 4.875 -7.5625 2.375 C-4.93695368 -0.25054632 -3.65975736 0.0467402 0 0 Z " fill="#002C42" transform="translate(257.5625,31.625)"/>
<path d="M0 0 C-0.33 2.31 -0.66 4.62 -1 7 C-4.63774094 7.92233503 -7.12075551 7.96981112 -10.75 7.0625 C-23.66454353 4.28558784 -36.79952813 6.92601776 -48 14 C-49.96452454 15.54824982 -51.81594678 17.13685306 -53.625 18.86328125 C-55 20 -55 20 -57 20 C-57.27070312 20.57492188 -57.54140625 21.14984375 -57.8203125 21.7421875 C-59.01465189 24.02804236 -60.37989305 26.02565294 -61.875 28.125 C-69.45056763 39.50682844 -72.41127715 52.6085444 -70.0625 66.125 C-67.29417731 79.87483665 -59.70798698 90.89457955 -48.16577148 98.79492188 C-37.26687384 106.00070351 -24.861982 108.61609253 -11.97265625 106.50390625 C1.82156721 103.3615928 13.6457913 96.68248955 21.43359375 84.6484375 C29.95393826 70.24246849 30.73128013 56.28339149 29 40 C32 38 32 38 34.5625 38.125 C37 39 37 39 38.25 40.625 C42.74161199 54.84843796 40.05345106 71.01865352 33.875 84.25 C30.42225493 90.74757089 26.25629082 95.88628488 21 101 C20.48308594 101.54914063 19.96617187 102.09828125 19.43359375 102.6640625 C15.55900704 106.44760148 10.90280077 108.80083361 6.125 111.25 C5.13487915 111.76264404 5.13487915 111.76264404 4.12475586 112.28564453 C-8.74682503 118.61810264 -25.49310334 119.20510863 -39.171875 115.09765625 C-49.30310053 111.16550933 -57.38574246 105.71151995 -65 98 C-65.84304687 97.18982422 -65.84304687 97.18982422 -66.703125 96.36328125 C-76.77630886 85.83945496 -80.94492302 70.69254018 -81.375 56.5 C-80.85712989 39.41028638 -74.86606616 24.66666133 -62.8203125 12.625 C-48.33943516 -0.85304649 -18.70738185 -12.4715879 0 0 Z " fill="#002C42" transform="translate(162,75)"/>
<path d="M0 0 C5.37628043 0.78917878 7.73504771 3.71081956 11.40625 7.5 C12.53740234 8.61761719 12.53740234 8.61761719 13.69140625 9.7578125 C19.28873286 15.58219116 19.28873286 15.58219116 19.796875 19.55078125 C19.36773698 22.79077329 18.87990274 23.80604786 16.65625 26.125 C16.02074219 26.79660156 15.38523437 27.46820313 14.73046875 28.16015625 C13.96347656 28.93230469 13.19648438 29.70445313 12.40625 30.5 C11.45420053 31.47764401 10.50239221 32.4555229 9.55078125 33.43359375 C4.61292223 38.46797878 -0.39217451 43.3525111 -5.7890625 47.8984375 C-7.75147435 49.63997182 -9.49684702 51.51524615 -11.28125 53.4375 C-14.21428571 56.42410714 -14.21428571 56.42410714 -17.40625 57.0625 C-19.59375 56.5 -19.59375 56.5 -21.59375 54.5 C-22.11523438 52.30200195 -22.11523438 52.30200195 -21.59375 49.5 C-19.74791236 46.95183565 -17.51589307 44.84167996 -15.25 42.66796875 C-14.6063147 42.03135818 -13.96262939 41.39474762 -13.29943848 40.73884583 C-11.24231535 38.70969476 -9.16848991 36.69861967 -7.09375 34.6875 C-5.69547825 33.31430718 -4.29832828 31.93997107 -2.90234375 30.56445312 C0.52098192 27.19623447 3.95939012 23.84412424 7.40625 20.5 C6.28500973 17.47265126 4.77916643 15.84298741 2.3203125 13.85546875 C1.35867187 13.07816406 0.39703125 12.30085938 -0.59375 11.5 C-1.5952005 12.50811234 -1.5952005 12.50811234 -2.61688232 13.53659058 C-8.90889879 19.86914784 -15.20618763 26.19641953 -21.50867844 32.51855278 C-24.74869065 35.76900281 -27.98681583 39.02128732 -31.22070312 42.27783203 C-34.34155742 45.42041454 -37.46726979 48.55808843 -40.59641266 51.69241714 C-41.78946552 52.88916578 -42.98075645 54.08767357 -44.17024994 55.28796005 C-45.83641069 56.96863522 -47.50872245 58.64295039 -49.18261719 60.31591797 C-49.67317596 60.8136673 -50.16373474 61.31141663 -50.66915894 61.82424927 C-54.0695416 65.20430247 -56.54380356 67.40889127 -61.40625 67.625 C-66.17670815 65.94130889 -68.56828129 62.42952889 -71.59375 58.5 C-75.36584098 60.84707883 -78.05292965 62.86807662 -80.59375 66.5 C-80.09746094 66.9846875 -79.60117188 67.469375 -79.08984375 67.96875 C-78.41050781 68.6390625 -77.73117188 69.309375 -77.03125 70 C-76.29519531 70.721875 -75.55914062 71.44375 -74.80078125 72.1875 C-72.17867794 74.93490736 -69.97249133 77.9051802 -67.8203125 81.03125 C-64.65403364 83.11988307 -62.16885732 83.44188574 -58.39794922 83.30615234 C-52.37527284 81.57475086 -48.40674477 76.1020618 -44.34375 71.5625 C-42.91354271 69.99356646 -41.47634449 68.43291997 -40.02276611 66.88560486 C-38.70984418 65.48404837 -37.42201255 64.05911174 -36.13574219 62.63305664 C-33.19391486 60.16448717 -31.40853572 59.59248568 -27.59375 59.5 C-25.59375 61.5 -25.59375 61.5 -25.13134766 64.2487793 C-25.74979354 68.59716572 -27.93259563 70.61745903 -30.9921875 73.51953125 C-31.54234528 74.06357101 -32.09250305 74.60761078 -32.65933228 75.1681366 C-34.41554389 76.89746472 -36.19176856 78.60454856 -37.96875 80.3125 C-39.15756325 81.47978382 -40.34507922 82.64839043 -41.53125 83.81835938 C-48.56918273 90.7199299 -52.28442528 93.91558294 -62.42163086 94.0234375 C-66.84858345 93.91218008 -69.69823654 93.51292262 -73.15625 90.5 C-74.34490881 89.20470002 -75.49201948 87.8700006 -76.59375 86.5 C-77.16996094 85.86320312 -77.74617188 85.22640625 -78.33984375 84.5703125 C-79.51227305 83.26993435 -80.66095501 81.94775984 -81.78515625 80.60546875 C-83.07490413 79.1040128 -84.4237147 77.65246991 -85.80859375 76.23828125 C-91.40464317 70.44553413 -91.40464317 70.44553413 -92.34375 65.75 C-90.89069649 59.45343477 -86.23788853 56.17122693 -81.49609375 52.1484375 C-79.59412534 50.55667305 -79.59412534 50.55667305 -78.03125 48.83984375 C-75.76263536 46.72534695 -73.61802332 46.68515959 -70.59375 46.5 C-65.98216197 48.2667184 -63.62063414 51.78518765 -60.59375 55.5 C-55.62065432 51.33552483 -50.96438616 46.99440199 -46.41015625 42.37890625 C-45.75095688 41.71592026 -45.09175751 41.05293427 -44.4125824 40.36985779 C-41.62365654 37.56475934 -38.8407649 34.75370319 -36.05737305 31.94311523 C-34.01042167 29.87792822 -31.96035694 27.81586679 -29.91015625 25.75390625 C-29.29531876 25.13077042 -28.68048126 24.50763458 -28.04701233 23.86561584 C-24.29514906 20.09300885 -20.42068703 16.53285556 -16.3737793 13.07797241 C-12.77110944 9.88425327 -9.63121875 6.22487263 -6.40234375 2.66015625 C-3.59375 0.5 -3.59375 0.5 0 0 Z " fill="#002C42" transform="translate(197.59375,57.5)"/>
<path d="M0 0 C0.91458481 -0.0115361 1.82916962 -0.0230722 2.77146912 -0.03495789 C5.79370867 -0.06922816 8.81574365 -0.08776525 11.83813477 -0.10327148 C13.39373454 -0.11362584 13.39373454 -0.11362584 14.98076057 -0.12418938 C20.47578199 -0.16001824 25.97070095 -0.18355617 31.46582031 -0.19726562 C37.11135134 -0.21375853 42.75561763 -0.27210454 48.40072536 -0.34040928 C52.76683791 -0.38544279 57.13265478 -0.39877881 61.49897957 -0.40388298 C63.57801129 -0.41172539 65.65703607 -0.43121218 67.73583794 -0.46310616 C80.68554805 -0.64858391 89.79527213 0.26512785 100.84204102 7.33813477 C102.59008518 8.3202538 104.34187658 9.29578298 106.09985352 10.26000977 C107.72420323 11.19934744 109.34658958 12.14208805 110.96704102 13.08813477 C118.26440923 17.30063913 125.58846367 21.45683403 132.96704102 25.52563477 C133.81411621 25.99517578 134.66119141 26.4647168 135.53393555 26.94848633 C136.71125244 27.59575684 136.71125244 27.59575684 137.91235352 28.25610352 C138.60087402 28.63532959 139.28939453 29.01455566 139.9987793 29.40527344 C143.59315956 31.22436311 146.59876671 31.50209271 150.56860352 31.61938477 C151.68235352 31.65676758 152.79610352 31.69415039 153.94360352 31.73266602 C156.30036737 31.80321216 158.65713827 31.87352312 161.01391602 31.94360352 C162.68067383 31.99967773 162.68067383 31.99967773 164.38110352 32.05688477 C165.40413574 32.08717773 166.42716797 32.1174707 167.48120117 32.14868164 C169.84204102 32.33813477 169.84204102 32.33813477 170.84204102 33.33813477 C170.88297039 35.6711091 170.88445825 38.00518701 170.84204102 40.33813477 C166.47454668 42.52188193 160.63760168 41.61281489 155.84204102 41.65063477 C154.64708008 41.67963867 153.45211914 41.70864258 152.22094727 41.73852539 C139.87104831 41.8264491 131.63055748 37.47893827 121.15454102 31.40063477 C119.14682771 30.25072198 117.13901196 29.10098803 115.13110352 27.95141602 C114.10404297 27.36054199 113.07698242 26.76966797 112.01879883 26.16088867 C106.70350105 23.11108747 101.36578551 20.10108192 96.02954102 17.08813477 C95.03929932 16.52747314 94.04905762 15.96681152 93.02880859 15.38916016 C92.11510498 14.87216553 91.20140137 14.3551709 90.26000977 13.82250977 C89.45329834 13.36585937 88.64658691 12.90920898 87.81542969 12.4387207 C83.64473009 10.11266432 80.16774933 10.17649266 75.46435547 10.16113281 C74.59748611 10.15456161 73.73061676 10.14799042 72.83747864 10.14122009 C69.96009235 10.12146236 67.08275836 10.10981765 64.20532227 10.09985352 C62.73178315 10.09374022 62.73178315 10.09374022 61.22847557 10.08750343 C56.02683089 10.06662996 50.82521268 10.05233501 45.62353516 10.04296875 C40.25449094 10.03191487 34.88586237 9.99753029 29.51696491 9.95779705 C25.3861973 9.93162651 21.25552851 9.9232764 17.12468529 9.91968727 C15.14597969 9.91482074 13.16727852 9.90320485 11.18865395 9.88464928 C8.41433653 9.86025363 5.64109148 9.86122389 2.86669922 9.86816406 C2.05344177 9.855354 1.24018433 9.84254395 0.40228271 9.8293457 C-5.24285728 9.88065264 -8.51314604 11.08981774 -13.15795898 14.33813477 C-17.91424848 20.27987362 -17.73123701 25.88663719 -17.69702148 33.29125977 C-17.70881439 34.42843445 -17.7206073 35.56560913 -17.73275757 36.73724365 C-17.76794776 40.35434802 -17.77718369 43.97087332 -17.78295898 47.58813477 C-17.79929054 51.21950512 -17.82127606 54.85061725 -17.85458374 58.48187256 C-17.87424795 60.73770476 -17.88354496 62.99365577 -17.88150024 65.24957275 C-17.88845917 66.26783142 -17.89541809 67.28609009 -17.90258789 68.33520508 C-17.90384674 69.23120422 -17.90510559 70.12720337 -17.90640259 71.050354 C-18.15795898 73.33813477 -18.15795898 73.33813477 -20.15795898 76.33813477 C-23.22045898 76.58813477 -23.22045898 76.58813477 -26.15795898 76.33813477 C-27.85475117 74.64134258 -27.3203397 72.47484501 -27.35083008 70.15087891 C-27.36689301 69.04204849 -27.38295593 67.93321808 -27.39950562 66.79078674 C-27.44394491 61.68020414 -27.48551991 56.56971264 -27.50805664 51.45898438 C-27.52132205 48.76917953 -27.54902649 46.08014675 -27.59008789 43.390625 C-27.64511052 39.50961575 -27.66677735 35.62963891 -27.68139648 31.74829102 C-27.70406586 30.5562355 -27.72673523 29.36417999 -27.75009155 28.13600159 C-27.7310576 20.54121987 -26.63055506 14.61650065 -22.15795898 8.33813477 C-15.34087168 1.88351589 -9.20244725 0.04084358 0 0 Z " fill="#002C42" transform="translate(27.157958984375,-0.338134765625)"/>
<path d="M0 0 C3.6683953 1.57216941 4.23278665 3.74355542 5.73046875 7.3125 C12.29002102 27.93641981 9.74051842 50.16450586 0.03662109 69.26977539 C-10.36156163 88.41776316 -27.86423957 100.58426412 -48.375 107.125 C-68.51508825 112.24626091 -90.04211097 108.67644936 -108.125 98.6875 C-110.93989597 96.81090269 -111.3128032 96.30122427 -112.5 92.9375 C-112.375 90.125 -112.375 90.125 -110.375 88.125 C-105.23282465 87.49519466 -102.20173546 88.96601928 -97.75 91.4375 C-82.90996463 99.18714499 -64.42287879 101.17929181 -48.19921875 96.2265625 C-29.16259101 88.80148778 -14.82028978 76.91832136 -6.22070312 58.13525391 C0.34737261 42.52280137 0.26207195 26.63238533 -4.59765625 10.61328125 C-5.40642942 6.98396244 -5.3939407 4.68329029 -4.375 1.125 C-2.375 0.125 -2.375 0.125 0 0 Z " fill="#002C42" transform="translate(209.375,99.875)"/>
<path d="M0 0 C2.5625 2.36328125 2.5625 2.36328125 5 5.3125 C8.3804463 9.37011903 11.56381023 12.14546312 16 15 C17.42662219 17.85324437 17.31033868 19.83454549 17 23 C14.41173945 27.20592339 10.62264887 30.11863721 6.8984375 33.2890625 C4.64203499 35.32261044 2.84186563 37.59140649 1 40 C-1.88861709 41.44430855 -3.79647701 41.37688506 -7 41 C-9.47905526 38.95477941 -11.40258989 36.72926357 -13.43359375 34.25 C-13.92988281 33.651875 -14.42617187 33.05375 -14.9375 32.4375 C-15.43507812 31.83679687 -15.93265625 31.23609375 -16.4453125 30.6171875 C-18.12052864 28.72768853 -18.12052864 28.72768853 -21.3125 27.0625 C-24.16803817 24.87104047 -24.5258202 24.40835256 -25.1875 21.0625 C-25.36234602 17.69046953 -25.10867302 17.14160424 -22.9375 14.3125 C-21.968125 13.549375 -20.99875 12.78625 -20 12 C-16.57789467 9.29083328 -13.75840586 6.84908069 -11.3125 3.25 C-7.94497198 -1.48274208 -5.37614004 -1.53892009 0 0 Z M-5 11 C-6.54166642 12.37485532 -6.54166642 12.37485532 -8 14 C-8 14.66 -8 15.32 -8 16 C-8.639375 16.268125 -9.27875 16.53625 -9.9375 16.8125 C-12.33131686 17.88667752 -12.33131686 17.88667752 -13 21 C-11.576875 22.1446875 -11.576875 22.1446875 -10.125 23.3125 C-7.83390105 25.15534046 -6.68775056 26.46837417 -5 29 C-2.00779732 27.63629701 0.29026529 26.05091917 2.75 23.875 C3.36359375 23.33617187 3.9771875 22.79734375 4.609375 22.2421875 C5.06828125 21.83226562 5.5271875 21.42234375 6 21 C2.50640535 17.40365256 -1.11098131 14.16548033 -5 11 Z " fill="#002C42" transform="translate(228,7)"/>
<path d="M0 0 C2.5625 2.1875 2.5625 2.1875 5 5 C8.38395016 8.47646957 8.38395016 8.47646957 12.09375 11.58984375 C12.8259375 12.15832031 13.558125 12.72679687 14.3125 13.3125 C15.00988281 13.82425781 15.70726562 14.33601562 16.42578125 14.86328125 C18.37351613 17.50698095 18.6803681 19.69455664 18.52270508 22.95581055 C17.53640737 26.8130131 14.69107398 28.83692675 11.6875 31.25 C10.50144347 32.25230129 9.31777597 33.25743761 8.13671875 34.265625 C7.58177734 34.73154053 7.02683594 35.19745605 6.45507812 35.67749023 C4.70100805 37.27175157 3.40905036 39.10236252 2 41 C-1.3412652 42.089543 -3.19477705 42.30195861 -6.5 41.0625 C-9.38084098 38.68580619 -11.18556214 36.08780242 -13.30859375 33.0390625 C-15.14174077 30.82912545 -16.95710403 29.58914331 -19.375 28.0625 C-21.64104838 26.44201192 -22.79495883 25.49862284 -23.859375 22.91015625 C-24.17888997 20.1613878 -24.03891848 18.5775699 -23 16 C-20.6839987 13.65358217 -18.24303372 11.82597076 -15.55078125 9.92578125 C-12.14454721 7.35415279 -10.31736124 4.54845939 -8 1 C-5.11138291 -0.44430855 -3.20352299 -0.37688506 0 0 Z M-5.9453125 13.75 C-7.02425781 14.86375 -7.02425781 14.86375 -8.125 16 C-8.84945312 16.7425 -9.57390625 17.485 -10.3203125 18.25 C-10.87460938 18.8275 -11.42890625 19.405 -12 20 C-11.278125 20.721875 -10.55625 21.44375 -9.8125 22.1875 C-7.20833333 24.79166667 -4.60416667 27.39583333 -2 30 C0.97 27.03 3.94 24.06 7 21 C6.2575 20.2575 5.515 19.515 4.75 18.75 C3.08320313 17.08320313 1.43237213 15.39993625 -0.1875 13.6875 C-2.73972252 11.31129283 -3.3650663 11.42881466 -5.9453125 13.75 Z " fill="#002C42" transform="translate(240,174)"/>
<path d="M0 0 C1.69497746 5.36742863 0.15817426 8.48285425 -1.94140625 13.38671875 C-7.65476512 27.49091464 -6.29889825 44.94715516 -1 59 C1.95475463 65.87415942 5.43427347 72.56710572 10.5 78.125 C13 81 13 81 13.5 83.8125 C13 86 13 86 11 88 C8.1171875 88.375 8.1171875 88.375 5 88 C-5.7106856 79.52919162 -13.41810755 60.11927127 -15 47 C-16.28138326 30.29339367 -15.18283775 15.27059993 -8 0 C-5.13822943 -1.43088528 -3.06624227 -0.59991697 0 0 Z " fill="#002C42" transform="translate(80,97)"/>
<path d="M0 0 C2.16287776 2.14588068 4.07491887 4.39059342 5.97265625 6.7734375 C8.1201464 9.1319527 10.2550299 10.41689751 13 12 C14.71113104 15.42226209 14.66762826 17.17631085 14 21 C11.68733681 23.57206837 9.20529501 25.71320663 6.53515625 27.91015625 C4.54068599 29.55428813 2.92019804 31.11669172 1.25 33.0625 C-1 35 -1 35 -4.0625 35.5625 C-8.84586017 34.64653741 -10.45934335 31.66542357 -13.4375 28 C-15.83628004 24.95583989 -15.83628004 24.95583989 -18.75 23 C-21 21 -21 21 -21.9375 18 C-22.00619565 14.70260902 -22.00258643 13.58667414 -20 11 C-18.25916327 9.70827348 -16.473147 8.50268518 -14.671875 7.296875 C-12.43827514 5.5642695 -11.38215923 3.43523292 -10 1 C-6.5815393 -1.59331502 -3.96197269 -1.44764387 0 0 Z M-5 11 C-6.70884005 12.62339805 -8.37446717 14.29319053 -10 16 C-10.22988506 18.36278736 -10.22988506 18.36278736 -7.5 20.625 C-6.675 21.40875 -5.85 22.1925 -5 23 C-1.63408134 21.55746343 0.51047079 19.66735273 3 17 C0.36 15.02 -2.28 13.04 -5 11 Z " fill="#002C42" transform="translate(89,55)"/>
<path d="M0 0 C1 1 1 1 1.25 3.9375 C1.1675 4.948125 1.085 5.95875 1 7 C-2 9 -2 9 -4.625 8.8125 C-8.09267225 7.97769001 -11.39688883 6.91554765 -14.75390625 5.71875 C-27.2011639 1.73562755 -45.18953388 2.09476694 -57 8 C-60 8.1875 -60 8.1875 -63 8 C-65 6 -65 6 -65.375 3.5625 C-65 1 -65 1 -63.3984375 -0.52734375 C-45.86470918 -11.29316716 -17.83080108 -8.97604952 0 0 Z " fill="#002C42" transform="translate(174,61)"/>
</svg>
