<?xml version="1.0" encoding="UTF-8"?>
<svg version="1.1" xmlns="http://www.w3.org/2000/svg" width="167" height="167">
<path d="M0 0 C7.36546546 4.32721096 12.0435357 9.88195889 14.45703125 18.078125 C15.882777 24.98033339 15.08228385 31.82738097 11.875 38.1015625 C7.25188708 44.98634217 2.04770801 49.32078485 -6.125 51.1015625 C-15.48735943 52.26420844 -22.04545194 50.33400217 -29.875 45.3515625 C-36.54264586 38.68391664 -38.40631218 32.1617649 -38.44628906 22.87158203 C-38.34735173 17.32975448 -37.32252295 13.56918167 -34.125 9.1015625 C-33.2896875 7.77125 -33.2896875 7.77125 -32.4375 6.4140625 C-24.05935617 -1.96408133 -10.99060698 -4.89997895 0 0 Z M-21.125 12.1015625 C-23.54916001 14.42226215 -23.54916001 14.42226215 -25.125 17.1015625 C-25.5375 17.7203125 -25.95 18.3390625 -26.375 18.9765625 C-27.69605223 22.71954382 -27.8218928 26.208865 -26.4375 29.96875 C-24.18512147 34.3421183 -21.57332673 36.83378809 -17.125 39.1015625 C-11.48265002 40.64038522 -8.21097277 39.92710293 -3.125 37.1015625 C0.46158838 33.98278999 2.55167381 31.88428787 3.11328125 27.05078125 C3.29501793 21.51259492 2.62013006 18.45401095 -1.125 14.1015625 C-7.16413814 8.06242436 -13.96749907 8.03161099 -21.125 12.1015625 Z " fill="#002C42" transform="translate(137.125,11.8984375)"/>
<path d="M0 0 C6.66764586 6.66764586 8.53131218 13.1897976 8.57128906 22.47998047 C8.47258869 28.00853521 7.46054022 31.799527 4.25 36.25 C3.63125 37.1575 3.0125 38.065 2.375 39 C-3.31062333 45.02007176 -9.37652686 47.31335781 -17.5 47.625 C-26.05052257 47.42393573 -32.20738022 45.29315303 -38.1875 39.0625 C-43.21420068 32.85782501 -45.37466576 26.49231237 -45.02734375 18.50390625 C-44.03220155 10.41662387 -40.77537056 4.71861147 -34.75 -0.75 C-23.62455243 -8.78633582 -11.03465323 -7.02205206 0 0 Z M-26.75 8.25 C-30.57600291 11.95767292 -32.89184189 15.19966039 -33 20.5625 C-32.90731611 26.35524307 -31.08758027 28.88131321 -27.0625 33 C-23.53757414 35.74160901 -20.19992216 36.67499257 -15.75 36.25 C-10.4316066 34.59646314 -6.78450567 31.98382885 -3.75 27.25 C-2.33201608 22.99604824 -1.82569126 19.34024175 -3.69140625 15.12109375 C-6.08739072 11.04266251 -8.24587008 8.07310021 -12.75 6.25 C-18.39590768 4.78624616 -21.69457834 5.34781349 -26.75 8.25 Z " fill="#002C42" transform="translate(59.75,15.75)"/>
<path d="M0 0 C7.01938163 4.04042455 12.43432668 10.13934868 14.625 18 C15.64353572 26.72049685 14.86358955 33.80010277 9.625 41 C4.61870005 46.54044493 -0.77670795 50.46292914 -8.3515625 51.34765625 C-17.18852445 51.75121774 -23.80425858 50.13008393 -30.44140625 44.1328125 C-36.90291893 37.19916424 -39.04156749 30.73251177 -38.78125 21.28515625 C-37.7783499 13.17516604 -33.73199565 7.39156522 -27.39453125 2.40625 C-19.22799062 -3.28031601 -9.12573835 -4.12399779 0 0 Z M-23.1875 14.125 C-26.06859686 17.91158445 -27.18718225 21.24739428 -27.375 26 C-25.89657081 31.21798536 -23.69641635 34.71196582 -19.375 38 C-14.76465608 39.89786714 -11.44995851 40.30457158 -6.625 38.9375 C-1.57655975 35.92785293 1.51445852 33.36438419 3.125 27.625 C3.93848894 22.96099676 3.07656428 20.11230138 0.625 16 C-2.68930559 11.61341907 -5.81287292 10.01228961 -11.1015625 9.08984375 C-16.07215091 8.89341156 -19.36597651 11.23762669 -23.1875 14.125 Z " fill="#002C42" transform="translate(95.375,59)"/>
<path d="M0 0 C0.74702682 -0.0066568 1.49405365 -0.0133136 2.26371765 -0.02017212 C3.8378149 -0.03025268 5.41195449 -0.03499057 6.98608398 -0.03466797 C9.36971026 -0.03903136 11.75146738 -0.07536906 14.13476562 -0.11328125 C23.5659468 -0.18515894 31.20037762 0.17643033 38.6328125 6.51953125 C39.25285156 7.26332031 39.87289062 8.00710937 40.51171875 8.7734375 C41.14980469 9.51464844 41.78789063 10.25585938 42.4453125 11.01953125 C46.79614213 17.20668226 47.21204369 23.82909374 47.13671875 31.2109375 C47.12769531 32.36335938 47.11867188 33.51578125 47.109375 34.703125 C47.09777344 35.57195312 47.08617188 36.44078125 47.07421875 37.3359375 C43.11421875 37.3359375 39.15421875 37.3359375 35.07421875 37.3359375 C35.0484375 36.32273438 35.02265625 35.30953125 34.99609375 34.265625 C34.93977694 32.91402153 34.88243042 31.56246069 34.82421875 30.2109375 C34.81003906 29.54578125 34.79585937 28.880625 34.78125 28.1953125 C34.53448876 23.16138328 33.1845664 20.25159092 30.07421875 16.3359375 C24.10892814 11.09371242 17.28921004 12.11735113 9.76171875 12.0859375 C7.92577148 12.055 7.92577148 12.055 6.05273438 12.0234375 C4.86744141 12.01828125 3.68214844 12.013125 2.4609375 12.0078125 C1.38030029 11.9984668 0.29966309 11.98912109 -0.8137207 11.97949219 C-5.7211343 12.54157141 -8.94530005 14.24945833 -12.23828125 17.8984375 C-15.02403245 21.92230034 -15.21927681 25.18059629 -15.48828125 29.9609375 C-15.53146484 30.66734375 -15.57464844 31.37375 -15.61914062 32.1015625 C-15.72522876 33.84612287 -15.82601014 35.59100447 -15.92578125 37.3359375 C-19.88578125 37.3359375 -23.84578125 37.3359375 -27.92578125 37.3359375 C-28.20466225 27.17227446 -28.41172601 17.8058183 -21.92578125 9.3359375 C-15.34774199 2.4205629 -9.60279564 0.03025624 0 0 Z " fill="#002C42" transform="translate(73.92578125,119.6640625)"/>
<path d="M0 0 C21.29571306 -1.0439075 21.29571306 -1.0439075 29.82421875 6.64453125 C37.5493629 14.93082389 37.39641997 23.06971955 37.1875 33.9375 C37.17242992 35.30271966 37.15874561 36.66795535 37.14648438 38.03320312 C37.11126164 41.35588096 37.06200041 44.67773181 37 48 C33.37 48 29.74 48 26 48 C25.96261719 46.26492187 25.92523438 44.52984375 25.88671875 42.7421875 C25.82104832 40.45310377 25.75460135 38.16404223 25.6875 35.875 C25.66494141 34.73289063 25.64238281 33.59078125 25.61914062 32.4140625 C25.41291623 24.27613236 25.41291623 24.27613236 22 17 C17.10889626 12.47572904 13.34447321 11.85698452 6.8125 11.4375 C5.54019531 11.35371094 4.26789063 11.26992187 2.95703125 11.18359375 C1.49330078 11.09271484 1.49330078 11.09271484 0 11 C0 7.37 0 3.74 0 0 Z " fill="#002C42" transform="translate(125,73)"/>
<path d="M0 0 C1.24040039 0.02030273 1.24040039 0.02030273 2.50585938 0.04101562 C4.5250264 0.07603008 6.54385318 0.12982438 8.5625 0.1875 C8.5625 3.8175 8.5625 7.4475 8.5625 11.1875 C7.62148438 11.22488281 6.68046875 11.26226562 5.7109375 11.30078125 C3.84308594 11.39939453 3.84308594 11.39939453 1.9375 11.5 C0.09285156 11.58701172 0.09285156 11.58701172 -1.7890625 11.67578125 C-6.89790213 12.39233156 -10.24462202 13.89790218 -13.75 17.6875 C-16.31082012 21.48130758 -16.59484918 24.47289838 -16.75390625 28.94921875 C-16.79580078 30.06748047 -16.83769531 31.18574219 -16.88085938 32.33789062 C-16.92017578 33.50513672 -16.95949219 34.67238281 -17 35.875 C-17.04318359 37.05384766 -17.08636719 38.23269531 -17.13085938 39.44726562 C-17.23701094 42.36053626 -17.33776629 45.2740026 -17.4375 48.1875 C-21.0675 48.1875 -24.6975 48.1875 -28.4375 48.1875 C-28.56259012 44.24081061 -28.65252442 40.29491343 -28.7121582 36.34667969 C-28.74919623 34.35570647 -28.81278228 32.36528347 -28.87695312 30.375 C-28.99114476 21.3310226 -27.98867713 14.12010309 -21.6809082 7.28369141 C-15.16228855 1.10629381 -8.68748259 -0.27301517 0 0 Z " fill="#002C42" transform="translate(33.4375,72.8125)"/>
</svg>
