<?xml version="1.0" encoding="UTF-8"?>
<svg version="1.1" xmlns="http://www.w3.org/2000/svg" width="163" height="150">
<path d="M0 0 C0.64958254 -0.00311998 1.29916509 -0.00623996 1.96843195 -0.00945449 C4.15494903 -0.01746071 6.34119059 -0.01110082 8.52770996 -0.00482178 C10.09124413 -0.00753048 11.65477703 -0.01109073 13.2183075 -0.01544189 C17.47235156 -0.02458254 21.72629895 -0.02101477 25.98034477 -0.01468372 C30.42505028 -0.00963238 34.86974731 -0.01431276 39.31445312 -0.01745605 C46.77959688 -0.02109823 54.24470111 -0.01629002 61.70983887 -0.0067749 C70.34971932 0.00411013 78.9895054 0.00058473 87.62938356 -0.01042771 C95.03747 -0.01949344 102.44552796 -0.02078938 109.85361814 -0.01555037 C114.28249885 -0.01242673 118.71133514 -0.01203211 123.14021301 -0.01862335 C127.30326586 -0.02438582 131.46619661 -0.0204202 135.62923622 -0.00883484 C137.16032521 -0.00618234 138.69142441 -0.00696334 140.22250938 -0.01136017 C142.30627621 -0.01679401 144.38964733 -0.01000833 146.47338867 0 C148.22550785 0.00113108 148.22550785 0.00113108 150.01302338 0.002285 C152.73669434 0.25396729 152.73669434 0.25396729 154.73669434 2.25396729 C154.99396324 4.47508907 154.99396324 4.47508907 155.00411987 7.29570007 C155.01691483 8.89621719 155.01691483 8.89621719 155.02996826 10.52906799 C155.0286087 12.29252815 155.0286087 12.29252815 155.02722168 14.09161377 C155.0339389 15.32579041 155.04065613 16.55996704 155.0475769 17.83154297 C155.06335306 21.2220887 155.06993384 24.61238954 155.07120848 28.0029552 C155.07310539 30.83108722 155.08046047 33.65919563 155.08755267 36.48731858 C155.10384845 43.15832624 155.10872052 49.8292799 155.1072998 56.50030518 C155.10609787 63.38730141 155.12720701 70.27398452 155.15878713 77.16090149 C155.18491684 83.06923509 155.19566851 88.9774662 155.19438899 94.88585716 C155.19387839 98.41669179 155.19961465 101.94724823 155.22074509 105.47802544 C155.24365929 109.41445085 155.23462679 113.35044492 155.22253418 117.28692627 C155.23377319 118.46054214 155.24501221 119.63415802 155.2565918 120.84333801 C155.24820282 121.91316925 155.23981384 122.98300049 155.23117065 124.08525085 C155.23226019 125.01642951 155.23334972 125.94760817 155.23447227 126.90700436 C154.73669434 129.25396729 154.73669434 129.25396729 152.82839012 131.05446434 C150.53977339 132.36689349 149.31457819 132.61998563 146.70251465 132.59454346 C145.53175385 132.59420357 145.53175385 132.59420357 144.33734131 132.59385681 C143.50490906 132.57837296 142.67247681 132.5628891 141.81481934 132.54693604 C140.95483337 132.54269119 140.09484741 132.53844635 139.20880127 132.53407288 C136.46777764 132.51730844 133.72749495 132.47966074 130.98669434 132.44146729 C129.12602789 132.42641754 127.26534989 132.41272964 125.40466309 132.40045166 C120.84838894 132.36741227 116.29266717 132.31564562 111.73669434 132.25396729 C111.7482959 133.38576416 111.75989746 134.51756104 111.77185059 135.68365479 C111.78122887 137.16542397 111.79032903 138.64719494 111.79919434 140.12896729 C111.80757324 140.87533447 111.81595215 141.62170166 111.82458496 142.39068604 C111.84997559 148.02740479 111.84997559 148.02740479 110.73669434 150.25396729 C108.04919434 150.56646729 108.04919434 150.56646729 104.73669434 150.25396729 C101.86169434 147.75396729 101.86169434 147.75396729 99.73669434 145.25396729 C96.13992948 146.47224148 96.13992948 146.47224148 93.29919434 148.87896729 C91.73669434 150.25396729 91.73669434 150.25396729 85.73669434 150.25396729 C85.73669434 144.31396729 85.73669434 138.37396729 85.73669434 132.25396729 C83.03127441 132.26967773 80.32585449 132.28538818 77.53845215 132.30157471 C68.60577545 132.35125511 59.67309268 132.38441009 50.74031448 132.4094038 C45.32366893 132.42506836 39.90716476 132.4463212 34.49060059 132.48028564 C29.26458087 132.51285069 24.03869726 132.53081435 18.81258392 132.53859901 C16.81745002 132.54414764 14.82232367 132.55498259 12.82724762 132.57115746 C10.03550542 132.59289369 7.24432768 132.59593579 4.45251465 132.59454346 C3.62532928 132.60532928 2.79814392 132.61611511 1.94589233 132.62722778 C-2.47651152 132.60331769 -5.10558115 132.43501777 -8.26330566 129.25396729 C-8.7610836 126.90700436 -8.7610836 126.90700436 -8.75778198 124.08525085 C-8.76617096 123.01541962 -8.77455994 121.94558838 -8.78320312 120.84333801 C-8.77196411 119.66972214 -8.7607251 118.49610626 -8.74914551 117.28692627 C-8.7529422 116.05099731 -8.75673889 114.81506836 -8.76065063 113.54168701 C-8.766797 110.15098013 -8.75503603 106.76124567 -8.73474455 103.37065387 C-8.71718861 99.82550315 -8.72069832 96.28036904 -8.72146606 92.73518372 C-8.71959269 86.78245224 -8.70222285 80.82992462 -8.67492676 74.8772583 C-8.64346105 67.9897319 -8.63293103 61.10242867 -8.63439786 54.21483558 C-8.63561748 47.5945325 -8.62541618 40.97430228 -8.60881424 34.35402107 C-8.60174348 31.53387954 -8.59808702 28.71376378 -8.59702682 25.89361382 C-8.59464942 21.95953314 -8.57524463 18.02563912 -8.55383301 14.09161377 C-8.55473938 12.91597366 -8.55564575 11.74033356 -8.55657959 10.52906799 C-8.54804962 9.46205658 -8.53951965 8.39504517 -8.5307312 7.29570007 C-8.52737951 6.36489844 -8.52402782 5.43409681 -8.52057457 4.47508907 C-7.9249044 -0.6676078 -4.27210756 0.00275785 0 0 Z M-1.26330566 7.25396729 C-1.26330566 45.86396729 -1.26330566 84.47396729 -1.26330566 124.25396729 C27.44669434 124.25396729 56.15669434 124.25396729 85.73669434 124.25396729 C85.73669434 122.60396729 85.73669434 120.95396729 85.73669434 119.25396729 C64.28669434 118.92396729 42.83669434 118.59396729 20.73669434 118.25396729 C19.25169434 113.79896729 19.25169434 113.79896729 17.73669434 109.25396729 C13.42617648 104.64955049 11.11132374 104.07528997 4.73669434 102.25396729 C4.73669434 78.16396729 4.73669434 54.07396729 4.73669434 29.25396729 C7.70669434 28.26396729 10.67669434 27.27396729 13.73669434 26.25396729 C18.34111113 21.94344943 18.91537165 19.62859669 20.73669434 13.25396729 C55.38669434 13.25396729 90.03669434 13.25396729 125.73669434 13.25396729 C127.22169434 17.70896729 127.22169434 17.70896729 128.73669434 22.25396729 C133.04721219 26.85838408 135.36206493 27.4326446 141.73669434 29.25396729 C141.73669434 53.34396729 141.73669434 77.43396729 141.73669434 102.25396729 C138.76669434 103.24396729 135.79669434 104.23396729 132.73669434 105.25396729 C128.47215789 109.24629928 126.95497279 112.71633793 125.73669434 118.25396729 C121.11669434 118.58396729 116.49669434 118.91396729 111.73669434 119.25396729 C111.73669434 120.90396729 111.73669434 122.55396729 111.73669434 124.25396729 C123.61669434 124.25396729 135.49669434 124.25396729 147.73669434 124.25396729 C147.73669434 85.64396729 147.73669434 47.03396729 147.73669434 7.25396729 C98.56669434 7.25396729 49.39669434 7.25396729 -1.26330566 7.25396729 Z M26.73669434 19.25396729 C24.26169434 23.70896729 24.26169434 23.70896729 21.73669434 28.25396729 C18.23762952 31.66331249 15.2747402 32.98494435 10.73669434 35.25396729 C10.73669434 55.71396729 10.73669434 76.17396729 10.73669434 97.25396729 C13.37669434 98.24396729 16.01669434 99.23396729 18.73669434 100.25396729 C22.56270664 104.07997959 24.26358101 107.30774063 26.73669434 112.25396729 C44.55669434 112.25396729 62.37669434 112.25396729 80.73669434 112.25396729 C80.40669434 110.60396729 80.07669434 108.95396729 79.73669434 107.25396729 C79.31714282 101.69490971 79.93138909 97.08261116 82.73669434 92.25396729 C86.34684452 88.31096638 89.73511376 85.49899427 95.22497559 85.05084229 C102.54483934 84.92935077 106.76185914 85.75240133 112.48669434 90.56646729 C116.87834275 95.81204734 117.04878448 100.7000743 116.73669434 107.25396729 C116.23669434 110.25396729 116.23669434 110.25396729 115.73669434 112.25396729 C118.12196763 112.38212093 118.12196763 112.38212093 120.73669434 111.25396729 C121.92153525 109.32196923 122.788412 107.32582658 123.71325684 105.25787354 C126.36155199 100.07247119 130.39870298 99.03329774 135.73669434 97.25396729 C135.73669434 76.79396729 135.73669434 56.33396729 135.73669434 35.25396729 C132.76669434 33.60396729 129.79669434 31.95396729 126.73669434 30.25396729 C123.32734913 26.75490247 122.00571727 23.79201315 119.73669434 19.25396729 C89.04669434 19.25396729 58.35669434 19.25396729 26.73669434 19.25396729 Z M88.42419434 96.44146729 C86.2390006 100.08345684 85.93550605 103.15989516 86.73669434 107.25396729 C88.36059483 110.38577537 89.73935459 112.49736472 92.54919434 114.62896729 C97.20846294 115.96018689 100.61440951 115.7935273 104.98669434 113.69146729 C108.34788796 110.71222748 109.56169427 108.58678002 110.73669434 104.25396729 C110.16032023 100.075255 109.11353824 97.76381492 106.61169434 94.37896729 C99.8550715 89.38494171 94.26665165 90.91481848 88.42419434 96.44146729 Z M92.73669434 122.25396729 C92.73669434 127.53396729 92.73669434 132.81396729 92.73669434 138.25396729 C93.72669434 137.59396729 94.71669434 136.93396729 95.73669434 136.25396729 C99.4936799 135.87826873 100.49035909 136.08974379 103.73669434 138.25396729 C103.73669434 132.97396729 103.73669434 127.69396729 103.73669434 122.25396729 C100.10669434 122.25396729 96.47669434 122.25396729 92.73669434 122.25396729 Z " fill="#002C42" transform="translate(8.2633056640625,-0.25396728515625)"/>
<path d="M0 0 C24.75 0 49.5 0 75 0 C75.495 2.475 75.495 2.475 76 5 C73.12814734 7.87185266 71.12508355 7.25381452 67.10351562 7.25878906 C66.39442551 7.2622937 65.68533539 7.26579834 64.95475769 7.26940918 C62.60515625 7.27822921 60.25585463 7.27237652 57.90625 7.265625 C56.27722109 7.26697158 54.64819257 7.26891204 53.01916504 7.27142334 C49.60274433 7.27437497 46.18642811 7.27007577 42.77001953 7.26074219 C38.38482599 7.24934758 33.99987724 7.25590686 29.61469269 7.26788712 C26.25016425 7.27510471 22.88569411 7.27281826 19.52116394 7.26763153 C17.90398632 7.26629475 16.28680345 7.26794374 14.66963196 7.27259064 C12.41177291 7.27765428 10.15431356 7.26994826 7.89648438 7.25878906 C5.96693909 7.25640228 5.96693909 7.25640228 3.99841309 7.25396729 C1 7 1 7 -1 5 C-0.67 3.35 -0.34 1.7 0 0 Z " fill="#002C42" transform="translate(44,28)"/>
<path d="M0 0 C1.40166664 -0.00956978 1.40166664 -0.00956978 2.83164978 -0.01933289 C3.84828201 -0.02044571 4.86491425 -0.02155853 5.91235352 -0.02270508 C6.94940933 -0.02603348 7.98646515 -0.02936188 9.0549469 -0.03279114 C11.25326085 -0.03786493 13.45158254 -0.04019932 15.64990234 -0.04003906 C19.02332177 -0.04222471 22.39641394 -0.06037347 25.76977539 -0.0793457 C27.90063364 -0.08227962 30.03149345 -0.08426443 32.16235352 -0.08520508 C33.17696152 -0.09239059 34.19156952 -0.09957611 35.23692322 -0.10697937 C36.17451981 -0.10390274 37.11211639 -0.10082611 38.078125 -0.09765625 C38.90561752 -0.09908127 39.73311005 -0.10050629 40.5856781 -0.10197449 C42.60375977 0.14526367 42.60375977 0.14526367 44.60375977 2.14526367 C44.04820421 6.70081923 44.04820421 6.70081923 42.60375977 8.14526367 C41.14119799 8.24867618 39.67371712 8.28376689 38.20751953 8.29052734 C36.80585289 8.30009712 36.80585289 8.30009712 35.37586975 8.30986023 C34.35923752 8.31097305 33.34260529 8.31208588 32.29516602 8.31323242 C31.2581102 8.31656082 30.22105438 8.31988922 29.15257263 8.32331848 C26.95425868 8.32839227 24.75593699 8.33072667 22.55761719 8.33056641 C19.18419776 8.33275205 15.81110559 8.35090081 12.43774414 8.36987305 C10.30688589 8.37280697 8.17602608 8.37479177 6.04516602 8.37573242 C5.03055801 8.38291794 4.01595001 8.39010345 2.97059631 8.39750671 C2.03299973 8.39443008 1.09540314 8.39135345 0.12939453 8.38818359 C-0.69809799 8.38960861 -1.52559052 8.39103363 -2.37815857 8.39250183 C-4.39624023 8.14526367 -4.39624023 8.14526367 -6.39624023 6.14526367 C-5.7514374 0.85788039 -5.21120758 0.02402824 0 0 Z " fill="#002C42" transform="translate(62.396240234375,70.854736328125)"/>
<path d="M0 0 C0.9343689 -0.00630432 1.86873779 -0.01260864 2.8314209 -0.019104 C4.34862732 -0.01303131 4.34862732 -0.01303131 5.89648438 -0.00683594 C6.93212524 -0.00874939 7.96776611 -0.01066284 9.03479004 -0.01263428 C11.22713463 -0.01399691 13.41948726 -0.01029508 15.61181641 -0.00195312 C18.97642054 0.00874514 22.34049069 -0.00184597 25.70507812 -0.01464844 C27.83138139 -0.01332686 29.95768433 -0.01076449 32.08398438 -0.00683594 C33.09545532 -0.0108844 34.10692627 -0.01493286 35.14904785 -0.019104 C36.08341675 -0.01279968 37.01778564 -0.00649536 37.98046875 0 C39.21718323 0.00238678 39.21718323 0.00238678 40.47888184 0.00482178 C42.49023438 0.25878906 42.49023438 0.25878906 44.49023438 2.25878906 C44.16023438 3.90878906 43.83023438 5.55878906 43.49023438 7.25878906 C27.32023437 7.25878906 11.15023437 7.25878906 -5.50976562 7.25878906 C-5.83976562 5.60878906 -6.16976562 3.95878906 -6.50976562 2.25878906 C-4.05122057 -0.19975599 -3.3781355 0.00651959 0 0 Z " fill="#002C42" transform="translate(62.509765625,42.7412109375)"/>
<path d="M0 0 C2.5 1.4375 2.5 1.4375 4 4 C4.78795246 8.09182328 5.18203817 12.11625719 2.89453125 15.76171875 C0.24905195 18.23697954 -2.02877251 19.00454303 -5.5625 19.5625 C-9.52374737 18.91429589 -11.18799374 17.81200626 -14 15 C-15.6020886 11.79582279 -15.49285215 8.47660568 -15 5 C-11.14060449 -1.25488238 -6.86756495 -1.71343673 0 0 Z M-7 7 C-7 8.32 -7 9.64 -7 11 C-6.34 11.33 -5.68 11.66 -5 12 C-4.34 11.67 -3.68 11.34 -3 11 C-3.33 9.68 -3.66 8.36 -4 7 C-4.99 7 -5.98 7 -7 7 Z " fill="#002C42" transform="translate(112,94)"/>
<path d="M0 0 C10.23 0 20.46 0 31 0 C31.495 2.475 31.495 2.475 32 5 C29.20380868 7.79619132 27.44115287 7.25822389 23.53125 7.265625 C22.23832031 7.26820312 20.94539063 7.27078125 19.61328125 7.2734375 C18.93861816 7.26924805 18.26395508 7.26505859 17.56884766 7.26074219 C15.50783843 7.2500407 13.44770081 7.26063943 11.38671875 7.2734375 C10.09378906 7.27085938 8.80085938 7.26828125 7.46875 7.265625 C6.27701172 7.26336914 5.08527344 7.26111328 3.85742188 7.25878906 C1 7 1 7 -1 5 C-0.67 3.35 -0.34 1.7 0 0 Z " fill="#002C42" transform="translate(66,56)"/>
</svg>
