<?xml version="1.0" encoding="UTF-8"?>
<svg version="1.1" xmlns="http://www.w3.org/2000/svg" width="233" height="167">
<path d="M0 0 C1.05017303 0.34470337 2.10034607 0.68940674 3.18234253 1.04455566 C6.62004623 2.17781208 10.049247 3.33465709 13.47851562 4.49316406 C15.87664372 5.29176253 18.27512786 6.08929255 20.6739502 6.88580322 C25.68367102 8.55331992 30.68950586 10.23200292 35.69238281 11.91992188 C41.4709191 13.86935261 47.25634127 15.79712251 53.04586172 17.71366286 C58.63236149 19.56355636 64.21366734 21.42872387 69.7928009 23.30072784 C72.1614534 24.09395821 74.53139838 24.88333978 76.90263367 25.66881561 C80.20790237 26.7661017 83.50685908 27.88058394 86.8046875 29 C88.27740616 29.48336823 88.27740616 29.48336823 89.77987671 29.97650146 C90.67683258 30.28490967 91.57378845 30.59331787 92.4979248 30.91107178 C93.27730156 31.17286098 94.05667831 31.43465019 94.85967255 31.70437241 C97.33951318 32.99556504 98.41811472 34.40234667 99.88476562 36.75878906 C100.28320312 38.75878906 100.28320312 38.75878906 100.25976562 40.75878906 C100.2675 41.41878906 100.27523437 42.07878906 100.28320312 42.75878906 C99.71935793 45.58907085 98.92507426 46.66077772 96.88476562 48.75878906 C94.07299894 50.12378967 91.14041585 51.04604061 88.16601562 51.99316406 C86.88458679 52.41749725 86.88458679 52.41749725 85.57727051 52.85040283 C83.77380238 53.44484642 81.9681901 54.03281872 80.16064453 54.61474609 C77.39072909 55.50686837 74.62769342 56.41808767 71.86523438 57.33300781 C70.11169668 57.90835108 68.35780183 58.48260716 66.60351562 59.05566406 C65.36124207 59.46338043 65.36124207 59.46338043 64.09387207 59.8793335 C63.32297241 60.1266925 62.55207275 60.37405151 61.7578125 60.62890625 C61.08069214 60.84778503 60.40357178 61.06666382 59.70593262 61.29217529 C57.88476562 61.75878906 57.88476562 61.75878906 54.88476562 61.75878906 C54.97040771 62.30180664 55.0560498 62.84482422 55.14428711 63.40429688 C56.7281026 73.51248323 58.22787495 83.5425313 58.88476562 93.75878906 C59.47378662 93.5112085 60.06280762 93.26362793 60.66967773 93.00854492 C63.37905418 91.88355258 66.10008294 90.78990907 68.82226562 89.69628906 C69.74845703 89.30634766 70.67464844 88.91640625 71.62890625 88.51464844 C77.61938309 86.13947692 82.5655713 84.90420766 88.88476562 86.75878906 C95.12318298 90.64308666 97.63621541 96.01313841 99.88476562 102.75878906 C100.03096078 105.04730551 100.10567898 107.34079222 100.13476562 109.63378906 C100.1734375 111.45523438 100.1734375 111.45523438 100.21289062 113.31347656 C99.85238698 117.09876482 99.29997856 118.84317261 96.88476562 121.75878906 C94.17773437 123.34082031 94.17773437 123.34082031 91.07226562 124.57128906 C90.05519531 124.99023438 89.038125 125.40917969 87.99023438 125.84082031 C84.76955177 126.79284599 82.22355492 127.00737046 78.88476562 126.75878906 C78.55476562 126.42878906 78.22476563 126.09878906 77.88476562 125.75878906 C77.88476562 123.77878906 77.88476562 121.79878906 77.88476562 119.75878906 C82.17476562 118.10878906 86.46476563 116.45878906 90.88476562 114.75878906 C92.57597252 108.2758293 91.03325722 103.60598773 87.88476562 97.75878906 C86.73767529 95.81939474 86.73767529 95.81939474 84.88476562 94.75878906 C80.44953325 95.22795411 76.55341704 96.47867734 72.39257812 98.04394531 C70.59433594 98.71586914 70.59433594 98.71586914 68.75976562 99.40136719 C67.50972088 99.87455629 66.25972143 100.34786507 65.00976562 100.82128906 C63.73651502 101.29900103 62.4630791 101.7762194 61.18945312 102.25292969 C58.08603495 103.4167115 54.98459115 104.58547874 51.88476562 105.75878906 C51.72514825 108.1187595 51.72514825 108.1187595 53.75976562 111.19628906 C56.33833747 116.16141144 57.11696403 121.26294606 57.88476562 126.75878906 C58.75101563 126.42878906 59.61726562 126.09878906 60.50976562 125.75878906 C63.85884492 124.76646927 66.41756506 124.51689135 69.88476562 124.75878906 C70.88476562 125.75878906 70.88476562 125.75878906 70.94726562 128.32128906 C70.92664063 129.12566406 70.90601563 129.93003906 70.88476562 130.75878906 C68.40976562 131.74878906 68.40976562 131.74878906 65.88476562 132.75878906 C66.62533203 133.59023438 66.62533203 133.59023438 67.38085938 134.43847656 C68.02152344 135.16292969 68.6621875 135.88738281 69.32226562 136.63378906 C70.27939453 137.71273437 70.27939453 137.71273437 71.25585938 138.81347656 C74.05704065 142.15877219 74.23836207 144.42723257 73.88476562 148.75878906 C70.89950832 152.46997427 66.929109 153.4837088 62.57226562 155.00878906 C61.82525391 155.28980469 61.07824219 155.57082031 60.30859375 155.86035156 C55.88639735 157.42889181 52.47079984 158.45157522 47.88476562 156.75878906 C46.09179687 154.54394531 46.09179687 154.54394531 44.69726562 151.82128906 C42.54209421 147.66788692 42.54209421 147.66788692 38.88476562 144.75878906 C32.16724839 145.13061917 25.48847811 148.26092249 19.29492188 150.67285156 C17.2736665 151.44168303 15.25217476 152.20989335 13.23046875 152.97753906 C10.08355104 154.17982616 6.93881244 155.38706837 3.7980957 156.60546875 C0.73999305 157.78863334 -2.32546163 158.95079006 -5.39257812 160.11035156 C-6.78209938 160.65872177 -6.78209938 160.65872177 -8.19969177 161.21817017 C-14.11995588 163.43638334 -19.77525323 164.83741009 -26.11523438 163.75878906 C-31.73537609 160.65668477 -35.0816759 155.77007729 -37.11523438 149.75878906 C-37.65862632 147.06024942 -37.91840885 144.5143464 -38.11523438 141.75878906 C-42.40523438 141.09878906 -46.69523437 140.43878906 -51.11523438 139.75878906 C-51.09203125 140.80679688 -51.06882812 141.85480469 -51.04492188 142.93457031 C-51.02616134 144.31346944 -51.00796144 145.69237627 -50.99023438 147.07128906 C-50.97347656 147.76158203 -50.95671875 148.451875 -50.93945312 149.16308594 C-50.90305644 152.93014302 -50.97144574 154.54310611 -53.11523438 157.75878906 C-61.69960177 160.67134229 -70.54499172 160.76589175 -79.11523438 157.75878906 C-81.41104583 155.47988248 -82.07882534 154.26429037 -82.31298828 151.01318359 C-82.23999512 149.98306152 -82.16700195 148.95293945 -82.09179688 147.89160156 C-82.04152344 146.75851563 -81.99125 145.62542969 -81.93945312 144.45800781 C-81.8069955 142.08156214 -81.65085511 139.70631443 -81.47070312 137.33300781 C-81.34341561 133.93481695 -81.3155218 131.06798376 -82.11523438 127.75878906 C-84.25494985 125.6723799 -86.36062859 124.45754434 -88.99047852 123.0559082 C-91.11523438 121.75878906 -91.11523438 121.75878906 -92.69726562 118.55957031 C-93.24022469 113.62219486 -93.12038508 108.89549201 -92.80273438 103.94628906 C-92.75439453 102.99302734 -92.70605469 102.03976563 -92.65625 101.05761719 C-92.26428914 94.0568986 -92.26428914 94.0568986 -91.11523438 91.75878906 C-89.24023438 91.00878906 -89.24023438 91.00878906 -87.11523438 90.75878906 C-86.12523437 91.41878906 -85.13523438 92.07878906 -84.11523438 92.75878906 C-83.83813477 95.04956055 -83.83813477 95.04956055 -83.96289062 97.87988281 C-83.99060547 98.89759766 -84.01832031 99.9153125 -84.046875 100.96386719 C-84.13396325 103.11507695 -84.2250953 105.2661269 -84.3203125 107.41699219 C-84.34673828 108.43599609 -84.37316406 109.455 -84.40039062 110.50488281 C-84.44043213 111.44001709 -84.48047363 112.37515137 -84.52172852 113.33862305 C-84.34315483 115.93171192 -84.34315483 115.93171192 -82.09741211 117.5871582 C-81.44329346 117.97379639 -80.7891748 118.36043457 -80.11523438 118.75878906 C-79.5212013 115.38856058 -78.97075449 112.01258087 -78.42773438 108.63378906 C-78.25951172 107.68246094 -78.09128906 106.73113281 -77.91796875 105.75097656 C-77.01655625 99.98193657 -76.98444785 96.90719357 -80.11523438 91.75878906 C-80.61476217 87.07571598 -79.7027861 82.9938402 -76.80273438 79.25878906 C-73.29330279 75.99420154 -73.29330279 75.99420154 -70.11523438 75.75878906 C-70.11523438 73.11878906 -70.11523438 70.47878906 -70.11523438 67.75878906 C-71.59270897 67.39762861 -73.07228112 67.04503858 -74.55273438 66.69628906 C-75.37644531 66.4990625 -76.20015625 66.30183594 -77.04882812 66.09863281 C-77.73074219 65.98648438 -78.41265625 65.87433594 -79.11523438 65.75878906 C-81.56617812 68.2097328 -81.11164687 74.11598041 -81.51757812 77.43847656 C-82.11523438 80.75878906 -82.11523438 80.75878906 -84.11523438 83.75878906 C-86.67773437 84.00878906 -86.67773437 84.00878906 -89.11523438 83.75878906 C-90.69921096 82.17481248 -90.28542567 80.57853309 -90.30273438 78.38378906 C-90.26165527 72.6984415 -89.29634964 67.30581256 -88.11523438 61.75878906 C-89.2521875 61.53964844 -90.38914063 61.32050781 -91.56054688 61.09472656 C-98.41820228 59.56632628 -105.06497066 57.33166751 -111.72851562 55.12792969 C-114.00186736 54.37996163 -116.28091932 53.65143266 -118.56054688 52.92285156 C-120.01406158 52.44486834 -121.46720107 51.96574225 -122.91992188 51.48535156 C-123.93709793 51.16481308 -123.93709793 51.16481308 -124.974823 50.83779907 C-128.84336165 49.52989895 -131.11906728 48.38760691 -133.11523438 44.75878906 C-133.51367188 42.75878906 -133.51367188 42.75878906 -133.49023438 40.75878906 C-133.49796875 40.09878906 -133.50570312 39.43878906 -133.51367188 38.75878906 C-132.98323331 36.09619547 -131.90298267 34.79304953 -130.11523438 32.75878906 C-128.0901413 31.70437241 -128.0901413 31.70437241 -125.72839355 30.91107178 C-124.83143768 30.60266357 -123.93448181 30.29425537 -123.01034546 29.97650146 C-122.02853302 29.65425598 -121.04672058 29.3320105 -120.03515625 29 C-118.99900177 28.64828735 -117.96284729 28.29657471 -116.89529419 27.9342041 C-113.46266835 26.77337171 -110.02376734 25.63259818 -106.58398438 24.49316406 C-104.19300161 23.69245559 -101.80225769 22.89103354 -99.41174316 22.08892822 C-94.39430157 20.40900956 -89.37370404 18.73900538 -84.35058594 17.07617188 C-78.56478104 15.16062687 -72.78654484 13.22349203 -67.01171827 11.27512527 C-61.43865313 9.39570068 -55.85949833 7.53497243 -50.27772522 5.68158722 C-47.91269167 4.89400954 -45.54932796 4.1013983 -43.18772888 3.30358124 C-39.87371099 2.18637529 -36.55329954 1.09066881 -33.23046875 0 C-32.26485016 -0.33034241 -31.29923157 -0.66068481 -30.30435181 -1.0010376 C-19.41882008 -4.51855283 -10.70728488 -3.6630097 0 0 Z M-21.33558655 5.12548828 C-22.24568985 5.42839783 -23.15579315 5.73130737 -24.09347534 6.043396 C-25.09975983 6.38002258 -26.10604431 6.71664917 -27.14282227 7.06347656 C-28.19635391 7.4146051 -29.24988556 7.76573364 -30.33534241 8.12750244 C-33.83666741 9.29484402 -37.33727815 10.46431268 -40.83789062 11.63378906 C-43.2578046 12.44104838 -45.67776261 13.24817572 -48.09776306 14.05517578 C-53.82840235 15.96653394 -59.55859403 17.87922815 -65.28857368 19.79256248 C-71.81044958 21.97024175 -78.33289076 24.14622544 -84.85538113 26.32206345 C-98.27596423 30.79907909 -111.6958323 35.27823477 -125.11523438 39.75878906 C-125.11523438 40.41878906 -125.11523438 41.07878906 -125.11523438 41.75878906 C-117.77628154 44.29010776 -110.43146064 46.80351133 -103.07866383 49.29429054 C-99.66452706 50.45146195 -96.25270613 51.61467391 -92.84545898 52.79199219 C-89.55644556 53.92820418 -86.26230078 55.04815043 -82.96399498 56.15708542 C-81.0962628 56.78972324 -79.23420295 57.43902793 -77.37226868 58.08853149 C-76.23146347 58.46907684 -75.09065826 58.84962219 -73.9152832 59.24169922 C-72.91378738 59.5836734 -71.91229156 59.92564758 -70.88044739 60.27798462 C-63.44213714 61.57132897 -55.56973516 54.09038499 -49.60327148 50.13012695 C-48.15488402 49.1755338 -46.69908694 48.23208781 -45.23608398 47.30004883 C-43.11154726 45.94576723 -41.01270544 44.55803235 -38.91601562 43.16113281 C-38.26393631 42.75450912 -37.61185699 42.34788544 -36.9400177 41.92893982 C-33.19582613 39.36839208 -31.7660852 37.58530742 -30.86987305 33.07739258 C-30.73351692 31.94105125 -30.73351692 31.94105125 -30.59440613 30.78175354 C-30.11523438 28.75878906 -30.11523438 28.75878906 -27.24023438 26.25878906 C-21.09400571 23.3085993 -15.44075822 22.78471482 -8.86523438 25.00878906 C-5.58851392 26.39313995 -3.5492308 27.35304755 -2.11523438 30.75878906 C-1.61032372 33.8685797 -1.49999558 36.65980846 -2.11523438 39.75878906 C-4.85791987 42.80621739 -7.16504382 44.00433825 -11.11523438 44.75878906 C-12.92589029 44.85053616 -14.73976249 44.88881811 -16.55273438 44.88378906 C-17.94298828 44.88765625 -17.94298828 44.88765625 -19.36132812 44.89160156 C-22.11523438 44.75878906 -22.11523438 44.75878906 -24.36035156 44.0012207 C-28.36597383 43.6487231 -30.76466425 45.5793114 -33.94726562 47.74707031 C-34.58387619 48.16546677 -35.22048676 48.58386322 -35.87638855 49.01493835 C-37.2164617 49.89996728 -38.55178376 50.79222685 -39.88256836 51.69116211 C-41.927789 53.07132592 -43.98751424 54.42727523 -46.05078125 55.78027344 C-47.35052397 56.64282915 -48.64938439 57.50671617 -49.94726562 58.37207031 C-50.56591995 58.7804866 -51.18457428 59.18890289 -51.82197571 59.60969543 C-53.29003542 60.60702893 -54.70857865 61.67657232 -56.11523438 62.75878906 C-56.11523438 63.41878906 -56.11523438 64.07878906 -56.11523438 64.75878906 C-29.20685987 76.94826254 -29.20685987 76.94826254 -0.99023438 74.07128906 C2.18918347 72.73649956 5.29612855 71.36183297 8.36572266 69.79125977 C11.074119 68.68117951 12.98764718 68.55659637 15.88476562 68.75878906 C16.21476563 70.40878906 16.54476562 72.05878906 16.88476562 73.75878906 C10.57089219 76.45566968 4.13789466 78.75566397 -2.36523438 80.94628906 C-3.13335449 81.20812988 -3.90147461 81.4699707 -4.69287109 81.73974609 C-11.89286486 84.13766114 -16.78201801 85.2269248 -24.24023438 82.88378906 C-25.28908813 82.55954956 -25.28908813 82.55954956 -26.35913086 82.22875977 C-28.94975837 81.42131621 -31.5322837 80.59046872 -34.11523438 79.75878906 C-35.91943544 79.18353293 -37.72364156 78.6082926 -39.5279541 78.03338623 C-47.06420439 75.63054111 -54.59169893 73.20116356 -62.11523438 70.75878906 C-62.42877524 74.4426365 -62.42877524 74.4426365 -60.61914062 77.45410156 C-59.97847656 77.92589844 -59.3378125 78.39769531 -58.67773438 78.88378906 C-55.20940478 81.47627785 -55.20940478 81.47627785 -54.11523438 84.75878906 C-53.64557948 91.92102627 -53.64557948 91.92102627 -55.70507812 95.59472656 C-57.48388923 99.58596477 -56.98677249 101.37675818 -55.92773438 105.57128906 C-54.54798058 111.42761047 -53.58550371 117.21456118 -52.92773438 123.19628906 C-52.80265503 124.32417847 -52.80265503 124.32417847 -52.67504883 125.47485352 C-52.48337966 127.23562145 -52.29851609 128.99712831 -52.11523438 130.75878906 C-50.17886398 131.263146 -48.24109292 131.7621278 -46.30273438 132.25878906 C-45.22378906 132.53722656 -44.14484375 132.81566406 -43.03320312 133.10253906 C-40.12589462 133.86849854 -40.12589462 133.86849854 -37.11523438 133.75878906 C-36.97085938 132.99566406 -36.82648438 132.23253906 -36.67773438 131.44628906 C-34.883149 128.35960222 -34.48411375 128.30554631 -31.23071289 127.34912109 C-27.68523775 126.25197893 -24.1876102 125.08989901 -20.70092773 123.81689453 C-19.73799301 123.46577606 -18.77505829 123.11465759 -17.78294373 122.75289917 C-16.76724808 122.38101471 -15.75155243 122.00913025 -14.70507812 121.62597656 C-13.62053848 121.22984161 -12.53599884 120.83370667 -11.41859436 120.42556763 C-9.12478466 119.58738854 -6.8312047 118.74858049 -4.5378418 117.90917969 C-1.11569042 116.65682811 2.30732519 115.40686319 5.73046875 114.15722656 C17.00109788 110.03908273 28.26206031 105.89498509 39.50585938 101.70410156 C40.53808121 101.32140106 41.57030304 100.93870056 42.63380432 100.54440308 C43.57441208 100.19249908 44.51501984 99.84059509 45.48413086 99.47802734 C46.31291245 99.16906525 47.14169403 98.86010315 47.99559021 98.54177856 C49.8615006 97.90955019 49.8615006 97.90955019 50.88476562 96.75878906 C50.84530272 94.34548041 50.73878503 91.97681565 50.57226562 89.57128906 C50.52448975 88.8589209 50.47671387 88.14655273 50.42749023 87.41259766 C50.33450525 75.12972534 50.33450525 75.12972534 45.88476562 64.75878906 C44.85996094 65.11972656 43.83515625 65.48066406 42.77929688 65.85253906 C41.4187581 66.32169036 40.05807322 66.79041808 38.69726562 67.25878906 C38.02373047 67.49726562 37.35019531 67.73574219 36.65625 67.98144531 C32.95272095 69.24606499 29.80536027 70.06330127 25.88476562 69.75878906 C25.88476562 67.77878906 25.88476562 65.79878906 25.88476562 63.75878906 C58.55476563 52.86878906 58.55476563 52.86878906 91.88476562 41.75878906 C91.88476562 41.09878906 91.88476562 40.43878906 91.88476562 39.75878906 C77.82119118 35.06315445 63.75704903 30.36922374 49.69222355 25.67733765 C43.16213822 23.49892158 36.63224194 21.31994197 30.1027832 19.13964844 C23.80740815 17.03752103 17.51151617 14.93694719 11.21529961 12.83734131 C8.80724173 12.03403707 6.39936061 11.23020279 3.99165535 10.42584229 C0.63234746 9.30367095 -2.72757083 8.18334654 -6.08764648 7.06347656 C-7.09393097 6.72684998 -8.10021545 6.39022339 -9.13699341 6.043396 C-10.04709671 5.74048645 -10.95720001 5.4375769 -11.8948822 5.12548828 C-13.08814322 4.72727371 -13.08814322 4.72727371 -14.30551052 4.3210144 C-17.11768607 3.44735826 -18.53131562 4.18964816 -21.33558655 5.12548828 Z M-24.11523438 33.75878906 C-24.11523438 34.74878906 -24.11523438 35.73878906 -24.11523438 36.75878906 C-21.30295815 37.69621447 -19.52776594 37.8934975 -16.61523438 37.88378906 C-15.84179688 37.88636719 -15.06835938 37.88894531 -14.27148438 37.89160156 C-11.9307642 37.8402472 -11.9307642 37.8402472 -9.11523438 36.75878906 C-9.30994548 34.80879777 -9.30994548 34.80879777 -10.11523438 32.75878906 C-14.986855 29.27906004 -19.56673563 30.24994717 -24.11523438 33.75878906 Z M-72.11523438 86.75878906 C-72.00181903 89.16756164 -72.00181903 89.16756164 -71.11523438 91.75878906 C-68.90113548 93.82075124 -68.90113548 93.82075124 -66.11523438 94.75878906 C-63.76638173 94.50109131 -63.76638173 94.50109131 -62.11523438 92.75878906 C-61.11523438 89.8421224 -61.11523438 89.8421224 -61.11523438 86.75878906 C-62.77013586 83.75188709 -62.77013586 83.75188709 -64.92773438 82.82128906 C-68.26728417 82.72587335 -69.73931744 84.58086521 -72.11523438 86.75878906 Z M-69.11523438 101.75878906 C-71.3704564 111.00519938 -72.55608737 120.14997648 -73.30273438 129.63378906 C-73.3863623 130.69073975 -73.46999023 131.74769043 -73.55615234 132.83666992 C-73.99472474 138.82813475 -74.19674826 144.75184257 -74.11523438 150.75878906 C-71.30295815 151.69621447 -69.52776594 151.8934975 -66.61523438 151.88378906 C-65.84179688 151.88636719 -65.06835938 151.88894531 -64.27148438 151.89160156 C-61.9307642 151.8402472 -61.9307642 151.8402472 -59.11523438 150.75878906 C-58.70847405 140.78562847 -59.35187767 131.10840661 -60.49023438 121.19628906 C-60.6163208 120.07883301 -60.74240723 118.96137695 -60.87231445 117.81005859 C-61.54071383 112.27189236 -62.36578916 107.06036869 -64.11523438 101.75878906 C-65.76523438 101.75878906 -67.41523437 101.75878906 -69.11523438 101.75878906 Z M34.88476562 111.75878906 C35.2225 112.43683594 35.56023437 113.11488281 35.90820312 113.81347656 C38.90960822 120.07652419 40.88562579 125.88411048 41.88476562 132.75878906 C45.80126914 132.20038006 45.80126914 132.20038006 48.82226562 129.75878906 C50.37846669 125.36480959 49.45416865 122.06517031 47.88476562 117.75878906 C46.08978996 114.67367464 44.39818522 112.27220865 41.88476562 109.75878906 C38.77924897 109.75878906 37.53215479 110.29816056 34.88476562 111.75878906 Z M13.15429688 118.75097656 C12.32266525 119.05697784 11.49103363 119.36297913 10.63420105 119.67825317 C8.88205074 120.32506266 7.13136707 120.97585734 5.38208008 121.63037109 C2.69986201 122.63281869 0.0125479 123.62051994 -2.67578125 124.60644531 C-4.3785768 125.23708809 -6.08106193 125.86856979 -7.78320312 126.50097656 C-8.99099678 126.94484207 -8.99099678 126.94484207 -10.22319031 127.39767456 C-14.53359498 128.97612866 -14.53359498 128.97612866 -18.11523438 131.75878906 C-17.7775 132.26925781 -17.43976563 132.77972656 -17.09179688 133.30566406 C-13.22712393 139.60530436 -11.94271502 145.45966876 -11.11523438 152.75878906 C-0.01008949 148.9383244 11.055607 145.01539334 22.07226562 140.94628906 C23.12929687 140.56158447 24.18632812 140.17687988 25.27539062 139.78051758 C26.25378906 139.41627686 27.2321875 139.05203613 28.24023438 138.67675781 C29.54963989 138.19372192 29.54963989 138.19372192 30.88549805 137.70092773 C33.05715297 136.92939094 33.05715297 136.92939094 33.88476562 134.75878906 C34.57002261 128.04327064 32.57991867 122.35232646 28.56054688 116.99316406 C23.97121752 113.61267903 17.87197097 116.98015063 13.15429688 118.75097656 Z M-29.11523438 134.75878906 C-30.72866413 136.37221882 -30.40177086 138.0926889 -30.49023438 140.32128906 C-30.45253083 146.89113238 -27.66616765 151.20785579 -23.11523438 155.75878906 C-21.00702641 155.44027136 -21.00702641 155.44027136 -19.11523438 154.75878906 C-18.49648463 147.33379213 -19.70818472 141.81786169 -24.56445312 136.03222656 C-26.16721025 134.44148162 -26.16721025 134.44148162 -29.11523438 134.75878906 Z M48.88476562 138.75878906 C48.88476562 141.93315126 49.30011634 142.82171368 50.88476562 145.44628906 C51.87476563 147.08597656 51.87476563 147.08597656 52.88476562 148.75878906 C54.51199862 148.30844783 56.13650227 147.84823552 57.75976562 147.38378906 C58.6646875 147.12855469 59.56960937 146.87332031 60.50195312 146.61035156 C63.03046288 145.89835757 63.03046288 145.89835757 64.88476562 143.75878906 C59.15212468 139.80963641 55.85553965 138.62726502 48.88476562 138.75878906 Z " fill="#002C42" transform="translate(133.115234375,3.2412109375)"/>
</svg>
