<?xml version="1.0" encoding="UTF-8"?>
<svg version="1.1" xmlns="http://www.w3.org/2000/svg" width="167" height="167">
<path d="M0 0 C15.28712572 13.45633222 25.09322449 31.93508361 26.4375 52.35546875 C27.21102131 72.20515352 21.21880033 91.35559942 8.10546875 106.5234375 C-1.89736914 117.11917783 -13.89934881 124.59662772 -27.9375 128.6875 C-29.04351562 129.02394531 -29.04351562 129.02394531 -30.171875 129.3671875 C-49.87131773 134.32601274 -69.93220793 129.61931928 -87.18652344 119.74755859 C-103.05711183 110.13934683 -113.79531394 94.33331742 -118.9375 76.6875 C-119.16179687 75.95015625 -119.38609375 75.2128125 -119.6171875 74.453125 C-124.57601274 54.75368227 -119.86931928 34.69279207 -109.99755859 17.43847656 C-100.38934683 1.56788817 -84.58331742 -9.17031394 -66.9375 -14.3125 C-65.83148438 -14.64894531 -65.83148438 -14.64894531 -64.703125 -14.9921875 C-42.18310575 -20.66101993 -18.03829186 -14.01861679 0 0 Z M-77.9375 2.6875 C-77.9375 8.2975 -77.9375 13.9075 -77.9375 19.6875 C-72.3275 19.6875 -66.7175 19.6875 -60.9375 19.6875 C-59.9475 17.769375 -59.9475 17.769375 -58.9375 15.8125 C-58.56625 15.09320313 -58.195 14.37390625 -57.8125 13.6328125 C-56.80076254 11.73901023 -56.80076254 11.73901023 -56.9375 9.6875 C-46.7075 9.6875 -36.4775 9.6875 -25.9375 9.6875 C-25.9375 23.8775 -25.9375 38.0675 -25.9375 52.6875 C-43.5 52.1875 -43.5 52.1875 -48.93969727 51.96679688 C-60.87281451 51.69370973 -67.81449054 54.29534486 -77.9375 60.6875 C-77.9375 66.9575 -77.9375 73.2275 -77.9375 79.6875 C-74.33588799 81.19390038 -70.73148119 82.69284134 -67.125 84.1875 C-66.10083984 84.61675781 -65.07667969 85.04601562 -64.02148438 85.48828125 C-62.54711914 86.09736328 -62.54711914 86.09736328 -61.04296875 86.71875 C-60.13699951 87.09580078 -59.23103027 87.47285156 -58.29760742 87.86132812 C-55.88233475 88.85269913 -55.88233475 88.85269913 -52.9375 88.6875 C-50.4625 104.0325 -50.4625 104.0325 -47.9375 119.6875 C-45.50375 119.44 -43.07 119.1925 -40.5625 118.9375 C-39.81822754 118.86950195 -39.07395508 118.80150391 -38.30712891 118.73144531 C-32.41856061 118.06011511 -27.3385358 116.06961012 -21.9375 113.6875 C-21.95433838 113.05884033 -21.97117676 112.43018066 -21.98852539 111.7824707 C-22.3566986 90.70792795 -22.3566986 90.70792795 -16.25 83.4375 C-12.85488241 79.56390764 -12.85488241 79.56390764 -11.71875 74.74609375 C-12.24123437 71.92237307 -12.99516184 69.39817642 -13.9375 66.6875 C-15.93503321 59.9924711 -16.35259194 53.65127455 -16.5625 46.6875 C-16.68625 43.0575 -16.81 39.4275 -16.9375 35.6875 C-8.0275 35.6875 0.8825 35.6875 10.0625 35.6875 C7.40524619 22.40123095 -3.28650647 11.88107578 -14.13671875 4.4375 C-34.06027421 -8.01124874 -57.10832986 -7.72708507 -77.9375 2.6875 Z M-92.5390625 14.1640625 C-104.72905881 27.10710877 -109.91909887 43.09601869 -109.9375 60.6875 C-108.83540488 76.9584316 -101.30495229 92.3668565 -89.515625 103.5546875 C-81.61792507 110.08823926 -70.59867426 117.6875 -59.9375 117.6875 C-60.24694701 115.10376766 -60.55993957 112.52054867 -60.875 109.9375 C-61.00551758 108.84308594 -61.00551758 108.84308594 -61.13867188 107.7265625 C-61.3860206 105.71112845 -61.66080198 103.69911478 -61.9375 101.6875 C-62.05291138 100.64686401 -62.05291138 100.64686401 -62.1706543 99.58520508 C-62.79510207 97.4867366 -62.79510207 97.4867366 -65.02294922 96.45483398 C-66.36897217 95.94932007 -66.36897217 95.94932007 -67.7421875 95.43359375 C-68.71800781 95.05396484 -69.69382813 94.67433594 -70.69921875 94.28320312 C-71.72660156 93.90099609 -72.75398438 93.51878906 -73.8125 93.125 C-75.8333785 92.3598254 -77.85173736 91.58795425 -79.8671875 90.80859375 C-80.76679199 90.4727124 -81.66639648 90.13683105 -82.59326172 89.79077148 C-84.969975 88.67221626 -86.30434824 87.72621885 -87.9375 85.6875 C-89.59884997 80.70345008 -89.16399351 75.53094065 -89.1875 70.3125 C-89.2184375 68.60707031 -89.2184375 68.60707031 -89.25 66.8671875 C-89.25515625 65.76890625 -89.2603125 64.670625 -89.265625 63.5390625 C-89.2749707 62.53697754 -89.28431641 61.53489258 -89.29394531 60.50244141 C-88.86983651 57.15314381 -87.97743709 55.36626848 -85.9375 52.6875 C-83.90039063 51.21777344 -83.90039063 51.21777344 -81.59375 50.046875 C-80.75972656 49.61632812 -79.92570312 49.18578125 -79.06640625 48.7421875 C-78.19886719 48.31164062 -77.33132812 47.88109375 -76.4375 47.4375 C-75.56996094 46.99148437 -74.70242187 46.54546875 -73.80859375 46.0859375 C-68.34665007 43.30009296 -64.16252759 41.58298875 -57.95703125 41.37109375 C-56.79365234 41.32919922 -55.63027344 41.28730469 -54.43164062 41.24414062 C-53.21669922 41.20482422 -52.00175781 41.16550781 -50.75 41.125 C-49.52345703 41.08181641 -48.29691406 41.03863281 -47.03320312 40.99414062 C-44.00143808 40.88796986 -40.969484 40.78722236 -37.9375 40.6875 C-37.9375 34.0875 -37.9375 27.4875 -37.9375 20.6875 C-43.50202137 20.0499552 -43.50202137 20.0499552 -48.9375 20.6875 C-51.08746313 22.84602872 -52.33127675 24.91805898 -53.71875 27.62109375 C-54.9375 29.6875 -54.9375 29.6875 -57.9375 30.6875 C-61.89149893 30.94603371 -65.85094802 30.91887931 -69.8125 30.9375 C-71.44638672 30.9684375 -71.44638672 30.9684375 -73.11328125 31 C-74.16644531 31.00515625 -75.21960938 31.0103125 -76.3046875 31.015625 C-77.26487793 31.0249707 -78.22506836 31.03431641 -79.21435547 31.04394531 C-82.44064034 30.62164157 -84.30747697 29.56921749 -86.9375 27.6875 C-89.08780659 24.60055679 -89.29815664 21.63830704 -89.5625 17.9375 C-89.63726562 16.95265625 -89.71203125 15.9678125 -89.7890625 14.953125 C-89.83804688 14.20546875 -89.88703125 13.4578125 -89.9375 12.6875 C-91.17802353 12.57452782 -91.17802353 12.57452782 -92.5390625 14.1640625 Z M-4.9375 47.6875 C-5.37989028 55.5399274 -4.35776693 62.15591093 -2.27246094 69.67163086 C-1.10457679 74.06551373 -0.60562318 77.31133329 -1.9375 81.6875 C-3.21805637 83.79649241 -4.5792041 85.85782063 -6 87.875 C-9.97555919 93.82022101 -10.958591 98.61077213 -9.9375 105.6875 C0.32475004 101.01471077 7.05131264 89.39179107 11.21484375 79.31640625 C14.67083069 68.59806888 15.46112341 58.87648731 14.0625 47.6875 C7.7925 47.6875 1.5225 47.6875 -4.9375 47.6875 Z " fill="#002C42" transform="translate(130.9375,26.3125)"/>
</svg>
