<?xml version="1.0" encoding="UTF-8"?>
<svg version="1.1" xmlns="http://www.w3.org/2000/svg" width="250" height="250">
<path d="M0 0 C82.5 0 165 0 250 0 C250 82.5 250 165 250 250 C167.5 250 85 250 0 250 C0 167.5 0 85 0 0 Z " fill="#4B677C" transform="translate(0,0)"/>
<path d="M0 0 C1.12535156 0.00580078 1.12535156 0.00580078 2.2734375 0.01171875 C3.02367187 0.00785156 3.77390625 0.00398438 4.546875 0 C10.14682697 0.01010822 10.14682697 0.01010822 11.2734375 1.13671875 C11.31424533 3.13630239 11.31598106 5.13717129 11.2734375 7.13671875 C12.89514989 7.52569036 14.52098675 7.89750173 16.1484375 8.26171875 C17.05335938 8.47054687 17.95828125 8.679375 18.890625 8.89453125 C19.67695313 8.97445312 20.46328125 9.054375 21.2734375 9.13671875 C21.9334375 8.47671875 22.5934375 7.81671875 23.2734375 7.13671875 C27.79634416 7.34991974 30.00634204 9.27552915 33.1484375 12.38671875 C33.95023437 13.155 34.75203125 13.92328125 35.578125 14.71484375 C37.2734375 17.13671875 37.2734375 17.13671875 37.07421875 19.8046875 C36.80996094 20.57425781 36.54570312 21.34382813 36.2734375 22.13671875 C35.21836862 25.19882201 35.21836862 25.19882201 36.2109375 28.19921875 C36.5615625 28.83859375 36.9121875 29.47796875 37.2734375 30.13671875 C37.2734375 31.12671875 37.2734375 32.11671875 37.2734375 33.13671875 C38.2428125 33.11609375 39.2121875 33.09546875 40.2109375 33.07421875 C43.2734375 33.13671875 43.2734375 33.13671875 44.2734375 34.13671875 C44.37324964 36.81403255 44.41223625 39.4597605 44.3984375 42.13671875 C44.40230469 42.88695312 44.40617187 43.6371875 44.41015625 44.41015625 C44.40004803 50.01010822 44.40004803 50.01010822 43.2734375 51.13671875 C41.27385386 51.17752658 39.27298496 51.17926231 37.2734375 51.13671875 C36.88446589 52.75843114 36.51265452 54.384268 36.1484375 56.01171875 C35.93960938 56.91664063 35.73078125 57.8215625 35.515625 58.75390625 C35.39574219 59.93339844 35.39574219 59.93339844 35.2734375 61.13671875 C35.9334375 61.79671875 36.5934375 62.45671875 37.2734375 63.13671875 C37.06023651 67.65962541 35.1346271 69.86962329 32.0234375 73.01171875 C31.25515625 73.81351562 30.486875 74.6153125 29.6953125 75.44140625 C27.2734375 77.13671875 27.2734375 77.13671875 24.59375 76.9375 C23.19110751 76.45342305 21.79156559 75.96003238 20.3984375 75.44921875 C17.10280897 74.96456749 14.39060579 76.1176445 11.2734375 77.13671875 C11.2940625 78.10609375 11.3146875 79.07546875 11.3359375 80.07421875 C11.2734375 83.13671875 11.2734375 83.13671875 10.2734375 84.13671875 C7.5961237 84.23653089 4.95039575 84.2755175 2.2734375 84.26171875 C1.14808594 84.26751953 1.14808594 84.26751953 0 84.2734375 C-5.59995197 84.26332928 -5.59995197 84.26332928 -6.7265625 83.13671875 C-6.76737033 81.13713511 -6.76910606 79.13626621 -6.7265625 77.13671875 C-8.34827489 76.74774714 -9.97411175 76.37593577 -11.6015625 76.01171875 C-12.50648437 75.80289063 -13.41140625 75.5940625 -14.34375 75.37890625 C-15.13007812 75.29898438 -15.91640625 75.2190625 -16.7265625 75.13671875 C-17.7165625 76.12671875 -17.7165625 76.12671875 -18.7265625 77.13671875 C-23.24946916 76.92351776 -25.45946704 74.99790835 -28.6015625 71.88671875 C-29.40335938 71.1184375 -30.20515625 70.35015625 -31.03125 69.55859375 C-32.7265625 67.13671875 -32.7265625 67.13671875 -32.52734375 64.45703125 C-32.0432668 63.05438876 -31.54987613 61.65484684 -31.0390625 60.26171875 C-30.55441124 56.96609022 -31.70748825 54.25388704 -32.7265625 51.13671875 C-33.6959375 51.15734375 -34.6653125 51.17796875 -35.6640625 51.19921875 C-38.7265625 51.13671875 -38.7265625 51.13671875 -39.7265625 50.13671875 C-39.82637464 47.45940495 -39.86536125 44.813677 -39.8515625 42.13671875 C-39.85542969 41.38648438 -39.85929687 40.63625 -39.86328125 39.86328125 C-39.85317303 34.26332928 -39.85317303 34.26332928 -38.7265625 33.13671875 C-36.72697886 33.09591092 -34.72610996 33.09417519 -32.7265625 33.13671875 C-32.5821875 32.41484375 -32.4378125 31.69296875 -32.2890625 30.94921875 C-31.92034736 29.10564305 -31.50501025 27.27065086 -31.0390625 25.44921875 C-30.9359375 24.68609375 -30.8328125 23.92296875 -30.7265625 23.13671875 C-31.3865625 22.47671875 -32.0465625 21.81671875 -32.7265625 21.13671875 C-32.51336151 16.61381209 -30.5877521 14.40381421 -27.4765625 11.26171875 C-26.70828125 10.45992187 -25.94 9.658125 -25.1484375 8.83203125 C-22.7265625 7.13671875 -22.7265625 7.13671875 -20.05859375 7.3359375 C-19.28902344 7.60019531 -18.51945312 7.86445312 -17.7265625 8.13671875 C-14.66445924 9.19178763 -14.66445924 9.19178763 -11.6640625 8.19921875 C-11.0246875 7.84859375 -10.3853125 7.49796875 -9.7265625 7.13671875 C-8.7365625 7.13671875 -7.7465625 7.13671875 -6.7265625 7.13671875 C-6.7471875 6.16734375 -6.7678125 5.19796875 -6.7890625 4.19921875 C-6.68257397 -1.01871946 -4.69027033 0.00846619 0 0 Z " fill="#4F6A7F" transform="translate(122.7265625,82.86328125)"/>
<path d="M0 0 C1.12535156 0.00580078 1.12535156 0.00580078 2.2734375 0.01171875 C3.02367187 0.00785156 3.77390625 0.00398438 4.546875 0 C10.14682697 0.01010822 10.14682697 0.01010822 11.2734375 1.13671875 C11.31424533 3.13630239 11.31598106 5.13717129 11.2734375 7.13671875 C12.89514989 7.52569036 14.52098675 7.89750173 16.1484375 8.26171875 C17.05335938 8.47054687 17.95828125 8.679375 18.890625 8.89453125 C19.67695313 8.97445312 20.46328125 9.054375 21.2734375 9.13671875 C21.9334375 8.47671875 22.5934375 7.81671875 23.2734375 7.13671875 C27.79634416 7.34991974 30.00634204 9.27552915 33.1484375 12.38671875 C33.95023437 13.155 34.75203125 13.92328125 35.578125 14.71484375 C37.2734375 17.13671875 37.2734375 17.13671875 37.07421875 19.8046875 C36.80996094 20.57425781 36.54570312 21.34382813 36.2734375 22.13671875 C35.21836862 25.19882201 35.21836862 25.19882201 36.2109375 28.19921875 C36.5615625 28.83859375 36.9121875 29.47796875 37.2734375 30.13671875 C37.2734375 31.12671875 37.2734375 32.11671875 37.2734375 33.13671875 C38.2428125 33.11609375 39.2121875 33.09546875 40.2109375 33.07421875 C43.2734375 33.13671875 43.2734375 33.13671875 44.2734375 34.13671875 C44.37324964 36.81403255 44.41223625 39.4597605 44.3984375 42.13671875 C44.40230469 42.88695312 44.40617187 43.6371875 44.41015625 44.41015625 C44.40004803 50.01010822 44.40004803 50.01010822 43.2734375 51.13671875 C41.27385386 51.17752658 39.27298496 51.17926231 37.2734375 51.13671875 C36.88446589 52.75843114 36.51265452 54.384268 36.1484375 56.01171875 C35.93960938 56.91664063 35.73078125 57.8215625 35.515625 58.75390625 C35.39574219 59.93339844 35.39574219 59.93339844 35.2734375 61.13671875 C35.9334375 61.79671875 36.5934375 62.45671875 37.2734375 63.13671875 C37.06023651 67.65962541 35.1346271 69.86962329 32.0234375 73.01171875 C31.25515625 73.81351562 30.486875 74.6153125 29.6953125 75.44140625 C27.2734375 77.13671875 27.2734375 77.13671875 24.59375 76.9375 C23.19110751 76.45342305 21.79156559 75.96003238 20.3984375 75.44921875 C17.10280897 74.96456749 14.39060579 76.1176445 11.2734375 77.13671875 C11.2940625 78.10609375 11.3146875 79.07546875 11.3359375 80.07421875 C11.2734375 83.13671875 11.2734375 83.13671875 10.2734375 84.13671875 C7.5961237 84.23653089 4.95039575 84.2755175 2.2734375 84.26171875 C1.14808594 84.26751953 1.14808594 84.26751953 0 84.2734375 C-5.59995197 84.26332928 -5.59995197 84.26332928 -6.7265625 83.13671875 C-6.76737033 81.13713511 -6.76910606 79.13626621 -6.7265625 77.13671875 C-8.34827489 76.74774714 -9.97411175 76.37593577 -11.6015625 76.01171875 C-12.50648437 75.80289063 -13.41140625 75.5940625 -14.34375 75.37890625 C-15.13007812 75.29898438 -15.91640625 75.2190625 -16.7265625 75.13671875 C-17.7165625 76.12671875 -17.7165625 76.12671875 -18.7265625 77.13671875 C-23.24946916 76.92351776 -25.45946704 74.99790835 -28.6015625 71.88671875 C-29.40335938 71.1184375 -30.20515625 70.35015625 -31.03125 69.55859375 C-32.7265625 67.13671875 -32.7265625 67.13671875 -32.52734375 64.45703125 C-32.0432668 63.05438876 -31.54987613 61.65484684 -31.0390625 60.26171875 C-30.55441124 56.96609022 -31.70748825 54.25388704 -32.7265625 51.13671875 C-33.6959375 51.15734375 -34.6653125 51.17796875 -35.6640625 51.19921875 C-38.7265625 51.13671875 -38.7265625 51.13671875 -39.7265625 50.13671875 C-39.82637464 47.45940495 -39.86536125 44.813677 -39.8515625 42.13671875 C-39.85542969 41.38648438 -39.85929687 40.63625 -39.86328125 39.86328125 C-39.85317303 34.26332928 -39.85317303 34.26332928 -38.7265625 33.13671875 C-36.72697886 33.09591092 -34.72610996 33.09417519 -32.7265625 33.13671875 C-32.5821875 32.41484375 -32.4378125 31.69296875 -32.2890625 30.94921875 C-31.92034736 29.10564305 -31.50501025 27.27065086 -31.0390625 25.44921875 C-30.9359375 24.68609375 -30.8328125 23.92296875 -30.7265625 23.13671875 C-31.3865625 22.47671875 -32.0465625 21.81671875 -32.7265625 21.13671875 C-32.51336151 16.61381209 -30.5877521 14.40381421 -27.4765625 11.26171875 C-26.70828125 10.45992187 -25.94 9.658125 -25.1484375 8.83203125 C-22.7265625 7.13671875 -22.7265625 7.13671875 -20.05859375 7.3359375 C-19.28902344 7.60019531 -18.51945312 7.86445312 -17.7265625 8.13671875 C-14.66445924 9.19178763 -14.66445924 9.19178763 -11.6640625 8.19921875 C-11.0246875 7.84859375 -10.3853125 7.49796875 -9.7265625 7.13671875 C-8.7365625 7.13671875 -7.7465625 7.13671875 -6.7265625 7.13671875 C-6.7471875 6.16734375 -6.7678125 5.19796875 -6.7890625 4.19921875 C-6.68257397 -1.01871946 -4.69027033 0.00846619 0 0 Z M-1.7265625 5.13671875 C-1.6853125 6.04421875 -1.6440625 6.95171875 -1.6015625 7.88671875 C-2.7265625 11.13671875 -2.7265625 11.13671875 -4.84375 12.390625 C-15.95093182 16.85656903 -15.95093182 16.85656903 -20.0390625 15.19921875 C-20.5959375 14.84859375 -21.1528125 14.49796875 -21.7265625 14.13671875 C-23.0465625 15.45671875 -24.3665625 16.77671875 -25.7265625 18.13671875 C-25.3759375 18.69359375 -25.0253125 19.25046875 -24.6640625 19.82421875 C-22.69908412 24.67116541 -25.6122579 30.39256266 -27.47265625 35.01953125 C-28.7265625 37.13671875 -28.7265625 37.13671875 -31.9765625 38.26171875 C-32.8840625 38.22046875 -33.7915625 38.17921875 -34.7265625 38.13671875 C-34.7265625 40.77671875 -34.7265625 43.41671875 -34.7265625 46.13671875 C-33.3653125 46.07484375 -33.3653125 46.07484375 -31.9765625 46.01171875 C-28.7265625 47.13671875 -28.7265625 47.13671875 -27.47265625 49.25390625 C-23.00671222 60.36108807 -23.00671222 60.36108807 -24.6640625 64.44921875 C-25.0146875 65.00609375 -25.3653125 65.56296875 -25.7265625 66.13671875 C-24.4065625 67.45671875 -23.0865625 68.77671875 -21.7265625 70.13671875 C-21.1490625 69.78609375 -20.5715625 69.43546875 -19.9765625 69.07421875 C-15.88174411 67.36804442 -11.9677717 69.7262725 -7.9765625 71.19921875 C-6.99171875 71.56144531 -6.006875 71.92367187 -4.9921875 72.296875 C-4.24453125 72.57402344 -3.496875 72.85117188 -2.7265625 73.13671875 C-2.3965625 75.11671875 -2.0665625 77.09671875 -1.7265625 79.13671875 C0.9134375 79.13671875 3.5534375 79.13671875 6.2734375 79.13671875 C6.6034375 77.15671875 6.9334375 75.17671875 7.2734375 73.13671875 C9.02250281 72.48835833 10.77272969 71.84313091 12.5234375 71.19921875 C13.49796875 70.83957031 14.4725 70.47992188 15.4765625 70.109375 C21.76186625 67.92356406 21.76186625 67.92356406 24.5234375 69.07421875 C25.1009375 69.42484375 25.6784375 69.77546875 26.2734375 70.13671875 C27.5934375 68.81671875 28.9134375 67.49671875 30.2734375 66.13671875 C29.9228125 65.57984375 29.5721875 65.02296875 29.2109375 64.44921875 C27.24595912 59.60227209 30.1591329 53.88087484 32.01953125 49.25390625 C33.2734375 47.13671875 33.2734375 47.13671875 36.5234375 46.01171875 C37.4309375 46.05296875 38.3384375 46.09421875 39.2734375 46.13671875 C39.2734375 43.49671875 39.2734375 40.85671875 39.2734375 38.13671875 C37.9121875 38.19859375 37.9121875 38.19859375 36.5234375 38.26171875 C33.2734375 37.13671875 33.2734375 37.13671875 32.01953125 35.01953125 C27.55358722 23.91234943 27.55358722 23.91234943 29.2109375 19.82421875 C29.5615625 19.26734375 29.9121875 18.71046875 30.2734375 18.13671875 C28.9534375 16.81671875 27.6334375 15.49671875 26.2734375 14.13671875 C25.7165625 14.48734375 25.1596875 14.83796875 24.5859375 15.19921875 C19.73899084 17.16419713 14.01759359 14.25102335 9.390625 12.390625 C7.2734375 11.13671875 7.2734375 11.13671875 6.1484375 7.88671875 C6.1896875 6.97921875 6.2309375 6.07171875 6.2734375 5.13671875 C3.6334375 5.13671875 0.9934375 5.13671875 -1.7265625 5.13671875 Z " fill="#F9FBFB" transform="translate(122.7265625,82.86328125)"/>
<path d="M0 0 C4.12645157 3.82451609 8.27821721 7.72415573 9.5625 13.375 C9.77089947 20.44832308 8.27680192 26.01896065 3.5625 31.375 C-1.75873629 35.80936357 -6.5736264 35.9889505 -13.40625 35.76171875 C-18.68688607 35.08802935 -21.1962079 32.71973311 -24.6875 28.9375 C-28.53272239 23.30699578 -29.4136212 18.11537378 -28.4375 11.375 C-26.41995443 5.96985465 -22.83216473 2.03033889 -17.81640625 -0.77734375 C-11.84073013 -2.90660765 -5.69646256 -2.69287321 0 0 Z " fill="#F8F9FB" transform="translate(113.4375,43.625)"/>
<path d="M0 0 C4.68842291 2.67504775 7.51675338 6.38727704 9.625 11.3125 C10.42363755 17.50453398 9.85985601 22.88628992 6.625 28.3125 C2.93158539 32.35100638 -0.89770319 35.32658657 -6.375 36.3125 C-13.09184118 36.51300272 -18.27909066 34.70671528 -23.375 30.3125 C-27.80957859 24.99100569 -27.9926402 20.1733299 -27.7578125 13.33984375 C-27.06206398 7.83775086 -24.28471996 5.01655383 -20.3125 1.5 C-14.35672085 -2.93515469 -6.69631794 -3.11573518 0 0 Z " fill="#F7F9FA" transform="translate(198.375,86.6875)"/>
<path d="M0 0 C4.56391498 2.62145776 8.07508943 5.96627967 9.57421875 11.12890625 C10.29562551 16.65217679 10.54598903 22.09257396 7.88671875 27.12890625 C4.48017388 31.5482077 1.0162803 34.64470765 -4.42578125 36.12890625 C-10.86626408 36.94478315 -16.1646642 36.07187851 -21.42578125 32.12890625 C-26.33109742 26.77322607 -27.79748388 21.89804004 -27.703125 14.6953125 C-27.12462847 9.34218259 -24.36552372 5.757116 -20.36328125 2.25390625 C-14.58790576 -1.92402495 -6.70841423 -2.40897967 0 0 Z " fill="#4B667B" transform="translate(69.42578125,128.87109375)"/>
<path d="M0 0 C5.15930214 2.7875968 8.51316221 6.96493517 10.79296875 12.28125 C11.65194186 18.15422891 11.07456542 23.34023658 8.13671875 28.5234375 C5.16134141 32.41564622 1.39076547 34.74865109 -3.20703125 36.28125 C-9.62311261 37.07898658 -14.20778663 36.5000295 -19.515625 32.71484375 C-23.62634225 29.23070234 -25.96716227 26.00631886 -26.4453125 20.57421875 C-26.59563025 14.28460759 -26.68770195 10.11565786 -22.20703125 5.28125 C-15.69154301 -0.80208851 -8.84569086 -2.88072056 0 0 Z " fill="#425E71" transform="translate(154.20703125,171.71875)"/>
<path d="M0 0 C4.93587847 2.48406955 8.3399913 4.90169917 10.640625 10.078125 C12.06261273 15.75724369 12.34969279 20.5972198 9.765625 25.953125 C6.34495189 31.23100567 1.69620326 34.13983634 -4.40234375 35.55078125 C-10.15073219 35.99826059 -14.96314568 33.64015521 -19.359375 30.078125 C-23.33269068 25.56175934 -24.74003936 21.38679945 -24.421875 15.390625 C-23.55351712 9.78150245 -22.06562143 6.08117354 -17.375 2.609375 C-11.47876697 -1.05035585 -6.60431775 -2.58049501 0 0 Z " fill="#4D687D" transform="translate(131.359375,107.921875)"/>
<path d="M0 0 C5.26317231 3.99493802 8.69415252 8.47076259 10 15 C10.83394256 22.36453501 10.08062021 28.94140511 5.5234375 34.9453125 C0.0218724 40.94930364 -5.43912555 43.08121826 -13.5 43.4375 C-19.93378231 43.21533901 -24.2595203 41.54550486 -28.9765625 37.1640625 C-34.64831932 31.07217555 -36.4658364 25.80696546 -36.2421875 17.51953125 C-35.58784214 10.7122287 -32.97369213 6.08415722 -27.9453125 1.4765625 C-19.9822404 -4.56769704 -8.62439835 -5.04580983 0 0 Z M-28.5 9.625 C-30.9630076 15.16676711 -31.99635026 20.6144957 -30.25390625 26.53515625 C-27.36032863 32.53257146 -23.24645036 35.8058687 -17 38 C-11.37906356 39.3004461 -6.87530427 37.64815186 -2.05859375 34.66796875 C1.60069573 31.7030416 3.67141689 28.5144002 5 24 C5.40158778 18.73554922 4.63988374 14.43973842 2.5 9.625 C-1.70554476 5.209178 -6.77043839 1.82352844 -13 1.375 C-19.22956161 1.82352844 -24.29445524 5.209178 -28.5 9.625 Z " fill="#F8FAFB" transform="translate(138,105)"/>
<path d="M0 0 C8.34103333 4.74294052 8.34103333 4.74294052 9.65234375 9.234375 C10.370101 15.5663705 10.01991215 18.94934115 6 24 C1.68266618 26.9741633 -1.81076076 27.6486549 -7 27 C-10.82001478 24.94306897 -13.95400772 22.87661696 -16 19 C-17.11072128 14.4830668 -17.61199453 11.4649247 -15.5 7.25 C-11.9484135 1.89812654 -6.49590445 -1.10568586 0 0 Z " fill="#607E92" transform="translate(107,47)"/>
<path d="M0 0 C2.762322 3.3147864 4.00378905 5.21654937 4.5625 9.5 C3.98721487 14.29404275 1.70609165 17.29048006 -1.875 20.4375 C-5.83499223 22.86459201 -9.25823368 23.01095477 -13.8125 22.625 C-18.68203166 20.19023417 -20.99959505 17.76156401 -22.8125 12.625 C-23.35266234 8.3037013 -23.1376256 6.22880468 -21.0625 2.375 C-18.40908369 -0.86806438 -16.46073117 -2.79589175 -12.5 -4.1875 C-7.40856285 -4.54271655 -3.87772879 -3.27452653 0 0 Z " fill="#546F85" transform="translate(198.8125,94.375)"/>
<path d="M0 0 C4.56391498 2.62145776 8.07508943 5.96627967 9.57421875 11.12890625 C10.29562551 16.65217679 10.54598903 22.09257396 7.88671875 27.12890625 C4.48017388 31.5482077 1.0162803 34.64470765 -4.42578125 36.12890625 C-10.86626408 36.94478315 -16.1646642 36.07187851 -21.42578125 32.12890625 C-26.33109742 26.77322607 -27.79748388 21.89804004 -27.703125 14.6953125 C-27.12462847 9.34218259 -24.36552372 5.757116 -20.36328125 2.25390625 C-14.58790576 -1.92402495 -6.70841423 -2.40897967 0 0 Z M-19.73828125 9.69140625 C-22.56729875 13.77776486 -22.62420473 15.95907513 -21.9765625 20.8046875 C-21.04533426 24.73433857 -19.50220135 26.55475882 -16.42578125 29.12890625 C-11.71089697 30.96771112 -7.91078739 31.59640818 -3.05078125 30.06640625 C0.33858672 27.56472989 2.68891895 24.89950586 4.57421875 21.12890625 C4.96315694 16.46164799 5.02569712 14.04922754 2.94921875 9.81640625 C-0.42505729 5.99814652 -3.36752707 4.38618802 -8.42578125 3.75390625 C-13.35459258 4.37000767 -16.41444083 6.00823173 -19.73828125 9.69140625 Z " fill="#F9FAFB" transform="translate(69.42578125,128.87109375)"/>
<path d="M0 0 C5.15930214 2.7875968 8.51316221 6.96493517 10.79296875 12.28125 C11.65194186 18.15422891 11.07456542 23.34023658 8.13671875 28.5234375 C5.16134141 32.41564622 1.39076547 34.74865109 -3.20703125 36.28125 C-9.62311261 37.07898658 -14.20778663 36.5000295 -19.515625 32.71484375 C-23.62634225 29.23070234 -25.96716227 26.00631886 -26.4453125 20.57421875 C-26.59563025 14.28460759 -26.68770195 10.11565786 -22.20703125 5.28125 C-15.69154301 -0.80208851 -8.84569086 -2.88072056 0 0 Z M-20.08203125 10.46875 C-21.69865429 14.5103076 -22.12176255 18.00030753 -21.20703125 22.28125 C-18.77862937 26.43861114 -15.72988275 29.52331149 -11.20703125 31.28125 C-6.68728348 31.60174121 -2.47338685 30.91246316 1.23046875 28.21875 C4.33555578 24.65925999 5.50707984 21.97161494 5.79296875 17.28125 C5.1871144 12.81307419 4.1735523 10.29797465 0.79296875 7.40625 C-6.92449789 1.93971113 -13.97653448 3.34567044 -20.08203125 10.46875 Z " fill="#F9FAFB" transform="translate(154.20703125,171.71875)"/>
<path d="M0 0 C13.0380191 0.2307614 29.1961985 5.8836985 38.5 15.1875 C39.16 12.8775 39.82 10.5675 40.5 8.1875 C42.975 8.6825 42.975 8.6825 45.5 9.1875 C45.69384179 11.99969705 45.88036603 14.81204196 46.0625 17.625 C46.14661133 18.82866211 46.14661133 18.82866211 46.23242188 20.05664062 C46.3616295 22.09812111 46.4351273 24.14296369 46.5 26.1875 C46.005 26.6825 46.005 26.6825 45.5 27.1875 C42.63311752 27.09653444 39.79699485 26.94982012 36.9375 26.75 C36.13119141 26.69779297 35.32488281 26.64558594 34.49414062 26.59179688 C32.49578262 26.46172624 30.49784614 26.32520944 28.5 26.1875 C27.84 24.8675 27.18 23.5475 26.5 22.1875 C28.5 20.1875 28.5 20.1875 31.625 20.0625 C32.57375 20.10375 33.5225 20.145 34.5 20.1875 C22.58734889 11.90355223 10.65531107 7.79784972 -3.5 5.1875 C-4.0625 3.25 -4.0625 3.25 -4.5 1.1875 C-3.5 0.1875 -3.5 0.1875 0 0 Z " fill="#F6F8F9" transform="translate(131.5,54.8125)"/>
<path d="M0 0 C0.33 0.33 0.66 0.66 1 1 C0.90903444 3.86688248 0.76232012 6.70300515 0.5625 9.5625 C0.51029297 10.36880859 0.45808594 11.17511719 0.40429688 12.00585938 C0.27422624 14.00421738 0.13770944 16.00215386 0 18 C-1.65 18.33 -3.3 18.66 -5 19 C-5.33 16.69 -5.66 14.38 -6 12 C-14.30375492 24.15650575 -18.58206264 35.610324 -21 50 C-22.9375 50.5625 -22.9375 50.5625 -25 51 C-26 50 -26 50 -26.25 46.75 C-25.97023692 32.45664979 -19.72048076 19.09879369 -11 8 C-13.31 7.34 -15.62 6.68 -18 6 C-17.67 4.35 -17.34 2.7 -17 1 C-15.10440036 0.83069605 -13.20850769 0.66467136 -11.3125 0.5 C-10.25675781 0.4071875 -9.20101562 0.314375 -8.11328125 0.21875 C-5.38672777 0.02717284 -2.73056533 -0.1180785 0 0 Z " fill="#F8FAFB" transform="translate(81,72)"/>
<path d="M0 0 C2.0625 0.4375 2.0625 0.4375 4 1 C5.26709314 16.52189091 -2.31348382 32.32122162 -12 44 C-9.69 44 -7.38 44 -5 44 C-4.61781233 45.65614657 -4.28604898 47.32457024 -4 49 C-6.12054673 51.12054673 -10.5613479 50.46358777 -13.5 50.625 C-14.29792969 50.6765625 -15.09585938 50.728125 -15.91796875 50.78125 C-17.94325187 50.89815938 -19.97186912 50.95390612 -22 51 C-23 50 -23 50 -23.1328125 47.9609375 C-23.11741553 42.86453933 -22.87350097 38.0226306 -22 33 C-19.525 32.505 -19.525 32.505 -17 32 C-16.67 34.31 -16.34 36.62 -16 39 C-8.35836584 27.81282377 -3.89042431 17.22586505 -1.578125 3.95703125 C-1 1 -1 1 0 0 Z " fill="#F7F9FA" transform="translate(191,127)"/>
<path d="M0 0 C2.86688248 0.09096556 5.70300515 0.23767988 8.5625 0.4375 C9.36880859 0.48970703 10.17511719 0.54191406 11.00585938 0.59570312 C13.00421738 0.72577376 15.00215386 0.86229056 17 1 C17.33 2.65 17.66 4.3 18 6 C15.69 6.33 13.38 6.66 11 7 C23.15650575 15.30375492 34.610324 19.58206264 49 22 C49.5625 23.9375 49.5625 23.9375 50 26 C49 27 49 27 45.6875 27.25 C30.45375819 27.03198581 17.86195085 19.70124294 6 11 C6 13.31 6 15.62 6 18 C4.34385343 18.38218767 2.67542976 18.71395102 1 19 C-1.12054673 16.87945327 -0.46358777 12.4386521 -0.625 9.5 C-0.70234375 8.30310547 -0.70234375 8.30310547 -0.78125 7.08203125 C-0.89815938 5.05674813 -0.95390612 3.02813088 -1 1 C-0.67 0.67 -0.34 0.34 0 0 Z " fill="#F8FAFB" transform="translate(73,168)"/>
<path d="M0 0 C2.1875 0.31640625 2.1875 0.31640625 4 1 C3.51491868 5.54359502 1.93391433 7.65945738 -1.25 10.875 C-2.01828125 11.67679688 -2.7865625 12.47859375 -3.578125 13.3046875 C-6 15 -6 15 -8.6171875 14.90234375 C-12.00054665 13.62110446 -13.77311396 11.81635587 -16 9 C-15.8125 6.6875 -15.8125 6.6875 -15 5 C-13.88625 5.2475 -13.88625 5.2475 -12.75 5.5 C-9.80993422 6.11925696 -9.80993422 6.11925696 -6 6 C-4.30663038 4.5394687 -2.9935412 2.92975997 -1.5625 1.21484375 C-1.046875 0.81394531 -0.53125 0.41304688 0 0 Z " fill="#F6F8FA" transform="translate(195,96)"/>
<path d="M0 0 C2.19140625 0.31640625 2.19140625 0.31640625 4 1 C3.52002515 5.57196387 1.90638385 7.66138437 -1.3125 10.875 C-2.09238281 11.67679688 -2.87226563 12.47859375 -3.67578125 13.3046875 C-6 15 -6 15 -8.08984375 14.94921875 C-10.2555403 13.87301371 -11.59963386 12.7003911 -13.25 10.9375 C-13.77078125 10.38964844 -14.2915625 9.84179688 -14.828125 9.27734375 C-15.21484375 8.85582031 -15.6015625 8.43429688 -16 8 C-15.34 6.68 -14.68 5.36 -14 4 C-12.8553125 4.495 -12.8553125 4.495 -11.6875 5 C-9.00930865 6.17436686 -9.00930865 6.17436686 -6 6 C-4.38183119 4.5112847 -3.02124806 2.88898772 -1.59765625 1.21484375 C-1.07042969 0.81394531 -0.54320312 0.41304687 0 0 Z " fill="#F4F6F8" transform="translate(152,182)"/>
<path d="M0 0 C0.49224992 3.58824281 0.1778989 4.76438581 -2.046875 7.7109375 C-2.93890625 8.59007812 -3.8309375 9.46921875 -4.75 10.375 C-5.63171875 11.26960937 -6.5134375 12.16421875 -7.421875 13.0859375 C-10 15 -10 15 -12.15234375 14.9296875 C-15.13124058 13.43079227 -16.93438985 11.59676705 -19 9 C-18.8125 6.1875 -18.8125 6.1875 -18 4 C-15.03824877 4.61277612 -13.61941217 5.25372522 -11 7 C-10.54109375 6.4946875 -10.0821875 5.989375 -9.609375 5.46875 C-8.99578125 4.8190625 -8.3821875 4.169375 -7.75 3.5 C-7.14671875 2.8503125 -6.5434375 2.200625 -5.921875 1.53125 C-4 0 -4 0 0 0 Z " fill="#F7F9FA" transform="translate(70,139)"/>
<path d="M0 0 C2.125 0.9375 2.125 0.9375 4 2 C2.46751951 5.58402695 0.3325399 8.02850134 -2.375 10.8125 C-3.14585938 11.62332031 -3.91671875 12.43414062 -4.7109375 13.26953125 C-7 15 -7 15 -9.1171875 14.90625 C-12.08723275 13.47668465 -13.90066281 11.50754165 -16 9 C-16 7.68 -16 6.36 -16 5 C-12.37471432 4.79859524 -10.13498292 5.14223235 -7 7 C-6.21625 6.030625 -5.4325 5.06125 -4.625 4.0625 C-3.08711295 2.16037654 -2.20740087 1.10370043 0 0 Z " fill="#FAFBFC" transform="translate(110,53)"/>
</svg>
