<?xml version="1.0" encoding="UTF-8"?>
<svg version="1.1" xmlns="http://www.w3.org/2000/svg" width="250" height="250">
<path d="M0 0 C82.5 0 165 0 250 0 C250 82.5 250 165 250 250 C167.5 250 85 250 0 250 C0 167.5 0 85 0 0 Z " fill="#49667B" transform="translate(0,0)"/>
<path d="M0 0 C1.19026291 -0.0071553 2.38052582 -0.01431061 3.6068573 -0.02168274 C4.91445007 -0.02437164 6.22204285 -0.02706055 7.56925964 -0.02983093 C8.95896576 -0.03609678 10.34867019 -0.04274369 11.7383728 -0.04974365 C16.3033278 -0.07077031 20.86828309 -0.08114405 25.43327332 -0.09111023 C27.00537827 -0.09515817 28.57748304 -0.0992751 30.14958763 -0.10346031 C37.53498887 -0.12250814 44.92038013 -0.13674058 52.30580121 -0.14507228 C60.82901463 -0.15484658 69.35196847 -0.18117264 77.87509042 -0.22157317 C84.46457668 -0.25173562 91.05398852 -0.26654123 97.64354247 -0.26985329 C101.57855764 -0.27220346 105.51329538 -0.28115939 109.44823647 -0.30631447 C113.15094992 -0.32960301 116.85320342 -0.33382559 120.55597115 -0.32355309 C122.5587012 -0.32282207 124.56140794 -0.34190736 126.56404114 -0.36161804 C137.62485898 -0.29754625 137.62485898 -0.29754625 142.28874207 4.14717102 C143.06181702 4.83287674 143.83489197 5.51858246 144.63139343 6.22506714 C147.1597939 10.6829396 146.84634963 14.85876718 146.80632019 19.90083313 C146.81332947 20.98432541 146.82033875 22.06781769 146.82756042 23.18414307 C146.84516036 26.76452795 146.83350901 30.34412188 146.81999207 33.92451477 C146.82268658 36.41406404 146.82656866 38.90361229 146.83158875 41.39315796 C146.83824198 47.2791701 146.82424705 53.16489558 146.80298567 59.05086571 C146.78797419 63.73990329 146.79327337 68.42860493 146.81022644 73.11763 C146.83341755 79.58792415 146.83704573 86.05789386 146.82400513 92.52821541 C146.82133774 94.99336892 146.82460799 97.45853627 146.83392334 99.92367363 C146.84408991 103.37085886 146.82858405 106.81700637 146.80632019 110.26411438 C146.81441711 111.28197021 146.82251404 112.29982605 146.83085632 113.348526 C146.76005057 119.27076337 146.19409083 122.61494841 142.28874207 127.14717102 C138.53951344 130.44194769 135.37000672 131.2639606 130.45011902 131.35249329 C129.46932877 131.37243851 128.48853851 131.39238373 127.47802734 131.41293335 C126.42169601 131.42964584 125.36536469 131.44635834 124.27702332 131.46357727 C123.19366196 131.48435837 122.1103006 131.50513947 120.99411011 131.52655029 C117.5298859 131.59198899 114.06558526 131.65090455 110.60124207 131.70967102 C108.25422892 131.75286163 105.90722353 131.79647609 103.56022644 131.8405304 C97.80314602 131.94766459 92.0459894 132.04944166 86.28874207 132.14717102 C87.70262586 133.89942017 89.1199699 135.64887757 90.53874207 137.39717102 C91.32764832 138.37170227 92.11655457 139.34623352 92.92936707 140.35029602 C95.19380081 143.13244423 95.19380081 143.13244423 97.59733582 145.36982727 C98.43458191 146.24961243 98.43458191 146.24961243 99.28874207 147.14717102 C99.09858953 149.36561728 98.87352052 150.56239257 97.28874207 152.14717102 C95.30531007 152.25172922 93.31812965 152.28572707 91.33195496 152.29243469 C90.05715775 152.29881454 88.78236053 152.3051944 87.46893311 152.31176758 C86.06642189 152.31329614 84.66391017 152.31441016 83.26139832 152.31513977 C81.83272263 152.31835067 80.40404729 152.32171461 78.97537231 152.32522583 C75.97671242 152.33122341 72.97808137 152.33306509 69.97941589 152.33247375 C66.13116257 152.33237211 62.28309366 152.34602399 58.43488407 152.36324596 C55.48298284 152.37434808 52.53112644 152.37639352 49.57920647 152.37586403 C48.16018984 152.37704687 46.74117215 152.38148556 45.32217598 152.3891964 C43.33978257 152.39895956 41.35733541 152.39486355 39.37492371 152.39009094 C37.68068016 152.39222847 37.68068016 152.39222847 35.95220947 152.39440918 C33.28874207 152.14717102 33.28874207 152.14717102 31.28874207 150.14717102 C31.36761485 145.75001344 34.92333308 142.98862718 37.78874207 140.02217102 C41.45081478 136.3894918 41.45081478 136.3894918 44.28874207 132.14717102 C43.67566193 132.14352539 43.06258179 132.13987976 42.43092346 132.13612366 C36.03890841 132.09425149 29.64760823 132.02487257 23.25602722 131.93965149 C20.87198544 131.91145907 18.48785048 131.89023599 16.10368347 131.87617493 C12.67269754 131.85472233 9.24282982 131.80805738 5.81217957 131.75654602 C4.74945831 131.75531738 3.68673706 131.75408875 2.59181213 131.75282288 C-3.30597688 131.63659449 -7.18841201 131.32519468 -11.71125793 127.14717102 C-16.36622454 121.73335776 -16.29918581 117.12101908 -16.27644348 110.3117218 C-16.28827164 109.23129608 -16.30009979 108.15087036 -16.31228638 107.03770447 C-16.34513664 103.47242329 -16.34813036 99.90790601 -16.34797668 96.34248352 C-16.35829288 93.85915312 -16.36935614 91.37582573 -16.38113403 88.89250183 C-16.40056286 83.68906306 -16.40398869 78.48589305 -16.39753723 73.28242493 C-16.39154059 66.62168306 -16.43577564 59.96283741 -16.49342632 53.30230904 C-16.530436 48.17378064 -16.53532722 43.04558782 -16.53115273 37.9169426 C-16.53402234 35.461777 -16.54807886 33.00659758 -16.57362938 30.55156326 C-16.60564756 27.11389094 -16.59303149 23.67908962 -16.56941223 20.2414093 C-16.58829498 19.23231506 -16.60717773 18.22322083 -16.62663269 17.18354797 C-16.52036413 10.66590522 -15.03471811 7.31064844 -10.5053072 2.60479546 C-7.19347157 -0.08599606 -4.09894731 0.01689832 0 0 Z " fill="#F2F5F7" transform="translate(59.71125793457031,48.85282897949219)"/>
<path d="M0 0 C42.9 0 85.8 0 130 0 C130.0309375 16.3040625 130.0309375 16.3040625 130.0625 32.9375 C130.071604 36.37406006 130.08070801 39.81062012 130.09008789 43.35131836 C130.09300674 46.05582642 130.09555537 48.76033493 130.09765625 51.46484375 C130.10157631 52.5257296 130.10157631 52.5257296 130.10557556 53.60804749 C130.11285596 55.68134933 130.11390732 57.75456822 130.11352539 59.82788086 C130.115746 60.99814316 130.11796661 62.16840546 130.12025452 63.37413025 C130 66 130 66 129 67 C127.34474177 67.098288 125.68527328 67.12631976 124.02709961 67.12698364 C122.95015839 67.12980347 121.87321716 67.13262329 120.76364136 67.13552856 C119.57191315 67.13350433 118.38018494 67.1314801 117.15234375 67.12939453 C115.2818486 67.13202301 115.2818486 67.13202301 113.37356567 67.13470459 C109.94389396 67.13836289 106.51428221 67.13748961 103.0846138 67.1343255 C99.50294155 67.13180161 95.92127195 67.13413952 92.33959961 67.13571167 C86.32372576 67.13753328 80.30786417 67.13512728 74.29199219 67.13037109 C67.32727673 67.12492849 60.36259054 67.12669115 53.39787579 67.1321975 C47.42846011 67.13672887 41.45905326 67.13737906 35.48963642 67.13475883 C31.9198337 67.13319619 28.35004476 67.13300193 24.78024292 67.13629532 C20.80270237 67.13970825 16.82519486 67.13498389 12.84765625 67.12939453 C11.06006393 67.13243088 11.06006393 67.13243088 9.23635864 67.13552856 C7.62094681 67.13129883 7.62094681 67.13129883 5.97290039 67.12698364 C5.03120499 67.12660662 4.08950958 67.12622959 3.11927795 67.12584114 C1 67 1 67 0 66 C-0.09413687 63.94443339 -0.11742998 61.88559819 -0.11352539 59.82788086 C-0.11364593 59.17355607 -0.11376646 58.51923128 -0.11389065 57.84507847 C-0.11314179 55.71829948 -0.10551481 53.59160715 -0.09765625 51.46484375 C-0.09664917 50.16840942 -0.09564209 48.8719751 -0.09460449 47.53625488 C-0.08935257 42.66999432 -0.07539147 37.80374632 -0.0625 32.9375 C-0.041875 22.068125 -0.02125 11.19875 0 0 Z " fill="#4D697E" transform="translate(60,86)"/>
<path d="M0 0 C1.19026291 -0.0071553 2.38052582 -0.01431061 3.6068573 -0.02168274 C4.91445007 -0.02437164 6.22204285 -0.02706055 7.56925964 -0.02983093 C8.95896576 -0.03609678 10.34867019 -0.04274369 11.7383728 -0.04974365 C16.3033278 -0.07077031 20.86828309 -0.08114405 25.43327332 -0.09111023 C27.00537827 -0.09515817 28.57748304 -0.0992751 30.14958763 -0.10346031 C37.53498887 -0.12250814 44.92038013 -0.13674058 52.30580121 -0.14507228 C60.82901463 -0.15484658 69.35196847 -0.18117264 77.87509042 -0.22157317 C84.46457668 -0.25173562 91.05398852 -0.26654123 97.64354247 -0.26985329 C101.57855764 -0.27220346 105.51329538 -0.28115939 109.44823647 -0.30631447 C113.15094992 -0.32960301 116.85320342 -0.33382559 120.55597115 -0.32355309 C122.5587012 -0.32282207 124.56140794 -0.34190736 126.56404114 -0.36161804 C137.62485898 -0.29754625 137.62485898 -0.29754625 142.28874207 4.14717102 C143.06181702 4.83287674 143.83489197 5.51858246 144.63139343 6.22506714 C147.1597939 10.6829396 146.84634963 14.85876718 146.80632019 19.90083313 C146.81332947 20.98432541 146.82033875 22.06781769 146.82756042 23.18414307 C146.84516036 26.76452795 146.83350901 30.34412188 146.81999207 33.92451477 C146.82268658 36.41406404 146.82656866 38.90361229 146.83158875 41.39315796 C146.83824198 47.2791701 146.82424705 53.16489558 146.80298567 59.05086571 C146.78797419 63.73990329 146.79327337 68.42860493 146.81022644 73.11763 C146.83341755 79.58792415 146.83704573 86.05789386 146.82400513 92.52821541 C146.82133774 94.99336892 146.82460799 97.45853627 146.83392334 99.92367363 C146.84408991 103.37085886 146.82858405 106.81700637 146.80632019 110.26411438 C146.81441711 111.28197021 146.82251404 112.29982605 146.83085632 113.348526 C146.76005057 119.27076337 146.19409083 122.61494841 142.28874207 127.14717102 C138.53951344 130.44194769 135.37000672 131.2639606 130.45011902 131.35249329 C129.46932877 131.37243851 128.48853851 131.39238373 127.47802734 131.41293335 C126.42169601 131.42964584 125.36536469 131.44635834 124.27702332 131.46357727 C123.19366196 131.48435837 122.1103006 131.50513947 120.99411011 131.52655029 C117.5298859 131.59198899 114.06558526 131.65090455 110.60124207 131.70967102 C108.25422892 131.75286163 105.90722353 131.79647609 103.56022644 131.8405304 C97.80314602 131.94766459 92.0459894 132.04944166 86.28874207 132.14717102 C87.70262586 133.89942017 89.1199699 135.64887757 90.53874207 137.39717102 C91.32764832 138.37170227 92.11655457 139.34623352 92.92936707 140.35029602 C95.19380081 143.13244423 95.19380081 143.13244423 97.59733582 145.36982727 C98.43458191 146.24961243 98.43458191 146.24961243 99.28874207 147.14717102 C99.09858953 149.36561728 98.87352052 150.56239257 97.28874207 152.14717102 C95.30531007 152.25172922 93.31812965 152.28572707 91.33195496 152.29243469 C90.05715775 152.29881454 88.78236053 152.3051944 87.46893311 152.31176758 C86.06642189 152.31329614 84.66391017 152.31441016 83.26139832 152.31513977 C81.83272263 152.31835067 80.40404729 152.32171461 78.97537231 152.32522583 C75.97671242 152.33122341 72.97808137 152.33306509 69.97941589 152.33247375 C66.13116257 152.33237211 62.28309366 152.34602399 58.43488407 152.36324596 C55.48298284 152.37434808 52.53112644 152.37639352 49.57920647 152.37586403 C48.16018984 152.37704687 46.74117215 152.38148556 45.32217598 152.3891964 C43.33978257 152.39895956 41.35733541 152.39486355 39.37492371 152.39009094 C37.68068016 152.39222847 37.68068016 152.39222847 35.95220947 152.39440918 C33.28874207 152.14717102 33.28874207 152.14717102 31.28874207 150.14717102 C31.36761485 145.75001344 34.92333308 142.98862718 37.78874207 140.02217102 C41.45081478 136.3894918 41.45081478 136.3894918 44.28874207 132.14717102 C43.67566193 132.14352539 43.06258179 132.13987976 42.43092346 132.13612366 C36.03890841 132.09425149 29.64760823 132.02487257 23.25602722 131.93965149 C20.87198544 131.91145907 18.48785048 131.89023599 16.10368347 131.87617493 C12.67269754 131.85472233 9.24282982 131.80805738 5.81217957 131.75654602 C4.74945831 131.75531738 3.68673706 131.75408875 2.59181213 131.75282288 C-3.30597688 131.63659449 -7.18841201 131.32519468 -11.71125793 127.14717102 C-16.36622454 121.73335776 -16.29918581 117.12101908 -16.27644348 110.3117218 C-16.28827164 109.23129608 -16.30009979 108.15087036 -16.31228638 107.03770447 C-16.34513664 103.47242329 -16.34813036 99.90790601 -16.34797668 96.34248352 C-16.35829288 93.85915312 -16.36935614 91.37582573 -16.38113403 88.89250183 C-16.40056286 83.68906306 -16.40398869 78.48589305 -16.39753723 73.28242493 C-16.39154059 66.62168306 -16.43577564 59.96283741 -16.49342632 53.30230904 C-16.530436 48.17378064 -16.53532722 43.04558782 -16.53115273 37.9169426 C-16.53402234 35.461777 -16.54807886 33.00659758 -16.57362938 30.55156326 C-16.60564756 27.11389094 -16.59303149 23.67908962 -16.56941223 20.2414093 C-16.58829498 19.23231506 -16.60717773 18.22322083 -16.62663269 17.18354797 C-16.52036413 10.66590522 -15.03471811 7.31064844 -10.5053072 2.60479546 C-7.19347157 -0.08599606 -4.09894731 0.01689832 0 0 Z M-9.71125793 10.14717102 C-10.30455389 12.38196612 -10.30455389 12.38196612 -10.2191925 14.81526184 C-10.2304718 15.74895096 -10.2417511 16.68264008 -10.25337219 17.6446228 C-10.24527527 18.6618895 -10.23717834 19.67915619 -10.22883606 20.72724915 C-10.23584534 21.80405441 -10.24285461 22.88085968 -10.25007629 23.99029541 C-10.26769586 27.55326549 -10.25601881 31.11544272 -10.24250793 34.67842102 C-10.24520169 37.15177056 -10.24908314 39.62511906 -10.25410461 42.09846497 C-10.26000506 47.28358537 -10.25141871 52.46843027 -10.23274231 57.65351868 C-10.20995269 64.30534058 -10.22307262 70.9562479 -10.24703217 77.60808563 C-10.26147508 82.71584451 -10.25689097 87.82344992 -10.246521 92.93121338 C-10.24384957 95.38406449 -10.24713802 97.83692947 -10.25643921 100.2897644 C-10.26657951 103.71591686 -10.2511375 107.14101883 -10.22883606 110.5670929 C-10.23693298 111.58435959 -10.24502991 112.60162628 -10.25337219 113.64971924 C-10.2420929 114.58340836 -10.2308136 115.51709747 -10.2191925 116.4790802 C-10.2176844 117.28874992 -10.2161763 118.09841965 -10.2146225 118.93262482 C-9.50121535 122.07125081 -8.27297149 123.2370648 -5.71125793 125.14717102 C-2.95461959 125.74602154 -2.95461959 125.74602154 0.13371277 125.65510559 C1.92550461 125.67202454 1.92550461 125.67202454 3.75349426 125.68928528 C5.06063385 125.68118835 6.36777344 125.67309143 7.71452332 125.66474915 C9.10762768 125.6701704 10.50072631 125.67729308 11.89381409 125.68598938 C15.67485992 125.70422573 19.45546921 125.69715421 23.23652267 125.68447304 C27.1931501 125.67434686 31.14974012 125.68373765 35.10636902 125.6900177 C41.75088716 125.69729524 48.39522748 125.6877037 55.03971863 125.6686554 C62.72200299 125.64688632 70.40386274 125.65393762 78.08613682 125.67596102 C84.68159145 125.69411207 91.27691825 125.69667483 97.87238979 125.68620634 C101.81175128 125.67996973 105.75091317 125.67914022 109.69026184 125.69235229 C113.39387008 125.70390604 117.09693081 125.69589454 120.80047989 125.67277527 C122.80830889 125.66496182 124.81618419 125.67684816 126.82398987 125.68928528 C128.01851776 125.67800598 129.21304565 125.66672668 130.44377136 125.65510559 C131.48204575 125.65359749 132.52032013 125.65208939 133.59005737 125.65053558 C137.04351596 125.00638895 138.21918561 123.95389143 140.28874207 121.14717102 C140.88203802 118.91237592 140.88203802 118.91237592 140.79667664 116.4790802 C140.80795593 115.54539108 140.81923523 114.61170197 140.83085632 113.64971924 C140.8227594 112.63245255 140.81466248 111.61518585 140.80632019 110.5670929 C140.81332947 109.49028763 140.82033875 108.41348236 140.82756042 107.30404663 C140.84517999 103.74107655 140.83350294 100.17889932 140.81999207 96.61592102 C140.82268582 94.14257148 140.82656727 91.66922298 140.83158875 89.19587708 C140.83748919 84.01075667 140.82890284 78.82591177 140.81022644 73.64082336 C140.78743682 66.98900146 140.80055675 60.33809414 140.8245163 53.68625641 C140.83895921 48.57849754 140.8343751 43.47089212 140.82400513 38.36312866 C140.8213337 35.91027755 140.82462215 33.45741257 140.83392334 31.00457764 C140.84406364 27.57842518 140.82862163 24.15332321 140.80632019 20.72724915 C140.81441711 19.70998245 140.82251404 18.69271576 140.83085632 17.6446228 C140.81957703 16.71093369 140.80829773 15.77724457 140.79667664 14.81526184 C140.79516853 14.00559212 140.79366043 13.19592239 140.79210663 12.36171722 C140.07869948 9.22309123 138.85045562 8.05727724 136.28874207 6.14717102 C133.53210372 5.54832051 133.53210372 5.54832051 130.44377136 5.63923645 C128.65197952 5.6223175 128.65197952 5.6223175 126.82398987 5.60505676 C125.51685028 5.61315369 124.20971069 5.62125061 122.86296082 5.6295929 C121.46985645 5.62417164 120.07675782 5.61704896 118.68367004 5.60835266 C114.90262421 5.59011631 111.12201492 5.59718783 107.34096146 5.609869 C103.38433403 5.61999518 99.42774401 5.61060439 95.47111511 5.60432434 C88.82659697 5.5970468 82.18225665 5.60663835 75.5377655 5.62568665 C67.85548114 5.64745572 60.17362139 5.64040442 52.49134731 5.61838102 C45.89589268 5.60022997 39.30056588 5.59766721 32.70509434 5.6081357 C28.76573285 5.61437231 24.82657096 5.61520182 20.88722229 5.60198975 C17.18361405 5.590436 13.48055332 5.5984475 9.77700424 5.62156677 C7.76917524 5.62938022 5.76129994 5.61749388 3.75349426 5.60505676 C2.55896637 5.61633606 1.36443848 5.62761536 0.13371277 5.63923645 C-0.90456161 5.64074455 -1.942836 5.64225266 -3.01257324 5.64380646 C-6.46603183 6.2879531 -7.64170148 7.34045061 -9.71125793 10.14717102 Z " fill="#F0F4F6" transform="translate(59.71125793457031,48.85282897949219)"/>
<path d="M0 0 C1.19452789 -0.0112793 2.38905579 -0.02255859 3.61978149 -0.03417969 C4.92692108 -0.02608276 6.23406067 -0.01798584 7.58081055 -0.00964355 C8.97391491 -0.01506481 10.36701355 -0.02218749 11.76010132 -0.03088379 C15.54114715 -0.04912014 19.32175644 -0.04204862 23.10280991 -0.02936745 C27.05943733 -0.01924127 31.01602736 -0.02863206 34.97265625 -0.03491211 C41.6171744 -0.04218965 48.26151471 -0.0325981 54.90600586 -0.0135498 C62.58829023 0.00821927 70.27014997 0.00116797 77.95242405 -0.02085543 C84.54787869 -0.03900648 91.14320548 -0.04156924 97.73867702 -0.03110075 C101.67803851 -0.02486414 105.6172004 -0.02403463 109.55654907 -0.0372467 C113.26015731 -0.04880045 116.96321804 -0.04078895 120.66676712 -0.01766968 C122.67459612 -0.00985623 124.68247142 -0.02174257 126.6902771 -0.03417969 C128.48206894 -0.01726074 128.48206894 -0.01726074 130.31005859 0 C131.34833298 0.0015081 132.38660736 0.0030162 133.4563446 0.00457001 C136.90980319 0.64871664 138.08547284 1.70121416 140.1550293 4.50793457 C140.65839386 6.72248077 140.65839386 6.72248077 140.66296387 9.17602539 C140.67424316 10.10971451 140.68552246 11.04340363 140.69714355 12.00538635 C140.68904663 13.02265305 140.68094971 14.03991974 140.67260742 15.0880127 C140.6796167 16.16481796 140.68662598 17.24162323 140.69384766 18.35105896 C140.71146722 21.91402904 140.69979017 25.47620627 140.6862793 29.03918457 C140.68897305 31.51253411 140.6928545 33.98588261 140.69787598 36.45922852 C140.70377642 41.64434892 140.69519007 46.82919382 140.67651367 52.01428223 C140.65372405 58.66610413 140.66684398 65.31701145 140.69080353 71.96884918 C140.70524644 77.07660806 140.70066233 82.18421347 140.69029236 87.29197693 C140.68762093 89.74482804 140.69090938 92.19769302 140.70021057 94.65052795 C140.71035087 98.07668041 140.69490886 101.50178238 140.67260742 104.92785645 C140.68070435 105.94512314 140.68880127 106.96238983 140.69714355 108.01048279 C140.68586426 108.94417191 140.67458496 109.87786102 140.66296387 110.83984375 C140.66145576 111.64951347 140.65994766 112.4591832 140.65839386 113.29338837 C139.94498671 116.43201436 138.71674285 117.59782835 136.1550293 119.50793457 C133.4563446 120.01129913 133.4563446 120.01129913 130.31005859 120.01586914 C129.1155307 120.02714844 127.92100281 120.03842773 126.6902771 120.05004883 C124.72956772 120.03790344 124.72956772 120.03790344 122.72924805 120.0255127 C121.33614368 120.03093395 119.94304505 120.03805663 118.54995728 120.04675293 C114.76891145 120.06498928 110.98830216 120.05791776 107.20724869 120.04523659 C103.25062126 120.03511041 99.29403124 120.0445012 95.33740234 120.05078125 C88.6928842 120.05805879 82.04854388 120.04846725 75.40405273 120.02941895 C67.72176837 120.00764987 60.03990862 120.01470117 52.35763454 120.03672457 C45.76217991 120.05487562 39.16685311 120.05743838 32.57138157 120.04696989 C28.63202008 120.04073328 24.69285819 120.03990377 20.75350952 120.05311584 C17.04990128 120.06466959 13.34684055 120.05665809 9.64329147 120.03353882 C7.63546247 120.02572537 5.62758718 120.03761171 3.61978149 120.05004883 C1.82798965 120.03312988 1.82798965 120.03312988 0 120.01586914 C-1.03827438 120.01436104 -2.07654877 120.01285294 -3.14628601 120.01129913 C-6.59974459 119.3671525 -7.77541425 118.31465498 -9.8449707 115.50793457 C-10.34833527 113.29338837 -10.34833527 113.29338837 -10.35290527 110.83984375 C-10.36418457 109.90615463 -10.37546387 108.97246552 -10.38708496 108.01048279 C-10.37898804 106.99321609 -10.37089111 105.9759494 -10.36254883 104.92785645 C-10.36955811 103.85105118 -10.37656738 102.77424591 -10.38378906 101.66481018 C-10.40140862 98.1018401 -10.38973158 94.53966287 -10.3762207 90.97668457 C-10.37891446 88.50333503 -10.3827959 86.02998653 -10.38781738 83.55664062 C-10.39371783 78.37152022 -10.38513148 73.18667532 -10.36645508 68.00158691 C-10.34366546 61.34976501 -10.35678539 54.69885769 -10.38074493 48.04701996 C-10.39518785 42.93926109 -10.39060374 37.83165567 -10.38023376 32.72389221 C-10.37756233 30.2710411 -10.38085079 27.81817612 -10.39015198 25.36534119 C-10.40029228 21.93918873 -10.38485026 18.51408676 -10.36254883 15.0880127 C-10.37064575 14.070746 -10.37874268 13.05347931 -10.38708496 12.00538635 C-10.37580566 11.07169724 -10.36452637 10.13800812 -10.35290527 9.17602539 C-10.35139717 8.36635567 -10.34988907 7.55668594 -10.34833527 6.72248077 C-9.0675946 1.08787797 -5.25806016 0.00763738 0 0 Z M-4.8449707 9.50793457 C-6.43550781 12.68900879 -6.01915833 16.1310319 -6.0378418 19.62609863 C-6.04601929 20.46531357 -6.05419678 21.3045285 -6.06262207 22.16917419 C-6.08748894 24.95396203 -6.1039962 27.7386988 -6.1184082 30.52355957 C-6.12373188 31.47406944 -6.12905556 32.42457932 -6.13454056 33.40389252 C-6.16127895 38.43579808 -6.18065083 43.46767878 -6.19506836 48.49963379 C-6.21170953 53.6962463 -6.2564809 58.8922238 -6.3074398 64.08859634 C-6.34110525 68.08464278 -6.35264508 72.08053845 -6.35829544 76.07671356 C-6.36501085 77.99207151 -6.38024045 79.90741944 -6.40418625 81.82263947 C-6.43582327 84.50634885 -6.4358769 87.1883453 -6.4284668 89.87219238 C-6.44487213 90.66099289 -6.46127747 91.4497934 -6.47817993 92.26249695 C-6.42905857 96.61684426 -5.90199564 100.13905101 -2.70444679 103.4260788 C1.60538719 105.93356938 6.83519962 105.31418561 11.66870117 105.25256348 C12.93911758 105.25986481 14.209534 105.26716614 15.51844788 105.27468872 C18.99605525 105.29347042 22.47253325 105.27468986 25.95005226 105.24802446 C29.59255725 105.22535667 33.2350082 105.23361344 36.87756348 105.23751831 C42.99416509 105.23928308 49.11032291 105.21714801 55.22680664 105.18029785 C62.29394564 105.13796348 69.36043465 105.13094316 76.42767477 105.14342177 C83.23170124 105.15481963 90.03549927 105.14350556 96.8394928 105.12107468 C99.7325514 105.11179646 102.62547 105.11002893 105.51853943 105.11424637 C109.55982379 105.11872069 113.60020154 105.08976641 117.64135742 105.05725098 C119.44003014 105.06468323 119.44003014 105.06468323 121.27503967 105.07226562 C127.6327819 105.04235164 127.6327819 105.04235164 133.37463379 102.59860229 C136.68669163 98.70934713 136.30930289 95.27333215 136.31616211 90.37390137 C136.32112701 89.53308014 136.32609192 88.69225891 136.33120728 87.82595825 C136.3458464 85.03634836 136.35263414 82.24679536 136.3581543 79.45715332 C136.36390473 77.5214284 136.36966248 75.58570351 136.37542725 73.64997864 C136.38594251 69.58708429 136.39178159 65.52420976 136.39526367 61.46130371 C136.40074657 56.25580164 136.42476804 51.05056139 136.45323563 45.84514141 C136.47186293 41.84484595 136.47706768 37.8446135 136.47859955 33.84427834 C136.48162688 31.92533755 136.48965813 30.00639789 136.50278473 28.08749962 C136.51984556 25.40151466 136.51796481 22.71616858 136.51147461 20.03015137 C136.52529678 18.84155769 136.52529678 18.84155769 136.53939819 17.62895203 C136.50500733 13.08388493 135.99974175 10.11078742 133.1550293 6.50793457 C130.60026479 5.23055232 128.7915761 5.37341704 125.9302063 5.36076355 C124.82256927 5.35360825 123.71493225 5.34645294 122.57373047 5.33908081 C120.74249634 5.33504745 120.74249634 5.33504745 118.87426758 5.33093262 C117.59292938 5.32436142 116.31159119 5.31779022 114.99142456 5.3110199 C111.47073181 5.29360702 107.95005263 5.28305768 104.42932749 5.27481437 C102.23055059 5.26966552 100.03177792 5.26358978 97.833004 5.25730324 C90.95591075 5.23825158 84.07882825 5.22401959 77.20171368 5.21569127 C69.25859697 5.20591354 61.31575854 5.17958027 53.37273991 5.13919038 C47.23595507 5.10905385 41.09925011 5.09422481 34.96239269 5.09091026 C31.29569655 5.08855721 27.6292977 5.07956418 23.96268082 5.05444908 C19.87313491 5.02688943 15.78421285 5.03099186 11.69458008 5.03796387 C10.47780579 5.02515381 9.26103149 5.01234375 8.00738525 4.99914551 C6.89410858 5.00608932 5.78083191 5.01303314 4.63381958 5.02018738 C3.666691 5.01779902 2.69956242 5.01541067 1.70312691 5.01294994 C-1.58190549 5.65108897 -2.75107673 6.95822455 -4.8449707 9.50793457 Z " fill="#4A667A" transform="translate(59.844970703125,54.4920654296875)"/>
<path d="M0 0 C1.07694122 -0.00281982 2.15388245 -0.00563965 3.26345825 -0.00854492 C5.05105057 -0.00550858 5.05105057 -0.00550858 6.87475586 -0.00241089 C8.12175262 -0.00416321 9.36874939 -0.00591553 10.65353394 -0.00772095 C14.08320565 -0.01137925 17.5128174 -0.01050596 20.94248581 -0.00734186 C24.52415805 -0.00481797 28.10582766 -0.00715588 31.6875 -0.00872803 C37.70337385 -0.01054964 43.71923543 -0.00814364 49.73510742 -0.00338745 C56.69982288 0.00205516 63.66450907 0.00029249 70.62922382 -0.00521386 C76.5986395 -0.00974523 82.56804635 -0.01039542 88.53746319 -0.00777519 C92.10726591 -0.00621255 95.67705485 -0.00601829 99.24685669 -0.00931168 C103.22439724 -0.01272461 107.20190475 -0.00800025 111.17944336 -0.00241089 C112.37117157 -0.00443512 113.56289978 -0.00645935 114.79074097 -0.00854492 C116.4061528 -0.00431519 116.4061528 -0.00431519 118.05419922 0 C118.99589462 0.00037703 119.93759003 0.00075405 120.90782166 0.0011425 C123.02709961 0.12698364 123.02709961 0.12698364 124.02709961 1.12698364 C124.02709961 5.74698364 124.02709961 10.36698364 124.02709961 15.12698364 C81.12709961 15.12698364 38.22709961 15.12698364 -5.97290039 15.12698364 C-5.97290039 0.00239136 -5.97290039 0.00239136 0 0 Z " fill="#58768B" transform="translate(65.972900390625,64.87301635742188)"/>
<path d="M0 0 C1.11850342 0.29986816 2.23700684 0.59973633 3.3894043 0.90869141 C6.71220452 1.82644432 10.01328289 2.80711014 13.31103516 3.81079102 C15.38817213 4.44149963 17.46912336 5.05822631 19.55078125 5.67382812 C20.87524818 6.07209224 22.19947617 6.47115206 23.5234375 6.87109375 C24.71888184 7.23130615 25.91432617 7.59151855 27.14599609 7.96264648 C30 9 30 9 32 11 C32.1953125 14.2578125 32.1953125 14.2578125 32.125 18.125 C32.10695313 19.40632813 32.08890625 20.68765625 32.0703125 22.0078125 C32.04710937 22.99523437 32.02390625 23.98265625 32 25 C30.02 25 28.04 25 26 25 C26 22.03 26 19.06 26 16 C24.68 16.33 23.36 16.66 22 17 C21.90912109 18.60681641 21.90912109 18.60681641 21.81640625 20.24609375 C21.73201463 21.64324391 21.64736594 23.04037857 21.5625 24.4375 C21.52318359 25.14455078 21.48386719 25.85160156 21.44335938 26.58007812 C21.11328125 31.88671875 21.11328125 31.88671875 20 33 C18.44000952 33.09846967 16.87559456 33.12798618 15.3125 33.12939453 C14.31476563 33.13254669 13.31703125 33.13569885 12.2890625 33.13894653 C11.20367187 33.1369223 10.11828125 33.13489807 9 33.1328125 C7.89398438 33.13376923 6.78796875 33.13472595 5.6484375 33.13571167 C3.30468692 33.13639367 0.96093447 33.13453804 -1.3828125 33.13037109 C-4.98441788 33.12502314 -8.58589853 33.13031547 -12.1875 33.13671875 C-14.45833361 33.13605797 -16.72916714 33.13477682 -19 33.1328125 C-20.08539063 33.13483673 -21.17078125 33.13686096 -22.2890625 33.13894653 C-23.28679687 33.13579437 -24.28453125 33.13264221 -25.3125 33.12939453 C-26.19550781 33.12859894 -27.07851562 33.12780334 -27.98828125 33.12698364 C-30 33 -30 33 -31 32 C-31.23653523 29.47403741 -31.42173692 26.96892793 -31.5625 24.4375 C-31.60568359 23.72658203 -31.64886719 23.01566406 -31.69335938 22.28320312 C-31.79971777 20.52238088 -31.90038846 18.7612168 -32 17 C-34.97 16.01 -37.94 15.02 -41 14 C-41 12.68 -41 11.36 -41 10 C-34.53040072 7.03281078 -27.84502216 4.88742961 -21.0625 2.75 C-19.92103516 2.37359375 -18.77957031 1.9971875 -17.60351562 1.609375 C-11.44086725 -0.32735563 -6.35575623 -1.75541873 0 0 Z " fill="#F9FAFB" transform="translate(130,92)"/>
<path d="M0 0 C1.0621875 0.0007251 2.124375 0.0014502 3.21875 0.00219727 C9.86354099 0.34692626 13.96130897 1.61063553 18.69677734 6.35107422 C25.375 14.15625909 25.375 14.15625909 25.375 16.375 C8.875 16.375 -7.625 16.375 -24.625 16.375 C-22.645 14.065 -20.665 11.755 -18.625 9.375 C-18.06119629 8.58786621 -17.49739258 7.80073242 -16.91650391 6.98974609 C-12.24249875 0.60716936 -7.6725101 -0.09626513 0 0 Z " fill="#3C596B" transform="translate(124.625,178.625)"/>
<path d="M0 0 C1.93552734 0.45052734 1.93552734 0.45052734 3.91015625 0.91015625 C5.6274616 1.29490772 7.3449177 1.67898678 9.0625 2.0625 C10.33383789 2.36124023 10.33383789 2.36124023 11.63085938 2.66601562 C20.38101831 4.59172628 27.51738183 2.7091479 36.109375 0.62109375 C39 0 39 0 42 0 C42 3.3 42 6.6 42 10 C28.14 10 14.28 10 0 10 C0 6.7 0 3.4 0 0 Z " fill="#557085" transform="translate(104,110)"/>
<path d="M0 0 C0.72251953 0.23396484 1.44503906 0.46792969 2.18945312 0.70898438 C3.94131516 1.27746941 5.68979479 1.85636121 7.4375 2.4375 C6.4375 4.4375 6.4375 4.4375 4.73852539 5.04760742 C-14.31120276 9.33036625 -14.31120276 9.33036625 -22.5625 7.4375 C-23.70074219 7.21320313 -24.83898437 6.98890625 -26.01171875 6.7578125 C-32.55569873 5.38534535 -32.55569873 5.38534535 -35.5625 4.4375 C-35.8925 3.7775 -36.2225 3.1175 -36.5625 2.4375 C-33.59307309 1.38672399 -30.61095935 0.37773095 -27.625 -0.625 C-26.79419922 -0.91955078 -25.96339844 -1.21410156 -25.10742188 -1.51757812 C-16.00251628 -4.52892822 -8.89532623 -2.97622443 0 0 Z " fill="#557085" transform="translate(139.5625,100.5625)"/>
<path d="M0 0 C1.27875 0.00257813 2.5575 0.00515625 3.875 0.0078125 C5.15375 0.00523437 6.4325 0.00265625 7.75 0 C10.875 0.1328125 10.875 0.1328125 11.875 1.1328125 C11.94771741 3.48594805 11.95870868 5.84114918 11.9375 8.1953125 C11.92847656 9.48566406 11.91945312 10.77601563 11.91015625 12.10546875 C11.89855469 13.10449219 11.88695312 14.10351562 11.875 15.1328125 C9.39576199 15.15966345 6.9168116 15.17957797 4.4375 15.1953125 C3.73044922 15.20369141 3.02339844 15.21207031 2.29492188 15.22070312 C0.48806441 15.22934838 -1.31887603 15.18501261 -3.125 15.1328125 C-4.125 14.1328125 -4.125 14.1328125 -4.2578125 11.2265625 C-4.25523437 10.040625 -4.25265625 8.8546875 -4.25 7.6328125 C-4.25257813 6.446875 -4.25515625 5.2609375 -4.2578125 4.0390625 C-4.07377646 0.01192102 -4.06289967 0.17267324 0 0 Z " fill="#FBFCFC" transform="translate(152.125,132.8671875)"/>
<path d="M0 0 C1.27875 0.00257813 2.5575 0.00515625 3.875 0.0078125 C5.15375 0.00523437 6.4325 0.00265625 7.75 0 C10.875 0.1328125 10.875 0.1328125 11.875 1.1328125 C11.9739294 3.29762047 12.004711 5.46575035 12 7.6328125 C12.00386719 9.41171875 12.00386719 9.41171875 12.0078125 11.2265625 C11.875 14.1328125 11.875 14.1328125 10.875 15.1328125 C8.34450598 15.20594817 5.84195163 15.22528777 3.3125 15.1953125 C2.24612305 15.18854492 2.24612305 15.18854492 1.15820312 15.18164062 C-0.60290013 15.16982114 -2.36396036 15.15188513 -4.125 15.1328125 C-4.15185412 12.82037458 -4.17132841 10.5078498 -4.1875 8.1953125 C-4.19910156 6.90753906 -4.21070312 5.61976563 -4.22265625 4.29296875 C-4.09537209 0.17405331 -4.09537209 0.17405331 0 0 Z " fill="#FBFCFC" transform="translate(90.125,132.8671875)"/>
<path d="M0 0 C4.95 0 9.9 0 15 0 C15 4.95 15 9.9 15 15 C10.05 15 5.1 15 0 15 C0 10.05 0 5.1 0 0 Z " fill="#FEFEFE" transform="translate(128,133)"/>
<path d="M0 0 C4.95 0 9.9 0 15 0 C15 4.95 15 9.9 15 15 C10.05 15 5.1 15 0 15 C0 10.05 0 5.1 0 0 Z " fill="#FEFEFE" transform="translate(107,133)"/>
<path d="M0 0 C1.98 0 3.96 0 6 0 C6 1.98 6 3.96 6 6 C4.02 6 2.04 6 0 6 C0 4.02 0 2.04 0 0 Z " fill="#E0E8ED" transform="translate(169,70)"/>
<path d="M0 0 C1.98 0 3.96 0 6 0 C6 1.98 6 3.96 6 6 C4.02 6 2.04 6 0 6 C0 4.02 0 2.04 0 0 Z " fill="#E6EDF1" transform="translate(179,70)"/>
<path d="M0 0 C1.98 0 3.96 0 6 0 C6 1.65 6 3.3 6 5 C4.02 5 2.04 5 0 5 C0 3.35 0 1.7 0 0 Z " fill="#F2F5F7" transform="translate(122,164)"/>
<path d="M0 0 C1.65 0 3.3 0 5 0 C5 1.98 5 3.96 5 6 C3.35 6 1.7 6 0 6 C0 4.02 0 2.04 0 0 Z " fill="#F4F7F9" transform="translate(159,70)"/>
<path d="M0 0 C1.65 0 3.3 0 5 0 C5 1.65 5 3.3 5 5 C3.35 5 1.7 5 0 5 C0 3.35 0 1.7 0 0 Z " fill="#547085" transform="translate(154,138)"/>
<path d="M0 0 C1.65 0 3.3 0 5 0 C5 1.65 5 3.3 5 5 C3.35 5 1.7 5 0 5 C0 3.35 0 1.7 0 0 Z " fill="#4D697E" transform="translate(133,138)"/>
<path d="M0 0 C1.65 0 3.3 0 5 0 C5 1.65 5 3.3 5 5 C3.35 5 1.7 5 0 5 C0 3.35 0 1.7 0 0 Z " fill="#4D697E" transform="translate(112,138)"/>
<path d="M0 0 C1.65 0 3.3 0 5 0 C5 1.65 5 3.3 5 5 C3.35 5 1.7 5 0 5 C0 3.35 0 1.7 0 0 Z " fill="#547085" transform="translate(91,138)"/>
</svg>
