<?xml version="1.0" encoding="UTF-8"?>
<svg version="1.1" xmlns="http://www.w3.org/2000/svg" width="250" height="250">
<path d="M0 0 C82.5 0 165 0 250 0 C250 82.5 250 165 250 250 C167.5 250 85 250 0 250 C0 167.5 0 85 0 0 Z " fill="#4C687D" transform="translate(0,0)"/>
<path d="M0 0 C0.97766327 -0.00861557 1.95532654 -0.01723114 2.96261597 -0.02610779 C6.19613073 -0.04882046 9.4287825 -0.0420187 12.66235352 -0.03295898 C14.90910602 -0.0381924 17.15585632 -0.04446784 19.40260315 -0.05174255 C24.1127455 -0.06215674 28.82258594 -0.05757078 33.53271484 -0.04296875 C39.57018173 -0.0257845 45.60669664 -0.04926728 51.64405727 -0.08445835 C56.28435072 -0.10641474 60.9244158 -0.10499498 65.56474495 -0.09669304 C67.79070136 -0.09587247 70.01667436 -0.10275598 72.24258232 -0.11746407 C75.35502562 -0.13487566 78.46575097 -0.12039428 81.578125 -0.09765625 C82.49828903 -0.10934845 83.41845306 -0.12104065 84.36650085 -0.13308716 C88.73177427 -0.06817171 90.78124997 0.12820591 94.42926025 2.71038818 C96.62535289 5.93184874 96.96418507 7.47308457 96.92138672 11.33349609 C96.92100906 12.4743013 96.92063141 13.61510651 96.92024231 14.79048157 C96.89443588 16.01148056 96.86862946 17.23247955 96.84204102 18.49047852 C96.83496628 19.74857834 96.82789154 21.00667816 96.82060242 22.30290222 C96.79738347 25.63594053 96.75252525 28.96724702 96.69708252 32.29980469 C96.6457871 35.70500782 96.62306668 39.1103904 96.59790039 42.51586914 C96.54279747 49.18887173 96.45914269 55.86105957 96.35375977 62.53344727 C98.33375977 63.02844727 98.33375977 63.02844727 100.35375977 63.53344727 C101.68942733 66.56905536 101.26954943 67.79543498 100.22875977 71.03344727 C98.17616582 74.86495596 97.05625219 76.30685629 93.35375977 78.53344727 C89.97762753 79.11825094 86.6463234 79.0799874 83.22680664 79.05102539 C81.70157127 79.06153931 81.70157127 79.06153931 80.14552307 79.07226562 C76.7875734 79.08985703 73.43046787 79.07821825 70.07250977 79.06469727 C67.73750649 79.06739184 65.40250431 79.07127396 63.06750488 79.07629395 C58.17502148 79.08219057 53.28283029 79.07362038 48.39038086 79.05493164 C42.11876923 79.03214243 35.84784231 79.04526457 29.5762558 79.0692215 C24.75497274 79.08367477 19.93385204 79.07907555 15.11256409 79.06871033 C12.80009378 79.06604176 10.48760874 79.06931733 8.17515564 79.07862854 C4.94327744 79.08878593 1.71250846 79.07330315 -1.51928711 79.05102539 C-2.95328102 79.06317078 -2.95328102 79.06317078 -4.41624451 79.07556152 C-8.64167483 79.02159474 -11.02005832 78.91289452 -14.69714355 76.68469238 C-17.74463253 73.32113641 -18.57644618 70.13871047 -18.77124023 65.65844727 C-18.72999023 64.95719727 -18.68874023 64.25594727 -18.64624023 63.53344727 C-16.17124023 63.03844727 -16.17124023 63.03844727 -13.64624023 62.53344727 C-13.65512268 61.81570129 -13.66400513 61.09795532 -13.67315674 60.35845947 C-13.75334514 53.59037133 -13.81422616 46.8223543 -13.85348892 40.05391312 C-13.87435332 36.57422857 -13.90264845 33.09493693 -13.94799805 29.61547852 C-13.99982251 25.61413833 -14.01919477 21.61321008 -14.03686523 17.61157227 C-14.05751038 16.36353821 -14.07815552 15.11550415 -14.09942627 13.82965088 C-14.09972839 12.66874939 -14.10003052 11.5078479 -14.1003418 10.31176758 C-14.10922424 9.29028625 -14.11810669 8.26880493 -14.1272583 7.21636963 C-13.64624023 4.53344727 -13.64624023 4.53344727 -12.2207489 2.2056427 C-8.27948537 -0.35428766 -4.60709316 -0.03260216 0 0 Z " fill="#F9FAFB" transform="translate(65.646240234375,111.466552734375)"/>
<path d="M0 0 C0.97766327 -0.00861557 1.95532654 -0.01723114 2.96261597 -0.02610779 C6.19613073 -0.04882046 9.4287825 -0.0420187 12.66235352 -0.03295898 C14.90910602 -0.0381924 17.15585632 -0.04446784 19.40260315 -0.05174255 C24.1127455 -0.06215674 28.82258594 -0.05757078 33.53271484 -0.04296875 C39.57018173 -0.0257845 45.60669664 -0.04926728 51.64405727 -0.08445835 C56.28435072 -0.10641474 60.9244158 -0.10499498 65.56474495 -0.09669304 C67.79070136 -0.09587247 70.01667436 -0.10275598 72.24258232 -0.11746407 C75.35502562 -0.13487566 78.46575097 -0.12039428 81.578125 -0.09765625 C82.49828903 -0.10934845 83.41845306 -0.12104065 84.36650085 -0.13308716 C88.73177427 -0.06817171 90.78124997 0.12820591 94.42926025 2.71038818 C96.62535289 5.93184874 96.96418507 7.47308457 96.92138672 11.33349609 C96.92100906 12.4743013 96.92063141 13.61510651 96.92024231 14.79048157 C96.89443588 16.01148056 96.86862946 17.23247955 96.84204102 18.49047852 C96.83496628 19.74857834 96.82789154 21.00667816 96.82060242 22.30290222 C96.79738347 25.63594053 96.75252525 28.96724702 96.69708252 32.29980469 C96.6457871 35.70500782 96.62306668 39.1103904 96.59790039 42.51586914 C96.54279747 49.18887173 96.45914269 55.86105957 96.35375977 62.53344727 C98.33375977 63.02844727 98.33375977 63.02844727 100.35375977 63.53344727 C101.68942733 66.56905536 101.26954943 67.79543498 100.22875977 71.03344727 C98.17616582 74.86495596 97.05625219 76.30685629 93.35375977 78.53344727 C89.97762753 79.11825094 86.6463234 79.0799874 83.22680664 79.05102539 C81.70157127 79.06153931 81.70157127 79.06153931 80.14552307 79.07226562 C76.7875734 79.08985703 73.43046787 79.07821825 70.07250977 79.06469727 C67.73750649 79.06739184 65.40250431 79.07127396 63.06750488 79.07629395 C58.17502148 79.08219057 53.28283029 79.07362038 48.39038086 79.05493164 C42.11876923 79.03214243 35.84784231 79.04526457 29.5762558 79.0692215 C24.75497274 79.08367477 19.93385204 79.07907555 15.11256409 79.06871033 C12.80009378 79.06604176 10.48760874 79.06931733 8.17515564 79.07862854 C4.94327744 79.08878593 1.71250846 79.07330315 -1.51928711 79.05102539 C-2.95328102 79.06317078 -2.95328102 79.06317078 -4.41624451 79.07556152 C-8.64167483 79.02159474 -11.02005832 78.91289452 -14.69714355 76.68469238 C-17.74463253 73.32113641 -18.57644618 70.13871047 -18.77124023 65.65844727 C-18.72999023 64.95719727 -18.68874023 64.25594727 -18.64624023 63.53344727 C-16.17124023 63.03844727 -16.17124023 63.03844727 -13.64624023 62.53344727 C-13.65512268 61.81570129 -13.66400513 61.09795532 -13.67315674 60.35845947 C-13.75334514 53.59037133 -13.81422616 46.8223543 -13.85348892 40.05391312 C-13.87435332 36.57422857 -13.90264845 33.09493693 -13.94799805 29.61547852 C-13.99982251 25.61413833 -14.01919477 21.61321008 -14.03686523 17.61157227 C-14.05751038 16.36353821 -14.07815552 15.11550415 -14.09942627 13.82965088 C-14.09972839 12.66874939 -14.10003052 11.5078479 -14.1003418 10.31176758 C-14.10922424 9.29028625 -14.11810669 8.26880493 -14.1272583 7.21636963 C-13.64624023 4.53344727 -13.64624023 4.53344727 -12.2207489 2.2056427 C-8.27948537 -0.35428766 -4.60709316 -0.03260216 0 0 Z M-7.64624023 6.53344727 C-7.7398903 8.28273446 -7.76368461 10.0358098 -7.75976562 11.78759766 C-7.75969009 12.90868423 -7.75961456 14.02977081 -7.75953674 15.18482971 C-7.75437546 16.40460007 -7.74921417 17.62437042 -7.74389648 18.88110352 C-7.74248154 20.12266708 -7.74106659 21.36423065 -7.73960876 22.64341736 C-7.73494614 25.94950217 -7.7259552 29.25551873 -7.71490479 32.56158447 C-7.7046885 35.93305876 -7.70011068 39.30454009 -7.69506836 42.67602539 C-7.68401419 49.29518501 -7.6672576 55.91431219 -7.64624023 62.53344727 C-6.53587402 62.5532666 -5.42550781 62.57308594 -4.28149414 62.59350586 C-0.17009422 62.66945807 3.94094694 62.75819086 8.05200195 62.85083008 C9.83285449 62.88916291 11.61378561 62.92400816 13.39477539 62.95532227 C15.95170211 63.00087998 18.50808587 63.05888833 21.06469727 63.11938477 C21.86370453 63.13093597 22.66271179 63.14248718 23.4859314 63.15438843 C29.12601635 63.30570385 29.12601635 63.30570385 31.35375977 65.53344727 C33.33748991 65.84289586 33.33748991 65.84289586 35.59985352 65.79907227 C36.43709961 65.80165039 37.2743457 65.80422852 38.13696289 65.80688477 C39.45083984 65.7952832 39.45083984 65.7952832 40.79125977 65.78344727 C41.66331055 65.79118164 42.53536133 65.79891602 43.43383789 65.80688477 C44.27237305 65.80430664 45.1109082 65.80172852 45.97485352 65.79907227 C46.74240967 65.79681641 47.50996582 65.79456055 48.30078125 65.79223633 C50.6630169 65.64959207 50.6630169 65.64959207 53.35375977 63.53344727 C56.1781342 63.29247039 58.91253151 63.16053406 61.74047852 63.11938477 C62.96599174 63.09033554 62.96599174 63.09033554 64.21626282 63.06069946 C66.82448911 63.00094375 69.43275963 62.95453469 72.04125977 62.90844727 C73.81015917 62.87026376 75.57904005 62.83121181 77.34790039 62.79125977 C81.68303636 62.69524559 86.01825937 62.61119992 90.35375977 62.53344727 C90.37688892 55.24923178 90.39467778 47.96502417 90.40557194 40.68077946 C90.41079951 37.29872914 90.41789487 33.91670387 90.42919922 30.53466797 C90.44210243 26.65014949 90.446989 22.7656413 90.45141602 18.88110352 C90.4565773 17.66133316 90.46173859 16.44156281 90.46705627 15.18482971 C90.46716957 13.50319984 90.46716957 13.50319984 90.46728516 11.78759766 C90.46950577 10.79498428 90.47172638 9.80237091 90.47401428 8.77967834 C90.60625918 6.56318202 90.60625918 6.56318202 89.35375977 5.53344727 C86.37614607 5.43283456 83.42168809 5.39729834 80.44360352 5.40405273 C79.50872101 5.40230042 78.5738385 5.4005481 77.61062622 5.39874268 C74.50415214 5.39432253 71.39773448 5.39726272 68.29125977 5.40063477 C66.14274077 5.39996177 63.99422186 5.39899179 61.84570312 5.3977356 C57.33633705 5.3962584 52.82699074 5.39841387 48.31762695 5.40307617 C42.52327399 5.40877347 36.72896735 5.40549458 30.93461609 5.39950371 C26.49613086 5.39589868 22.0576567 5.39703641 17.61917114 5.3996315 C15.48202509 5.40030093 13.34487805 5.39947179 11.20773315 5.39715195 C8.2264335 5.39462637 5.24520997 5.39846467 2.26391602 5.40405273 C1.37141144 5.4020285 0.47890686 5.40000427 -0.44064331 5.3979187 C-4.35719186 5.02133117 -4.35719186 5.02133117 -7.64624023 6.53344727 Z " fill="#F7F9FA" transform="translate(65.646240234375,111.466552734375)"/>
<path d="M0 0 C1.33875687 0.00303635 1.33875687 0.00303635 2.70455933 0.00613403 C4.10688309 0.00350555 4.10688309 0.00350555 5.53753662 0.00082397 C8.6440107 -0.00359617 11.75042837 -0.00065598 14.85690308 0.00271606 C17.00542207 0.00204307 19.15394099 0.00107309 21.30245972 -0.00018311 C25.81182579 -0.0016603 30.3211721 0.00049517 34.83053589 0.00515747 C40.62488885 0.01085477 46.41919549 0.00757588 52.21354675 0.00158501 C56.65203198 -0.00202002 61.09050614 -0.00088229 65.5289917 0.0017128 C67.66613775 0.00238223 69.80328479 0.00155309 71.94042969 -0.00076675 C74.92172934 -0.00329233 77.90295288 0.00054597 80.88424683 0.00613403 C81.7767514 0.0041098 82.66925598 0.00208557 83.58880615 0 C89.68014075 0.02126624 89.68014075 0.02126624 90.79440308 1.13552856 C90.88805314 2.88481576 90.91184746 4.6378911 90.90792847 6.38967896 C90.90781517 8.07130882 90.90781517 8.07130882 90.90769958 9.78691101 C90.9025383 11.00668137 90.89737701 12.22645172 90.89205933 13.48318481 C90.89064438 14.72474838 90.88922943 15.96631195 90.88777161 17.24549866 C90.88310898 20.55158347 90.87411804 23.85760003 90.86306763 27.16366577 C90.85285134 30.53514006 90.84827352 33.90662139 90.8432312 37.27810669 C90.83217703 43.89726631 90.81542044 50.51639349 90.79440308 57.13552856 C89.68927368 57.1553479 88.58414429 57.17516724 87.44552612 57.19558716 C83.34714895 57.27163306 79.24912729 57.36035186 75.15109253 57.45291138 C73.37707536 57.49120535 71.60298044 57.52605752 69.8288269 57.55740356 C67.27930909 57.60304528 64.73032678 57.66104042 62.18112183 57.72146606 C61.38727585 57.73301727 60.59342987 57.74456848 59.77552795 57.75646973 C55.95116399 57.85908241 54.04844209 57.96616922 50.79440308 60.13552856 C48.74142456 60.39431763 48.74142456 60.39431763 46.41549683 60.40115356 C45.57696167 60.40373169 44.73842651 60.40630981 43.8744812 60.40896606 C43.00243042 60.40123169 42.13037964 60.39349731 41.23190308 60.38552856 C39.91802612 60.39713013 39.91802612 60.39713013 38.5776062 60.40896606 C37.74036011 60.40638794 36.90311401 60.40380981 36.04049683 60.40115356 C35.2740686 60.39889771 34.50764038 60.39664185 33.71798706 60.39431763 C31.79440308 60.13552856 31.79440308 60.13552856 29.79440308 58.13552856 C27.00223516 57.88983585 24.30199703 57.76189719 21.50534058 57.72146606 C20.27770493 57.69241684 20.27770493 57.69241684 19.02526855 57.66278076 C16.40675331 57.60291774 13.78819426 57.55657324 11.16940308 57.51052856 C9.39594622 57.47235492 7.62250802 57.43330356 5.84909058 57.39334106 C1.49767933 57.29721085 -2.85381872 57.21320506 -7.20559692 57.13552856 C-7.22872608 49.85131308 -7.24651494 42.56710547 -7.2574091 35.28286076 C-7.26263667 31.90081044 -7.26973203 28.51878517 -7.28103638 25.13674927 C-7.29393959 21.25223079 -7.29882616 17.3677226 -7.30325317 13.48318481 C-7.30841446 12.26341446 -7.31357574 11.0436441 -7.31889343 9.78691101 C-7.31896896 8.66582443 -7.31904449 7.54473785 -7.31912231 6.38967896 C-7.32134293 5.39706558 -7.32356354 4.40445221 -7.32585144 3.38175964 C-7.07744969 -1.25813044 -3.91246686 0.01365931 0 0 Z M7.79440308 6.13552856 C7.70144492 7.57842643 7.67693795 9.02582641 7.68087769 10.47171021 C7.68095322 11.39258926 7.68102875 12.31346832 7.68110657 13.26225281 C7.68626785 14.26328537 7.69142914 15.26431793 7.69674683 16.29568481 C7.69816177 17.31528793 7.69957672 18.33489105 7.70103455 19.38539124 C7.70665211 22.65629964 7.71920758 25.9271407 7.73190308 29.19802856 C7.73691581 31.40961612 7.74147911 33.62120475 7.74557495 35.83279419 C7.75662724 41.26706213 7.77338245 46.70129054 7.79440308 52.13552856 C16.5128431 52.15865468 25.23127264 52.17644502 33.9497366 52.18734074 C37.9976605 52.19256898 42.04556348 52.19966555 46.09347534 52.21096802 C49.99676279 52.221799 53.90003006 52.22780584 57.80333138 52.23040581 C59.29573955 52.23225968 60.78814656 52.23587957 62.28054619 52.24125862 C64.36388447 52.24847187 66.44713839 52.24951939 68.53048706 52.24905396 C70.31252785 52.25238487 70.31252785 52.25238487 72.13056946 52.25578308 C74.71561 52.43915452 74.71561 52.43915452 75.79440308 51.13552856 C75.89752344 49.76493264 75.93289261 48.38913198 75.93966675 47.01467896 C75.9460466 46.14029678 75.95242645 45.26591461 75.95899963 44.36503601 C75.96011246 43.41402512 75.96122528 42.46301422 75.96237183 41.48318481 C75.96570023 40.51271713 75.96902863 39.54224945 75.97245789 38.54237366 C75.97753138 36.48529537 75.97986608 34.42820881 75.97970581 32.37112427 C75.98189134 29.21498113 76.00003999 26.05918786 76.01901245 22.90310669 C76.02194641 20.90896727 76.02393119 18.91482617 76.02487183 16.92068481 C76.0356501 15.49720482 76.0356501 15.49720482 76.04664612 14.04496765 C76.04203117 12.72866615 76.04203117 12.72866615 76.037323 11.38577271 C76.03874802 10.61157486 76.04017303 9.83737701 76.04164124 9.03971863 C75.96000049 6.89434263 75.96000049 6.89434263 73.79440308 5.13552856 C71.04425991 4.82372934 71.04425991 4.82372934 67.83346558 4.86990356 C66.6397937 4.86732544 65.44612183 4.86474731 64.21627808 4.86209106 C62.96330933 4.86982544 61.71034058 4.87755981 60.41940308 4.88552856 C59.1741687 4.87779419 57.92893433 4.87005981 56.64596558 4.86209106 C54.85159058 4.86595825 54.85159058 4.86595825 53.02096558 4.86990356 C51.3747522 4.87328735 51.3747522 4.87328735 49.69528198 4.8767395 C46.82832332 5.13250252 45.26978466 5.76409908 42.79440308 7.13552856 C40.73190308 6.82302856 40.73190308 6.82302856 38.79440308 6.13552856 C35.51591406 5.04269889 33.07999991 5.00622436 29.63034058 5.00271606 C28.4263562 5.001427 27.22237183 5.00013794 25.98190308 4.99880981 C24.72377808 5.002677 23.46565308 5.00654419 22.16940308 5.01052856 C20.9035437 5.00666138 19.63768433 5.00279419 18.33346558 4.99880981 C17.13205933 5.00009888 15.93065308 5.00138794 14.69284058 5.00271606 C13.03260864 5.00440796 13.03260864 5.00440796 11.33883667 5.00613403 C8.85925687 4.84724762 8.85925687 4.84724762 7.79440308 6.13552856 Z " fill="#4A6579" transform="translate(65.20559692382813,116.86447143554688)"/>
<path d="M0 0 C1.32 0.33 2.64 0.66 4 1 C4 5.62 4 10.24 4 15 C6.97 10.05 9.94 5.1 13 0 C14.32 0.33 15.64 0.66 17 1 C17.4912621 5.72839767 15.95032151 8.33072754 13.5 12.3125 C12.8503125 13.38113281 12.200625 14.44976562 11.53125 15.55078125 C11.0259375 16.35902344 10.520625 17.16726562 10 18 C11.01320312 16.50146484 11.01320312 16.50146484 12.046875 14.97265625 C12.94733327 13.66886772 13.84840718 12.36550423 14.75 11.0625 C15.1934375 10.40314453 15.636875 9.74378906 16.09375 9.06445312 C16.53203125 8.43603516 16.9703125 7.80761719 17.421875 7.16015625 C17.81987305 6.57886963 18.21787109 5.99758301 18.62792969 5.39868164 C20.32030183 3.67348591 21.64915166 3.38671018 24 3 C24.77734375 5.07421875 24.77734375 5.07421875 25 8 C23.60718576 10.48031429 22.26159454 12.56789352 20.5625 14.8125 C19.9118457 15.7087207 19.9118457 15.7087207 19.24804688 16.62304688 C18.17874598 18.09186679 17.09111289 19.54730974 16 21 C17.32 21.33 18.64 21.66 20 22 C18.40777917 52.18444166 18.40777917 52.18444166 17 55 C12.85418113 55.02886751 8.70838784 55.04675327 4.5625 55.0625 C2.78649414 55.07506836 2.78649414 55.07506836 0.97460938 55.08789062 C-0.15009766 55.09111328 -1.27480469 55.09433594 -2.43359375 55.09765625 C-3.99678345 55.10551147 -3.99678345 55.10551147 -5.59155273 55.11352539 C-8 55 -8 55 -9 54 C-9.22728683 52.57203358 -9.39464743 51.13441107 -9.53515625 49.6953125 C-9.6223291 48.80610107 -9.70950195 47.91688965 -9.79931641 47.00073242 C-9.88616699 46.05174072 -9.97301758 45.10274902 -10.0625 44.125 C-10.15192871 43.17149658 -10.24135742 42.21799316 -10.33349609 41.2355957 C-10.90833043 34.81223261 -11.27194659 28.4511775 -11 22 C-9.68 21.67 -8.36 21.34 -7 21 C-7.28875 20.19175781 -7.5775 19.38351563 -7.875 18.55078125 C-8.24625 17.48214844 -8.6175 16.41351563 -9 15.3125 C-9.37125 14.25675781 -9.7425 13.20101562 -10.125 12.11328125 C-10.9391857 9.21637944 -11.17709796 6.98299377 -11 4 C-9.68 3.67 -8.36 3.34 -7 3 C-4.125 9.625 -4.125 9.625 -3 13 C-2.86722656 12.14535156 -2.73445312 11.29070312 -2.59765625 10.41015625 C-2.42105469 9.30542969 -2.24445313 8.20070312 -2.0625 7.0625 C-1.88847656 5.96035156 -1.71445313 4.85820312 -1.53515625 3.72265625 C-1 1 -1 1 0 0 Z " fill="#F6F8F9" transform="translate(178,135)"/>
<path d="M0 0 C1.38964966 0.01498535 1.38964966 0.01498535 2.80737305 0.03027344 C3.98082275 0.06668945 5.15427246 0.10310547 6.36328125 0.140625 C10.09640625 0.223125 13.82953125 0.305625 17.67578125 0.390625 C17.67578125 12.270625 17.67578125 24.150625 17.67578125 36.390625 C9.09578125 36.390625 0.51578125 36.390625 -8.32421875 36.390625 C-8.39317375 31.90599616 -8.45287752 27.42321359 -8.48901367 22.93847656 C-8.50408026 21.4136735 -8.52453751 19.88891364 -8.55053711 18.36425781 C-8.58701581 16.16981334 -8.60396589 13.97594284 -8.6171875 11.78125 C-8.63289795 10.46157227 -8.6486084 9.14189453 -8.66479492 7.78222656 C-8.05212487 1.68099911 -6.05124826 -0.13372924 0 0 Z " fill="#516C80" transform="translate(117.32421875,127.609375)"/>
<path d="M0 0 C3.60401481 -0.08701039 7.20776012 -0.14039388 10.8125 -0.1875 C12.34874023 -0.22520508 12.34874023 -0.22520508 13.91601562 -0.26367188 C15.39038086 -0.27817383 15.39038086 -0.27817383 16.89453125 -0.29296875 C18.25348511 -0.31653442 18.25348511 -0.31653442 19.63989258 -0.34057617 C22 0 22 0 23.80078125 1.04882812 C25.64908083 4.05607777 25.36790997 7.09301014 25.29296875 10.51171875 C25.28872391 11.23994339 25.28447906 11.96816803 25.28010559 12.71846008 C25.26332733 15.04185127 25.22567855 17.3643715 25.1875 19.6875 C25.17245197 21.26365934 25.15876377 22.83983229 25.14648438 24.41601562 C25.11597938 28.27794833 25.05726193 32.13800063 25 36 C16.75 36 8.5 36 0 36 C0 28.74 0 21.48 0 14 C0.99 14.99 1.98 15.98 3 17 C5.11615844 17.50054751 5.11615844 17.50054751 7.44921875 17.51171875 C8.72055664 17.56489258 8.72055664 17.56489258 10.01757812 17.61914062 C11.33918945 17.65297852 11.33918945 17.65297852 12.6875 17.6875 C13.58017578 17.72166016 14.47285156 17.75582031 15.39257812 17.79101562 C17.59492671 17.87345648 19.79687938 17.94261551 22 18 C21.505 15.525 21.505 15.525 21 13 C15.39 12.67 9.78 12.34 4 12 C4 11.67 4 11.34 4 11 C10.435 10.505 10.435 10.505 17 10 C17 8.35 17 6.7 17 5 C8.585 5.495 8.585 5.495 0 6 C0 4.02 0 2.04 0 0 Z " fill="#4C677C" transform="translate(79,128)"/>
<path d="M0 0 C5.67830078 -0.02464705 11.35657069 -0.04283462 17.03491211 -0.05493164 C18.96818585 -0.05997256 20.90145576 -0.06680519 22.8347168 -0.07543945 C25.60726872 -0.08751565 28.37977041 -0.09323057 31.15234375 -0.09765625 C32.45702858 -0.10539818 32.45702858 -0.10539818 33.78807068 -0.11329651 C35.85905814 -0.11349185 37.92994324 -0.06208168 40 0 C40.495 0.495 40.495 0.495 41 1 C42.84159023 1.09959621 44.68696967 1.13080411 46.53125 1.1328125 C48.21154297 1.13474609 48.21154297 1.13474609 49.92578125 1.13671875 C51.69501953 1.13091797 51.69501953 1.13091797 53.5 1.125 C54.67949219 1.12886719 55.85898438 1.13273438 57.07421875 1.13671875 C58.19441406 1.13542969 59.31460938 1.13414062 60.46875 1.1328125 C62.02239258 1.13112061 62.02239258 1.13112061 63.60742188 1.12939453 C65.95297823 1.26965153 65.95297823 1.26965153 67 0 C69.95705321 -0.08868299 72.89065056 -0.11520296 75.84765625 -0.09765625 C77.17729652 -0.09553383 77.17729652 -0.09553383 78.53379822 -0.09336853 C81.37673254 -0.08775215 84.21958931 -0.07519691 87.0625 -0.0625 C88.98502491 -0.05748711 90.90755104 -0.05292384 92.83007812 -0.04882812 C97.55341549 -0.03777741 102.27669458 -0.02050183 107 0 C106.625 1.9375 106.625 1.9375 106 4 C103.72571195 5.13714402 102.47125175 5.13027535 99.94532776 5.14044189 C98.67296265 5.14900711 98.67296265 5.14900711 97.37489319 5.15774536 C96.44237228 5.15886322 95.50985138 5.15998108 94.54907227 5.16113281 C93.56848846 5.16609772 92.58790466 5.17106262 91.5776062 5.17617798 C88.32386583 5.19082009 85.07017419 5.19760446 81.81640625 5.203125 C79.56200661 5.20887406 77.30760699 5.21463182 75.0532074 5.22039795 C70.32282279 5.23091329 65.59245521 5.2367527 60.86206055 5.24023438 C54.79096377 5.24572508 48.7200906 5.2697633 42.64906406 5.29820633 C37.9917484 5.31679768 33.33448702 5.3220364 28.67713737 5.32357025 C26.43836174 5.32660443 24.19958723 5.33465853 21.96084785 5.34775543 C18.83383101 5.36474525 15.7073661 5.36295311 12.58032227 5.35644531 C11.64982559 5.3656601 10.71932892 5.37487488 9.76063538 5.3843689 C8.90957214 5.37879974 8.05850891 5.37323059 7.18165588 5.36749268 C6.07248731 5.36969252 6.07248731 5.36969252 4.94091129 5.3719368 C2.44541867 4.89372559 1.53645109 3.98720406 0 2 C0 1.34 0 0.68 0 0 Z " fill="#4F6C7F" transform="translate(53,180)"/>
<path d="M0 0 C1.9296875 1.5390625 1.9296875 1.5390625 4.6796875 4.4140625 C4.6796875 5.7340625 4.6796875 7.0540625 4.6796875 8.4140625 C2.99609375 9.14453125 2.99609375 9.14453125 0.6796875 9.4140625 C-1.73046875 7.90234375 -1.73046875 7.90234375 -4.3828125 5.7265625 C-14.94646387 -2.22053227 -25.34959504 -4.11887038 -38.3203125 -2.5859375 C-46.07934516 -0.78527542 -53.6942112 3.7879612 -59.3203125 9.4140625 C-61.4453125 9.0390625 -61.4453125 9.0390625 -63.3203125 8.4140625 C-62.99093523 5.36601573 -62.67701761 3.78950048 -60.53515625 1.53515625 C-41.52768694 -12.51667783 -19.91558117 -13.61233326 0 0 Z " fill="#F5F7F9" transform="translate(136.3203125,66.5859375)"/>
<path d="M0 0 C6.27 0 12.54 0 19 0 C18.85962362 3.45863518 18.7129541 6.91680137 18.5625 10.375 C18.52318359 11.35984375 18.48386719 12.3446875 18.44335938 13.359375 C18.40146484 14.30039063 18.35957031 15.24140625 18.31640625 16.2109375 C18.27974854 17.08024902 18.24309082 17.94956055 18.20532227 18.84521484 C18 21 18 21 17 23 C11.72 23 6.44 23 1 23 C0.18713125 15.27774683 -0.0913546 7.76514068 0 0 Z " fill="#425E71" transform="translate(173,162)"/>
<path d="M0 0 C0.33 0 0.66 0 1 0 C1 1.98 1 3.96 1 6 C1.66 5.67 2.32 5.34 3 5 C5.55157655 4.9283265 8.07472971 4.90691558 10.625 4.9375 C11.68460938 4.94426758 11.68460938 4.94426758 12.765625 4.95117188 C14.51045275 4.96296125 16.255237 4.98089676 18 5 C18 6.65 18 8.3 18 10 C17.01 10.495 17.01 10.495 16 11 C17.134375 11.268125 18.26875 11.53625 19.4375 11.8125 C21.2009375 12.4003125 21.2009375 12.4003125 23 13 C23.33 13.99 23.66 14.98 24 16 C23.67 16.66 23.34 17.32 23 18 C19.87507749 18.05791844 16.75029234 18.09356746 13.625 18.125 C12.73554687 18.14175781 11.84609375 18.15851563 10.9296875 18.17578125 C10.07890625 18.18222656 9.228125 18.18867188 8.3515625 18.1953125 C7.17327881 18.21102295 7.17327881 18.21102295 5.97119141 18.22705078 C4 18 4 18 2 16 C1.67 22.6 1.34 29.2 1 36 C0.67 36 0.34 36 0 36 C0 24.12 0 12.24 0 0 Z " fill="#6F899C" transform="translate(78,128)"/>
<path d="M0 0 C1.6640625 1.26171875 1.6640625 1.26171875 4.0390625 3.76171875 C4.0390625 5.08171875 4.0390625 6.40171875 4.0390625 7.76171875 C0.62364041 8.1520527 -0.61851509 8.0251206 -3.3984375 5.88671875 C-4.666875 4.83484375 -4.666875 4.83484375 -5.9609375 3.76171875 C-11.55085139 1.03493149 -17.88618275 0.83713344 -23.9609375 1.76171875 C-26.78257805 3.13936621 -29.19297245 4.67090219 -31.70703125 6.546875 C-33.9609375 7.76171875 -33.9609375 7.76171875 -36.74609375 7.4453125 C-37.47699219 7.21972656 -38.20789063 6.99414062 -38.9609375 6.76171875 C-38.59858526 4.06161011 -38.2002444 2.97637601 -36.140625 1.12890625 C-24.13073735 -6.64698711 -12.3671946 -7.80956313 0 0 Z " fill="#F5F7F9" transform="translate(123.9609375,75.23828125)"/>
<path d="M0 0 C2.99488276 -0.35519237 5.61642991 -0.46627491 8.60546875 -0.390625 C9.44467361 -0.38496521 10.28387848 -0.37930542 11.14851379 -0.37347412 C13.82875633 -0.35108406 16.50766163 -0.30088453 19.1875 -0.25 C21.00453798 -0.22993832 22.82159692 -0.21168697 24.63867188 -0.1953125 C29.09296312 -0.15121086 33.54625485 -0.08216659 38 0 C37.67 1.32 37.34 2.64 37 4 C23.8 4 10.6 4 -3 4 C-2.01 2.68 -1.02 1.36 0 0 Z " fill="#3C596C" transform="translate(122,180)"/>
<path d="M0 0 C1.26166992 0.00580078 1.26166992 0.00580078 2.54882812 0.01171875 C3.38607422 0.00785156 4.22332031 0.00398437 5.0859375 0 C5.88708984 0.00128906 6.68824219 0.00257813 7.51367188 0.00390625 C8.25093506 0.00503418 8.98819824 0.00616211 9.74780273 0.00732422 C11.61132812 0.13671875 11.61132812 0.13671875 13.61132812 1.13671875 C13.28132813 2.78671875 12.95132813 4.43671875 12.61132812 6.13671875 C6.34132813 6.13671875 0.07132812 6.13671875 -6.38867188 6.13671875 C-6.71867187 4.48671875 -7.04867187 2.83671875 -7.38867188 1.13671875 C-5.44916048 -0.80279265 -2.57660068 0.00415246 0 0 Z " fill="#EFF3F6" transform="translate(119.388671875,147.86328125)"/>
<path d="M0 0 C0.83724609 -0.01224609 1.67449219 -0.02449219 2.53710938 -0.03710938 C3.73883789 -0.04000977 3.73883789 -0.04000977 4.96484375 -0.04296875 C5.70210693 -0.04707764 6.43937012 -0.05118652 7.19897461 -0.05541992 C9.0625 0.1875 9.0625 0.1875 11.0625 2.1875 C10.7325 3.5075 10.4025 4.8275 10.0625 6.1875 C3.7925 6.1875 -2.4775 6.1875 -8.9375 6.1875 C-9.2675 4.5375 -9.5975 2.8875 -9.9375 1.1875 C-7.78017167 -0.96982833 -2.98951247 0.00229081 0 0 Z " fill="#EDF1F4" transform="translate(121.9375,139.8125)"/>
<path d="M0 0 C0.74886475 0.00523682 1.49772949 0.01047363 2.26928711 0.01586914 C3.07817383 0.0190918 3.88706055 0.02231445 4.72045898 0.02563477 C5.5705957 0.03401367 6.42073242 0.04239258 7.29663086 0.05102539 C8.15063477 0.05553711 9.00463867 0.06004883 9.88452148 0.06469727 C12.00108749 0.07652166 14.11761771 0.0944577 16.23413086 0.11352539 C16.89413086 1.43352539 17.55413086 2.75352539 18.23413086 4.11352539 C16.23413086 6.11352539 16.23413086 6.11352539 14.35473633 6.34057617 C13.6111084 6.33010254 12.86748047 6.31962891 12.10131836 6.30883789 C11.2956543 6.30239258 10.48999023 6.29594727 9.65991211 6.28930664 C8.8181543 6.27254883 7.97639648 6.25579102 7.10913086 6.23852539 C5.83489258 6.22499023 5.83489258 6.22499023 4.53491211 6.21118164 C2.43453202 6.18758186 0.33429642 6.15171022 -1.76586914 6.11352539 C-2.14805681 4.45737882 -2.47982016 2.78895515 -2.76586914 1.11352539 C-1.76586914 0.11352539 -1.76586914 0.11352539 0 0 Z " fill="#F1F5F7" transform="translate(83.765869140625,147.886474609375)"/>
<path d="M0 0 C3.4375 2 3.4375 2 6 4 C5.67 5.32 5.34 6.64 5 8 C4.26394531 7.91621094 3.52789062 7.83242187 2.76953125 7.74609375 C1.79371094 7.64425781 0.81789063 7.54242188 -0.1875 7.4375 C-1.15042969 7.33308594 -2.11335938 7.22867188 -3.10546875 7.12109375 C-5.94233377 7.00241249 -8.25423671 7.32234361 -11 8 C-11.33 6.68 -11.66 5.36 -12 4 C-8.02114362 0.14171502 -5.51763577 -0.77440502 0 0 Z " fill="#F6F8F9" transform="translate(110,83)"/>
<path d="M0 0 C6.27 0 12.54 0 19 0 C19.33 1.32 19.66 2.64 20 4 C19 5 19 5 17.05053711 5.11352539 C16.2178833 5.10828857 15.38522949 5.10305176 14.52734375 5.09765625 C13.62822266 5.09443359 12.72910156 5.09121094 11.80273438 5.08789062 C10.85720703 5.07951172 9.91167969 5.07113281 8.9375 5.0625 C7.98810547 5.05798828 7.03871094 5.05347656 6.06054688 5.04882812 C3.70696935 5.0370011 1.35351523 5.02052025 -1 5 C-0.67 3.35 -0.34 1.7 0 0 Z " fill="#F5F7F9" transform="translate(113,156)"/>
<path d="M0 0 C6.27 0 12.54 0 19 0 C19.33 1.32 19.66 2.64 20 4 C19 5 19 5 17.05053711 5.11352539 C16.2178833 5.10828857 15.38522949 5.10305176 14.52734375 5.09765625 C13.62822266 5.09443359 12.72910156 5.09121094 11.80273438 5.08789062 C10.85720703 5.07951172 9.91167969 5.07113281 8.9375 5.0625 C7.98810547 5.05798828 7.03871094 5.05347656 6.06054688 5.04882812 C3.70696935 5.0370011 1.35351523 5.02052025 -1 5 C-0.67 3.35 -0.34 1.7 0 0 Z " fill="#F5F7F9" transform="translate(82,156)"/>
<path d="M0 0 C6.6 0 13.2 0 20 0 C20.33 0.99 20.66 1.98 21 3 C20.67 3.66 20.34 4.32 20 5 C13.73 5 7.46 5 1 5 C0.67 3.35 0.34 1.7 0 0 Z " fill="#FCFDFD" transform="translate(81,141)"/>
<path d="M0 0 C2.4375 0.75 2.4375 0.75 4.4375 2.75 C4.8008156 5.58386167 4.7943671 7.15522151 3.3125 9.625 C1.4375 10.75 1.4375 10.75 -1.625 10.625 C-4.5625 9.75 -4.5625 9.75 -6.5625 6.75 C-6.375 4.1875 -6.375 4.1875 -5.5625 1.75 C-2.5625 -0.25 -2.5625 -0.25 0 0 Z " fill="#F6F8F9" transform="translate(107.5625,96.25)"/>
<path d="M0 0 C1.93166016 0.01740234 1.93166016 0.01740234 3.90234375 0.03515625 C5.19269531 0.04417969 6.48304687 0.05320313 7.8125 0.0625 C8.81152344 0.07410156 9.81054688 0.08570313 10.83984375 0.09765625 C11.40234375 2.03515625 11.40234375 2.03515625 11.83984375 4.09765625 C10.83984375 5.09765625 10.83984375 5.09765625 7.6796875 5.1953125 C5.74802734 5.17791016 5.74802734 5.17791016 3.77734375 5.16015625 C2.48699219 5.15113281 1.19664063 5.14210937 -0.1328125 5.1328125 C-1.13183594 5.12121094 -2.13085938 5.10960937 -3.16015625 5.09765625 C-3.72265625 3.16015625 -3.72265625 3.16015625 -4.16015625 1.09765625 C-3.16015625 0.09765625 -3.16015625 0.09765625 0 0 Z " fill="#FCFDFD" transform="translate(121.16015625,132.90234375)"/>
<path d="M0 0 C4.95 0 9.9 0 15 0 C15 1.65 15 3.3 15 5 C10.38 5 5.76 5 1 5 C0.67 3.35 0.34 1.7 0 0 Z " fill="#FCFCFD" transform="translate(81,133)"/>
</svg>
