<?xml version="1.0" encoding="UTF-8"?>
<svg version="1.1" xmlns="http://www.w3.org/2000/svg" width="250" height="250">
<path d="M0 0 C82.5 0 165 0 250 0 C250 82.5 250 165 250 250 C167.5 250 85 250 0 250 C0 167.5 0 85 0 0 Z " fill="#4C697E" transform="translate(0,0)"/>
<path d="M0 0 C6.99523117 5.72049778 12.1293114 11.97801657 14 21 C14.11845411 22.40495573 14.19887301 23.81350679 14.24609375 25.22265625 C14.27896484 26.00833984 14.31183594 26.79402344 14.34570312 27.60351562 C14.40704141 29.24659872 14.46431492 30.88983845 14.51757812 32.53320312 C14.55173828 33.31759766 14.58589844 34.10199219 14.62109375 34.91015625 C14.6461499 35.62308838 14.67120605 36.33602051 14.69702148 37.07055664 C14.91265742 39.32280624 14.91265742 39.32280624 17 42 C17.34189048 45.80353154 17.09549859 49.56405415 14.73046875 52.6640625 C12.60491446 54.50441583 10.72260146 55.87368057 7.921875 56.36328125 C5.83045149 56.82183447 5.83045149 56.82183447 4.91015625 58.85546875 C4.63042969 59.62503906 4.35070312 60.39460938 4.0625 61.1875 C2.28131296 65.59470589 0.3178413 68.59484709 -3 72 C-3.66 72 -4.32 72 -5 72 C-5 73.98 -5 75.96 -5 78 C-4.02160156 77.96519531 -3.04320313 77.93039063 -2.03515625 77.89453125 C5.59261917 77.73702556 11.8685332 77.99727714 19 81 C18.98839844 80.28972656 18.97679687 79.57945313 18.96484375 78.84765625 C18.95582031 77.92855469 18.94679688 77.00945312 18.9375 76.0625 C18.92589844 75.14597656 18.91429687 74.22945313 18.90234375 73.28515625 C19 71 19 71 20 70 C22.17805719 69.90570658 24.3592128 69.88257462 26.53930664 69.88647461 C27.22220261 69.88632858 27.90509857 69.88618256 28.60868835 69.8860321 C30.87587614 69.88673124 33.14298274 69.8945236 35.41015625 69.90234375 C36.97814387 69.90420793 38.54613207 69.90563183 40.11412048 69.90663147 C44.24876503 69.91045666 48.38337466 69.92028694 52.51800537 69.93133545 C56.73400398 69.94154956 60.95000822 69.94612909 65.16601562 69.95117188 C73.44402647 69.96190921 81.7220089 69.97898564 90 70 C90.02312202 81.84765173 90.04091437 93.69529814 90.05181217 105.5429678 C90.05704131 111.04370862 90.06413951 116.54443405 90.07543945 122.04516602 C90.08626725 127.3489656 90.0922766 132.65275035 90.09487724 137.95656013 C90.09673169 139.98485612 90.10035267 142.01315126 90.10573006 144.04144096 C90.11293906 146.87196514 90.113991 149.70242718 90.11352539 152.53295898 C90.11712067 153.38028091 90.12071594 154.22760284 90.12442017 155.1006012 C90.11405216 160.88594784 90.11405216 160.88594784 89 162 C86.85256451 162.09425595 84.70198974 162.11742648 82.55249023 162.11352539 C81.54277664 162.11374443 81.54277664 162.11374443 80.51266479 162.1139679 C78.27794216 162.11326878 76.0433019 162.10547652 73.80859375 162.09765625 C72.26302638 162.09579206 70.71745843 162.09436816 69.17189026 162.09336853 C65.09642923 162.0895434 61.02100363 162.07971317 56.94555664 162.06866455 C52.78988118 162.05845032 48.63420001 162.05387089 44.47851562 162.04882812 C36.31899413 162.03809089 28.15950147 162.02101454 20 162 C18.52876636 159.05753273 18.88075235 156.44814978 18.88647461 153.16357422 C18.88632858 152.46102509 18.88618256 151.75847595 18.8860321 151.03463745 C18.88672986 148.70795627 18.89451581 146.38135473 18.90234375 144.0546875 C18.90420842 142.44328861 18.90563209 140.83188916 18.90663147 139.2204895 C18.9104528 134.97571248 18.92027982 130.73096958 18.93133545 126.48620605 C18.94155782 122.15617332 18.94613086 117.82613507 18.95117188 113.49609375 C18.96190242 104.99738016 18.97897425 96.49869432 19 88 C15.55904881 86.8420272 12.15496288 85.72706 8.625 84.875 C7.42875 84.58625 6.2325 84.2975 5 84 C4.82984375 84.65484375 4.6596875 85.3096875 4.484375 85.984375 C2.5974203 93.09056609 0.39016561 100.04789392 -2 107 C-6.73029789 108.2168228 -8.76279771 107.4634897 -13 105 C-15.88052527 115.34608016 -12.94073171 126.08738524 -11 136.375 C-10.56903266 138.69132895 -10.14063506 141.00808197 -9.71606445 143.32559204 C-9.45311204 144.75765269 -9.18621597 146.18899658 -8.91479492 147.61947632 C-8.31818795 150.83844301 -8 153.7068281 -8 157 C-0.74 157 6.52 157 14 157 C14 158.65 14 160.3 14 162 C-16.36 162 -46.72 162 -78 162 C-78.12375 152.3475 -78.2475 142.695 -78.375 132.75 C-78.42962402 129.72682617 -78.48424805 126.70365234 -78.54052734 123.58886719 C-78.55807201 121.15821931 -78.57335635 118.72755363 -78.5859375 116.296875 C-78.6166333 115.06275879 -78.6473291 113.82864258 -78.67895508 112.55712891 C-78.6847675 102.80388576 -76.42594179 94.79667771 -69.69271851 87.49945068 C-61.98075234 80.24740539 -55.17023619 77.8395305 -44.6875 77.9375 C-43.43324219 77.94652344 -42.17898437 77.95554687 -40.88671875 77.96484375 C-39.93410156 77.97644531 -38.98148438 77.98804687 -38 78 C-38.90889111 73.54643354 -39.85950255 70.88683144 -43 67.5625 C-46.38154821 63.93352144 -47.15048428 60.84223958 -48 56 C-49.0725 55.938125 -50.145 55.87625 -51.25 55.8125 C-55 55 -55 55 -57.4375 53.0625 C-59.63480376 48.75578463 -59.53739078 44.75722988 -59 40 C-58.67 39.67 -58.34 39.34 -58 39 C-57.83902603 36.68972542 -57.7220842 34.37634008 -57.625 32.0625 C-56.90112122 19.45059143 -53.49542631 9.78526453 -44 1.125 C-31.63024319 -9.05354274 -12.91490813 -9.24935332 0 0 Z " fill="#F8FAFB" transform="translate(120,48)"/>
<path d="M0 0 C3.63 0 7.26 0 11 0 C11.33 3.3 11.66 6.6 12 10 C23.88 10 35.76 10 48 10 C48.33 6.7 48.66 3.4 49 0 C52.3 0 55.6 0 59 0 C59 27.06 59 54.12 59 82 C39.53 82 20.06 82 0 82 C0 54.94 0 27.88 0 0 Z " fill="#476276" transform="translate(145,123)"/>
<path d="M0 0 C2.64 7.59 5.28 15.18 8 23 C11.04275136 22.39144973 14.00645224 21.77610498 17 21 C20.0125501 25.12688623 20.25888163 27.43222923 19.5 32.4375 C19.40468994 33.08984619 19.30937988 33.74219238 19.21118164 34.41430664 C18.83052148 36.94691338 18.41483782 39.47275874 18 42 C17.70069082 43.88266224 17.4014039 45.76532805 17.10250854 47.64805603 C16.55545864 51.07917048 15.99756128 54.50848847 15.4375 57.9375 C15.32599609 58.62286835 15.21449219 59.30823669 15.09960938 60.01437378 C14.77817063 61.97781117 14.44977272 63.94010539 14.12109375 65.90234375 C13.83383423 67.62698853 13.83383423 67.62698853 13.54077148 69.38647461 C13 72 13 72 12 73 C10.43827255 73.08685603 8.87270656 73.10702219 7.30859375 73.09765625 C6.45837646 73.09515869 5.60815918 73.09266113 4.73217773 73.09008789 C3.64493408 73.08098389 2.55769043 73.07187988 1.4375 73.0625 C-2.006875 73.041875 -5.45125 73.02125 -9 73 C-9.33 60.46 -9.66 47.92 -10 35 C-11.65 34.67 -13.3 34.34 -15 34 C-15 46.87 -15 59.74 -15 73 C-18.63 73 -22.26 73 -26 73 C-26.09936358 65.91996284 -26.17170315 58.84033752 -26.21972656 51.75976562 C-26.23976034 49.35442019 -26.26699522 46.94912297 -26.30175781 44.54394531 C-26.35063808 41.07344622 -26.37305205 37.60359474 -26.390625 34.1328125 C-26.41127014 33.06886261 -26.43191528 32.00491272 -26.45318604 30.90872192 C-26.45593574 21.62270492 -24.2444758 13.44329239 -17.765625 6.5390625 C-11.88667193 1.41448837 -7.92104036 0 0 0 Z " fill="#435F72" transform="translate(73,132)"/>
<path d="M0 0 C6.57877605 4.55099219 11.45638324 10.36914971 14 18 C14.06937062 20.22818441 14.08457084 22.45834524 14.0625 24.6875 C14.05347656 25.86699219 14.04445312 27.04648438 14.03515625 28.26171875 C14.02355469 29.16535156 14.01195312 30.06898437 14 31 C13.12794922 30.52433594 13.12794922 30.52433594 12.23828125 30.0390625 C9.82183068 28.79541252 9.82183068 28.79541252 6.1875 28.375 C0.81991931 27.16653906 -1.84149628 23.24423938 -5 19 C-7.87678022 19.35166074 -9.56695223 19.60116593 -11.73046875 21.59375 C-12.45169922 22.53734375 -12.45169922 22.53734375 -13.1875 23.5 C-15.84589615 26.92294807 -15.84589615 26.92294807 -18 28 C-19.73868744 28.15266612 -21.48247501 28.24932596 -23.2265625 28.31640625 C-24.2578125 28.35830078 -25.2890625 28.40019531 -26.3515625 28.44335938 C-27.43179688 28.48267578 -28.51203125 28.52199219 -29.625 28.5625 C-30.71296875 28.60568359 -31.8009375 28.64886719 -32.921875 28.69335938 C-35.6144517 28.7996453 -38.30712253 28.90168057 -41 29 C-41.33 29.66 -41.66 30.32 -42 31 C-42.99 31 -43.98 31 -45 31 C-45.65124812 21.48454129 -44.26865932 13.80126849 -38.25 6.1875 C-27.95757263 -4.80491613 -13.15006758 -7.29602768 0 0 Z " fill="#59778C" transform="translate(114,51)"/>
<path d="M0 0 C3 1 3 1 4.75 2.875 C7.54856379 5.51808802 10.45824922 6.5585898 14 8 C14.10890711 11.00099588 14.18773555 13.99796378 14.25 17 C14.30027344 18.25876953 14.30027344 18.25876953 14.3515625 19.54296875 C14.46028141 26.55533831 12.89461842 31.71181504 8.21875 37.0234375 C7.6515625 37.46945313 7.084375 37.91546875 6.5 38.375 C5.9328125 38.83648437 5.365625 39.29796875 4.78125 39.7734375 C-0.93457427 43.70933404 -6.18760409 43.6996042 -13 43 C-18.88321041 41.30532728 -22.57769712 38.08456428 -26 33 C-30.26763698 25.20052552 -29.26523743 16.6447754 -29 8 C-27.69804688 7.96261719 -26.39609375 7.92523438 -25.0546875 7.88671875 C-23.32809743 7.82103326 -21.60153619 7.75458682 -19.875 7.6875 C-19.0190625 7.66494141 -18.163125 7.64238281 -17.28125 7.61914062 C-10.91001085 7.3495882 -6.45349695 6.25979982 -1.625 1.8125 C-1.08875 1.214375 -0.5525 0.61625 0 0 Z " fill="#516C82" transform="translate(106,77)"/>
<path d="M0 0 C0.66 0.33 1.32 0.66 2 1 C2.5625 3.33813477 2.5625 3.33813477 3 6.44140625 C3.1640332 7.57602295 3.32806641 8.71063965 3.49707031 9.87963867 C3.66303711 11.09498291 3.82900391 12.31032715 4 13.5625 C4.17370117 14.78493408 4.34740234 16.00736816 4.52636719 17.2668457 C5.78039449 26.16679272 6.93961217 35.07506908 8 44 C3.05 44 -1.9 44 -7 44 C-4.99353513 29.27072378 -2.62962796 14.63069552 0 0 Z " fill="#466174" transform="translate(98,161)"/>
<path d="M0 0 C1.1653125 0.00515625 2.330625 0.0103125 3.53125 0.015625 C4.6965625 0.01046875 5.861875 0.0053125 7.0625 0 C10.03125 0.265625 10.03125 0.265625 12.03125 2.265625 C12.26171875 5.48828125 12.26171875 5.48828125 12.21875 9.328125 C12.21230469 10.59785156 12.20585937 11.86757812 12.19921875 13.17578125 C12.03125 16.265625 12.03125 16.265625 11.03125 17.265625 C8.50075598 17.33876067 5.99820163 17.35810027 3.46875 17.328125 C2.75783203 17.32361328 2.04691406 17.31910156 1.31445312 17.31445312 C-0.44665013 17.30263364 -2.20771036 17.28469763 -3.96875 17.265625 C-5.3929406 14.41724379 -5.13870508 11.93774592 -5.15625 8.765625 C-5.17751953 7.01765625 -5.17751953 7.01765625 -5.19921875 5.234375 C-4.88134531 1.13973402 -4.08585125 0.36557616 0 0 Z " fill="#F4F6F8" transform="translate(154.96875,138.734375)"/>
<path d="M0 0 C1.90072266 0.02126953 1.90072266 0.02126953 3.83984375 0.04296875 C5.74443359 0.05263672 5.74443359 0.05263672 7.6875 0.0625 C10.77734375 0.23046875 10.77734375 0.23046875 11.77734375 1.23046875 C11.90291537 3.54040257 11.95310104 5.85465411 11.96484375 8.16796875 C11.97902344 9.43511719 11.99320313 10.70226562 12.0078125 12.0078125 C11.77734375 15.23046875 11.77734375 15.23046875 9.77734375 17.23046875 C6.80859375 17.49609375 6.80859375 17.49609375 3.27734375 17.48046875 C2.11203125 17.485625 0.94671875 17.49078125 -0.25390625 17.49609375 C-3.22265625 17.23046875 -3.22265625 17.23046875 -5.22265625 15.23046875 C-5.48828125 12.26171875 -5.48828125 12.26171875 -5.47265625 8.73046875 C-5.4778125 7.56515625 -5.48296875 6.39984375 -5.48828125 5.19921875 C-5.10710169 0.93897657 -4.24243573 0.30339843 0 0 Z " fill="#F6F8FA" transform="translate(155.22265625,160.76953125)"/>
<path d="M0 0 C0.70253906 0.00386719 1.40507812 0.00773438 2.12890625 0.01171875 C2.83144531 0.00785156 3.53398437 0.00398437 4.2578125 0 C9.50229247 0.01010497 9.50229247 0.01010497 10.62890625 1.13671875 C10.72799927 3.4683193 10.75861129 5.80301817 10.75390625 8.13671875 C10.75777344 10.05484375 10.75777344 10.05484375 10.76171875 12.01171875 C10.62890625 15.13671875 10.62890625 15.13671875 9.62890625 16.13671875 C7.11754521 16.23646907 4.6398721 16.27554058 2.12890625 16.26171875 C1.42636719 16.26558594 0.72382813 16.26945312 0 16.2734375 C-5.24447997 16.26333253 -5.24447997 16.26333253 -6.37109375 15.13671875 C-6.47018677 12.8051182 -6.50079879 10.47041933 -6.49609375 8.13671875 C-6.49867188 6.85796875 -6.50125 5.57921875 -6.50390625 4.26171875 C-6.28659458 -0.85149702 -4.66722281 0.00899272 0 0 Z " fill="#F6F8FA" transform="translate(156.37109375,182.86328125)"/>
<path d="M0 0 C0.78375 0.165 1.5675 0.33 2.375 0.5 C8.54787308 1.35143077 14.93002268 1.61866062 21 0 C21.3125 2.13671875 21.3125 2.13671875 21 5 C19.38587866 7.13582841 17.86238098 8.92746844 16 10.8125 C15.52304688 11.31458984 15.04609375 11.81667969 14.5546875 12.33398438 C13.380799 13.5665673 12.19183114 14.78475789 11 16 C5.23206458 10.27136908 5.23206458 10.27136908 2.6875 7.4375 C2.17574219 6.87933594 1.66398437 6.32117188 1.13671875 5.74609375 C0 4 0 4 0 0 Z " fill="#4E687E" transform="translate(88,124)"/>
<path d="M0 0 C9.24 0 18.48 0 28 0 C28 1.98 28 3.96 28 6 C18.76 6 9.52 6 0 6 C0 4.02 0 2.04 0 0 Z " fill="#F4F7F8" transform="translate(172,172)"/>
<path d="M0 0 C9.24 0 18.48 0 28 0 C28 1.98 28 3.96 28 6 C18.76 6 9.52 6 0 6 C0 4.02 0 2.04 0 0 Z " fill="#F4F7F9" transform="translate(172,161)"/>
<path d="M0 0 C9.24 0 18.48 0 28 0 C28 1.98 28 3.96 28 6 C18.76 6 9.52 6 0 6 C0 4.02 0 2.04 0 0 Z " fill="#F5F7F9" transform="translate(172,150)"/>
<path d="M0 0 C4.47915328 -0.02886338 8.95828291 -0.04675187 13.4375 -0.0625 C14.71689453 -0.07087891 15.99628906 -0.07925781 17.31445312 -0.08789062 C19.13686523 -0.09272461 19.13686523 -0.09272461 20.99609375 -0.09765625 C22.12200928 -0.10289307 23.2479248 -0.10812988 24.40795898 -0.11352539 C27 0 27 0 28 1 C28 2.65 28 4.3 28 6 C18.76 6 9.52 6 0 6 C0 4.02 0 2.04 0 0 Z " fill="#ECF0F3" transform="translate(172,139)"/>
<path d="M0 0 C8.91 0 17.82 0 27 0 C27 1.98 27 3.96 27 6 C18.09 6 9.18 6 0 6 C0 4.02 0 2.04 0 0 Z " fill="#5F7A8D" transform="translate(161,123)"/>
<path d="M0 0 C1.09054688 0.14695313 1.09054688 0.14695313 2.203125 0.296875 C0.74201752 6.36609067 -0.96285196 12.33018672 -2.796875 18.296875 C-6.28358334 17.1874678 -9.57171737 16.03349834 -12.796875 14.296875 C-12.23251396 10.27109961 -10.19214737 8.04251457 -7.546875 5.046875 C-6.77859375 4.15484375 -6.0103125 3.2628125 -5.21875 2.34375 C-2.796875 0.296875 -2.796875 0.296875 0 0 Z " fill="#506B80" transform="translate(116.796875,130.703125)"/>
<path d="M0 0 C8.91 0 17.82 0 27 0 C27 1.65 27 3.3 27 5 C18.09 5 9.18 5 0 5 C0 3.35 0 1.7 0 0 Z " fill="#FFFFFF" transform="translate(172,194)"/>
<path d="M0 0 C8.91 0 17.82 0 27 0 C27 1.65 27 3.3 27 5 C18.09 5 9.18 5 0 5 C0 3.35 0 1.7 0 0 Z " fill="#FFFFFF" transform="translate(172,183)"/>
<path d="M0 0 C2.6953125 -0.34375 2.6953125 -0.34375 6 0 C8.5546875 2.40625 8.5546875 2.40625 10.875 5.5 C11.65617187 6.5209375 12.43734375 7.541875 13.2421875 8.59375 C13.82226562 9.3878125 14.40234375 10.181875 15 11 C12.93100225 13.27271445 11.16580795 14.55694402 8.3125 15.6875 C7.219375 16.120625 6.12625 16.55375 5 17 C4.16080602 14.73117913 3.32848276 12.46022973 2.5 10.1875 C2.26152344 9.54490234 2.02304688 8.90230469 1.77734375 8.24023438 C0.72931254 5.35066261 0 3.09923939 0 0 Z " fill="#4B667B" transform="translate(79,132)"/>
<path d="M0 0 C1.32 0.33 2.64 0.66 4 1 C4.625 4.375 4.625 4.375 5 8 C4.34 8.66 3.68 9.32 3 10 C2.01 10 1.02 10 0 10 C0 6.7 0 3.4 0 0 Z " fill="#557287" transform="translate(126,88)"/>
<path d="M0 0 C0.99 0 1.98 0 3 0 C3 2.97 3 5.94 3 9 C1.68 8.67 0.36 8.34 -1 8 C-1.625 5.6875 -1.625 5.6875 -2 3 C-1.34 2.01 -0.68 1.02 0 0 Z " fill="#59758A" transform="translate(68,89)"/>
<path d="M0 0 C1.32 0.66 2.64 1.32 4 2 C3.34 3.98 2.68 5.96 2 8 C1.01 7.67 0.02 7.34 -1 7 C-2.1875 4.4375 -2.1875 4.4375 -3 2 C-2.01 1.34 -1.02 0.68 0 0 Z " fill="#516D81" transform="translate(98,148)"/>
<path d="M0 0 C1.65 0 3.3 0 5 0 C5 1.65 5 3.3 5 5 C3.35 5 1.7 5 0 5 C0 3.35 0 1.7 0 0 Z " fill="#425E71" transform="translate(156,189)"/>
<path d="M0 0 C1.65 0 3.3 0 5 0 C5 1.65 5 3.3 5 5 C3.35 5 1.7 5 0 5 C0 3.35 0 1.7 0 0 Z " fill="#405B6F" transform="translate(156,167)"/>
<path d="M0 0 C1.65 0 3.3 0 5 0 C5 1.65 5 3.3 5 5 C3.35 5 1.7 5 0 5 C0 3.35 0 1.7 0 0 Z " fill="#446075" transform="translate(156,145)"/>
</svg>
